<svg width="127" height="31" viewBox="0 0 127 31" fill="none" xmlns="http://www.w3.org/2000/svg">
<path d="M37.9453 19.8967H46.9093V17.1967H41.1313V7.02673H37.9453V19.8967Z" fill="#010535"/>
<path d="M52.2226 18.0968C50.9446 18.0968 50.2786 16.9808 50.2786 15.3068C50.2786 13.6328 50.9446 12.4988 52.2226 12.4988C53.5006 12.4988 54.1846 13.6328 54.1846 15.3068C54.1846 16.9808 53.5006 18.0968 52.2226 18.0968ZM52.2406 20.1848C55.2106 20.1848 57.1546 18.0788 57.1546 15.3068C57.1546 12.5348 55.2106 10.4288 52.2406 10.4288C49.2886 10.4288 47.3086 12.5348 47.3086 15.3068C47.3086 18.0788 49.2886 20.1848 52.2406 20.1848Z" fill="#010535"/>
<path d="M62.2957 23.0825C63.6637 23.0825 64.8697 22.7765 65.6797 22.0565C66.4177 21.3905 66.9037 20.3825 66.9037 18.9965V10.6805H64.0957V11.6705H64.0597C63.5197 10.8965 62.6917 10.4105 61.4677 10.4105C59.1817 10.4105 57.5977 12.3185 57.5977 15.0185C57.5977 17.8445 59.5237 19.3925 61.5937 19.3925C62.7097 19.3925 63.4117 18.9425 63.9517 18.3305H64.0237V19.2485C64.0237 20.3645 63.5017 21.0125 62.2597 21.0125C61.2877 21.0125 60.8017 20.5985 60.6397 20.1125H57.7957C58.0837 22.0385 59.7577 23.0825 62.2957 23.0825ZM62.2777 17.2145C61.1797 17.2145 60.4597 16.3145 60.4597 14.9285C60.4597 13.5245 61.1797 12.6245 62.2777 12.6245C63.5017 12.6245 64.1497 13.6685 64.1497 14.9105C64.1497 16.2065 63.5557 17.2145 62.2777 17.2145Z" fill="#010535"/>
<path d="M72.6757 18.0968C71.3977 18.0968 70.7317 16.9808 70.7317 15.3068C70.7317 13.6328 71.3977 12.4988 72.6757 12.4988C73.9537 12.4988 74.6377 13.6328 74.6377 15.3068C74.6377 16.9808 73.9537 18.0968 72.6757 18.0968ZM72.6937 20.1848C75.6637 20.1848 77.608 18.0788 77.608 15.3068C77.608 12.5348 75.6637 10.4288 72.6937 10.4288C69.7417 10.4288 67.7617 12.5348 67.7617 15.3068C67.7617 18.0788 69.7417 20.1848 72.6937 20.1848Z" fill="#010535"/>
<path d="M78.4648 19.8967H81.3988V10.6807H78.4648V19.8967ZM78.4648 9.40274H81.3988V7.02673H78.4648V9.40274Z" fill="#010535"/>
<path d="M82.6719 22.9385H85.6059V18.9425H85.6419C86.2179 19.7165 87.0639 20.1845 88.2519 20.1845C90.6639 20.1845 92.2659 18.2765 92.2659 15.2885C92.2659 12.5165 90.7719 10.4105 88.3239 10.4105C87.0639 10.4105 86.1639 10.9685 85.5339 11.7965H85.4799V10.6805H82.6719V22.9385ZM87.4959 17.9165C86.2359 17.9165 85.5159 16.8905 85.5159 15.3965C85.5159 13.9025 86.1639 12.7685 87.4419 12.7685C88.7019 12.7685 89.2959 13.8125 89.2959 15.3965C89.2959 16.9625 88.6119 17.9165 87.4959 17.9165Z" fill="#010535"/>
<path d="M97.0445 20.1845C99.4565 20.1845 101.239 19.1405 101.239 17.1245C101.239 14.7665 99.3305 14.3525 97.7105 14.0825C96.5405 13.8665 95.4965 13.7765 95.4965 13.1285C95.4965 12.5525 96.0545 12.2825 96.7745 12.2825C97.5845 12.2825 98.1425 12.5345 98.2505 13.3625H100.951C100.807 11.5445 99.4025 10.4105 96.7925 10.4105C94.6145 10.4105 92.8145 11.4185 92.8145 13.3625C92.8145 15.5225 94.5245 15.9545 96.1265 16.2245C97.3505 16.4405 98.4665 16.5305 98.4665 17.3585C98.4665 17.9525 97.9085 18.2765 97.0265 18.2765C96.0545 18.2765 95.4425 17.8265 95.3345 16.9085H92.5625C92.6525 18.9425 94.3445 20.1845 97.0445 20.1845Z" fill="#010535"/>
<path d="M105.22 20.1668C106.498 20.1668 107.308 19.6628 107.974 18.7628H108.028V19.8968H110.836V10.6808H107.902V15.8288C107.902 16.9268 107.29 17.6828 106.282 17.6828C105.346 17.6828 104.896 17.1248 104.896 16.1168V10.6808H101.98V16.7288C101.98 18.7808 103.096 20.1668 105.22 20.1668Z" fill="#010535"/>
<path d="M112.113 19.8965H115.047V14.7305C115.047 13.6325 115.587 12.8585 116.505 12.8585C117.387 12.8585 117.801 13.4345 117.801 14.4245V19.8965H120.735V14.7305C120.735 13.6325 121.257 12.8585 122.193 12.8585C123.075 12.8585 123.489 13.4345 123.489 14.4245V19.8965H126.423V13.9025C126.423 11.8325 125.379 10.4105 123.291 10.4105C122.103 10.4105 121.113 10.9145 120.393 12.0305H120.357C119.889 11.0405 118.971 10.4105 117.765 10.4105C116.433 10.4105 115.551 11.0405 114.975 11.9945H114.921V10.6805H112.113V19.8965Z" fill="#010535"/>
<path fill-rule="evenodd" clip-rule="evenodd" d="M6.86377 2.75309C5.79077 3.50336 4.8205 4.39042 3.97821 5.38899C7.42019 5.06943 11.7931 5.59122 16.87 8.1297C22.2915 10.8404 26.6571 10.932 29.6953 10.346C29.4196 9.51127 29.0725 8.70907 28.6614 7.94647C25.1835 8.3133 20.7247 7.82775 15.5284 5.22967C12.2287 3.57982 9.32004 2.90019 6.86377 2.75309ZM26.6298 5.05467C23.8832 1.98593 19.8918 0.0546875 15.4492 0.0546875C14.1446 0.0546875 12.8787 0.221268 11.672 0.534298C13.3064 0.980252 15.0426 1.63268 16.87 2.54639C20.6745 4.44858 23.959 5.06106 26.6298 5.05467ZM30.3449 13.2758C26.6744 14.0006 21.6058 13.8517 15.5284 10.813C9.84669 7.97212 5.32454 8.0079 2.27464 8.68567C2.11722 8.72062 1.9635 8.75737 1.81349 8.79562C1.41418 9.66405 1.09544 10.5773 0.866745 11.5256C1.11101 11.4603 1.36342 11.3983 1.62384 11.3404C5.3239 10.5182 10.5518 10.5539 16.87 13.713C22.5518 16.5539 27.0739 16.5181 30.1239 15.8403C30.2283 15.8171 30.3313 15.7931 30.4326 15.7684C30.4437 15.5319 30.4492 15.2939 30.4492 15.0547C30.4492 14.4528 30.4138 13.8592 30.3449 13.2758ZM29.9428 18.9339C26.3079 19.5694 21.387 19.3255 15.5284 16.3963C9.84669 13.5554 5.32454 13.5912 2.27464 14.269C1.59766 14.4194 0.988648 14.6026 0.451416 14.796C0.449952 14.882 0.449219 14.9683 0.449219 15.0547C0.449219 23.339 7.16494 30.0547 15.4492 30.0547C22.392 30.0547 28.2332 25.3379 29.9428 18.9339Z" fill="url(#paint0_linear_214_4500)"/>
<defs>
<linearGradient id="paint0_linear_214_4500" x1="0.75697" y1="14.8256" x2="30.1415" y2="14.9036" gradientUnits="userSpaceOnUse">
<stop stop-color="#4D51AB"/>
<stop offset="1" stop-color="#55CEE3"/>
</linearGradient>
</defs>
</svg>
