<svg width="180" height="180" viewBox="0 0 180 180" fill="none" xmlns="http://www.w3.org/2000/svg">
<circle cx="90" cy="90" r="90" fill="url(#paint0_linear_385_447)"/>
<path d="M96.9773 23.4369C96.1169 23.3593 95.3298 23.1311 94.6159 22.7522C93.9127 22.3744 93.3121 21.8811 92.8141 21.2723C92.3161 20.6636 91.9451 19.9688 91.7012 19.1878C91.468 18.4078 91.3917 17.5715 91.4722 16.6789C91.5528 15.7863 91.7776 14.9772 92.1467 14.2515C92.5167 13.5151 93.0007 12.8975 93.5987 12.3985C94.1976 11.8888 94.8763 11.5163 95.6348 11.2812C96.405 11.0363 97.2256 10.9531 98.0967 11.0317C98.9678 11.1104 99.7344 11.3259 100.397 11.6784C101.069 12.0318 101.626 12.4724 102.066 13C102.506 13.5276 102.802 14.0964 102.953 14.7063L100.647 15.5716C100.495 14.9724 100.178 14.4613 99.6957 14.0383C99.2251 13.6055 98.6242 13.3562 97.8929 13.2902C97.1831 13.2261 96.5443 13.3365 95.9765 13.6214C95.4087 13.9062 94.9476 14.3308 94.5931 14.8951C94.2503 15.4497 94.0435 16.1195 93.9726 16.9046C93.9018 17.6896 93.9849 18.391 94.2219 19.0087C94.4696 19.6274 94.8473 20.1277 95.3549 20.5096C95.8626 20.8915 96.4713 21.1145 97.1811 21.1785C97.9124 21.2445 98.5477 21.1121 99.0871 20.7813C99.6383 20.4408 100.042 19.9893 100.299 19.427L102.413 20.6911C102.155 21.2642 101.763 21.7709 101.235 22.2111C100.707 22.6514 100.081 22.9852 99.3556 23.2125C98.6412 23.4407 97.8484 23.5156 96.9773 23.4369Z" fill="white"/>
<path d="M107.286 25.3361C106.44 25.1162 105.717 24.7219 105.117 24.1533C104.528 23.5874 104.111 22.9157 103.866 22.1382C103.635 21.353 103.631 20.5319 103.854 19.6749C104.079 18.8074 104.483 18.0922 105.064 17.5293C105.656 16.969 106.347 16.5851 107.137 16.3777C107.938 16.1729 108.761 16.1805 109.608 16.4004C110.454 16.6204 111.172 17.0133 111.762 17.5792C112.351 18.1451 112.763 18.8155 112.996 19.5902C113.241 20.3677 113.25 21.1902 113.025 22.0576C112.802 22.9146 112.393 23.6285 111.799 24.1992C111.218 24.7621 110.532 25.1474 109.741 25.3548C108.951 25.5623 108.133 25.5561 107.286 25.3361ZM107.836 23.2198C108.265 23.3311 108.661 23.3282 109.027 23.2111C109.402 23.0967 109.725 22.8849 109.995 22.5758C110.275 22.2693 110.475 21.8861 110.595 21.4263C110.714 20.9664 110.725 20.5396 110.626 20.1459C110.541 19.7444 110.362 19.4023 110.09 19.1195C109.83 18.829 109.487 18.6281 109.058 18.5168C108.63 18.4055 108.226 18.4122 107.848 18.5371C107.472 18.6515 107.144 18.8619 106.864 19.1683C106.597 19.4671 106.403 19.8464 106.284 20.3062C106.164 20.7661 106.147 21.1967 106.233 21.5982C106.328 22.0024 106.512 22.3459 106.785 22.6287C107.057 22.9114 107.408 23.1085 107.836 23.2198Z" fill="white"/>
<path d="M112.646 26.685L116.106 18.5461L118.193 19.4331L117.508 21.043L117.541 20.6346C117.937 20.2279 118.392 19.999 118.907 19.9478C119.435 19.8909 119.983 19.9829 120.549 20.2236C121.165 20.4855 121.647 20.8428 121.994 21.2955C122.352 21.7524 122.56 22.2693 122.62 22.8462C122.684 23.4132 122.585 24.0047 122.323 24.6208L120.099 29.853L117.863 28.9026L119.885 24.1474C120.02 23.8294 120.071 23.5287 120.039 23.2452C120.017 22.966 119.919 22.7132 119.746 22.4868C119.582 22.2647 119.351 22.0903 119.053 21.9636C118.765 21.8411 118.479 21.7958 118.195 21.8279C117.912 21.8599 117.657 21.9628 117.431 22.1364C117.214 22.3143 117.038 22.5622 116.903 22.8802L114.882 27.6354L112.646 26.685Z" fill="white"/>
<path d="M125.193 32.9049C124.263 32.3769 123.682 31.7174 123.448 30.9264C123.229 30.1314 123.376 29.2832 123.888 28.3819L125.64 25.2976L124.344 24.5616L125.384 22.7307L125.454 22.7707C125.849 22.9947 126.205 23.0668 126.524 22.987C126.852 22.9125 127.128 22.6781 127.352 22.2837L127.672 21.7204L129.784 22.9204L128.792 24.6668L130.595 25.6908L129.555 27.5216L127.752 26.4976L126.08 29.4411C125.931 29.704 125.852 29.9513 125.845 30.183C125.843 30.4053 125.916 30.6148 126.066 30.8113C126.215 31.0078 126.435 31.1887 126.726 31.354C126.792 31.3914 126.869 31.4293 126.959 31.4679C127.049 31.5066 127.144 31.5478 127.243 31.5918L126.227 33.3804C126.075 33.3192 125.905 33.2473 125.716 33.1647C125.527 33.0822 125.353 32.9956 125.193 32.9049Z" fill="white"/>
<path d="M128.454 35.2183C127.938 34.8447 127.552 34.4386 127.296 34.0002C127.041 33.5617 126.923 33.1166 126.943 32.6648C126.97 32.2043 127.139 31.7597 127.449 31.3311C127.74 30.9288 128.089 30.6411 128.494 30.4679C128.906 30.286 129.375 30.2262 129.903 30.2886C130.44 30.3573 131.025 30.5537 131.656 30.8779L134.104 32.1098L133.059 33.553L130.985 32.5513C130.667 32.4011 130.386 32.3378 130.143 32.3614C129.905 32.3762 129.701 32.5016 129.53 32.7378C129.372 32.9565 129.331 33.1872 129.409 33.4299C129.486 33.6727 129.648 33.8827 129.893 34.06C130.216 34.2943 130.551 34.4301 130.897 34.4675C131.244 34.5049 131.568 34.453 131.87 34.3118C132.187 34.1682 132.45 33.9521 132.659 33.6634L134.008 31.8004C134.204 31.5293 134.26 31.2227 134.174 30.8807C134.097 30.5451 133.875 30.2443 133.507 29.9783C133.158 29.725 132.777 29.5965 132.367 29.5926C131.965 29.595 131.589 29.7094 131.239 29.9356L130.206 28.048C130.637 27.747 131.11 27.5629 131.625 27.4959C132.14 27.4289 132.669 27.4718 133.212 27.6247C133.754 27.7775 134.279 28.0376 134.787 28.4048C135.39 28.8418 135.844 29.3374 136.15 29.8916C136.455 30.4459 136.592 31.0117 136.561 31.5889C136.544 32.1637 136.35 32.7091 135.976 33.2252L132.557 37.9483L130.72 36.6186L131.556 35.464L132.059 35.7082C131.621 35.8711 131.199 35.9657 130.793 35.992C130.394 36.0095 130.002 35.9524 129.618 35.8207C129.227 35.6977 128.839 35.4969 128.454 35.2183Z" fill="white"/>
<path d="M136.809 42.1762C136.171 41.5625 135.733 40.8646 135.496 40.0827C135.275 39.3004 135.255 38.5104 135.438 37.7125C135.629 36.9222 136.028 36.2118 136.634 35.5814C137.24 34.9509 137.931 34.5288 138.705 34.3151C139.488 34.0936 140.274 34.0858 141.065 34.2918C141.855 34.4978 142.57 34.9077 143.208 35.5214C143.683 35.9779 144.044 36.4825 144.292 37.0352C144.539 37.5878 144.665 38.1505 144.668 38.7232C144.679 39.2881 144.556 39.8289 144.299 40.3456L142.153 39.54C142.351 39.116 142.407 38.6835 142.322 38.2422C142.245 37.8084 142.035 37.4268 141.692 37.0975C141.389 36.8056 141.045 36.6176 140.662 36.5335C140.286 36.4568 139.901 36.4835 139.506 36.6134C139.12 36.7508 138.762 36.9907 138.432 37.3332C138.103 37.6756 137.877 38.0428 137.755 38.4347C137.641 38.834 137.629 39.2199 137.72 39.5924C137.82 39.9723 138.021 40.3082 138.324 40.6001C138.675 40.9369 139.068 41.1354 139.505 41.1955C139.941 41.2557 140.367 41.1787 140.783 40.9643L141.661 43.0893C141.185 43.3506 140.661 43.4907 140.088 43.5095C139.516 43.5284 138.945 43.4288 138.376 43.2109C137.814 42.9851 137.291 42.6402 136.809 42.1762Z" fill="white"/>
<path d="M143.103 49.0432C142.419 48.222 142.107 47.4 142.166 46.5774C142.241 45.7562 142.676 45.0137 143.473 44.3501L146.198 42.0793L145.244 40.9345L146.861 39.5865L146.913 39.6488C147.204 39.9972 147.512 40.19 147.838 40.2274C148.171 40.273 148.512 40.1506 148.861 39.8603L149.358 39.4455L150.914 41.312L149.371 42.5978L150.698 44.1905L149.08 45.5385L147.753 43.9458L145.152 46.1129C144.92 46.3064 144.76 46.5104 144.671 46.7247C144.591 46.932 144.586 47.1539 144.657 47.3904C144.727 47.6268 144.87 47.8736 145.084 48.1307C145.132 48.1888 145.192 48.2517 145.262 48.3194C145.333 48.3872 145.407 48.4591 145.484 48.5351L143.904 49.852C143.784 49.7414 143.65 49.6142 143.502 49.4704C143.354 49.3266 143.221 49.1842 143.103 49.0432Z" fill="white"/>
<path d="M148.889 58.1904C148.439 57.3536 148.213 56.5124 148.212 55.667C148.211 54.8216 148.412 54.045 148.816 53.3372C149.235 52.6338 149.834 52.0724 150.614 51.653L157.347 48.0312L158.536 50.2422L151.946 53.7872C151.527 54.0123 151.196 54.3072 150.951 54.6721C150.72 55.0413 150.597 55.4387 150.58 55.8644C150.564 56.29 150.666 56.7073 150.886 57.1162C151.111 57.5346 151.403 57.8496 151.762 58.0611C152.126 58.2821 152.523 58.3934 152.953 58.3951C153.398 58.4011 153.829 58.2916 154.248 58.0665L160.838 54.5215L162.027 56.7325L155.295 60.3542C154.515 60.7737 153.713 60.9595 152.891 60.9116C152.083 60.8681 151.326 60.6129 150.621 60.146C149.917 59.6791 149.339 59.0273 148.889 58.1904Z" fill="white"/>
<path d="M153.22 68.0142C152.9 67.0966 152.835 66.2216 153.025 65.3891C153.228 64.5632 153.654 63.8999 154.303 63.3991L155.685 64.8038C155.311 65.1745 155.061 65.5878 154.934 66.0437C154.807 66.4997 154.822 66.952 154.979 67.4006C155.093 67.7268 155.246 67.9535 155.439 68.0805C155.632 68.2076 155.846 68.2303 156.08 68.1484C156.203 68.1057 156.294 68.0396 156.354 67.95C156.425 67.8568 156.474 67.7366 156.503 67.5893C156.532 67.4421 156.539 67.2678 156.526 67.0665L156.428 65.5055C156.383 64.7548 156.511 64.1213 156.811 63.6048C157.121 63.0848 157.572 62.7217 158.163 62.5153C158.683 62.3339 159.183 62.3082 159.663 62.4381C160.143 62.568 160.574 62.8351 160.955 63.2396C161.347 63.6405 161.651 64.152 161.868 64.7739C162.152 65.5895 162.208 66.3708 162.034 67.1177C161.873 67.8712 161.491 68.4963 160.887 68.9931L159.499 67.5731C159.803 67.3298 160 67.0094 160.09 66.612C160.194 66.2213 160.175 65.822 160.033 65.4142C159.929 65.1185 159.786 64.9054 159.604 64.7747C159.424 64.6543 159.228 64.6314 159.014 64.7061C158.901 64.7453 158.81 64.8114 158.74 64.9046C158.669 64.9978 158.622 65.1231 158.596 65.2806C158.575 65.4482 158.569 65.6446 158.579 65.8699L158.646 67.3391C158.684 68.1035 158.558 68.7422 158.268 69.2551C157.988 69.7644 157.547 70.124 156.946 70.3339C156.426 70.5153 155.924 70.536 155.441 70.3959C154.961 70.266 154.525 70.0006 154.134 69.5997C153.752 69.1952 153.448 68.6667 153.22 68.0142Z" fill="white"/>
<path d="M162.119 79.223L162.949 77.6684L164.611 78.5654L164.973 76.6999L166.701 77.0154L166.353 78.8626L168.359 78.5836L168.604 80.3482L166.599 80.6273L167.438 82.3094L165.862 83.0848L165.004 81.3889L163.65 82.7057L162.427 81.4369L163.781 80.1201L162.119 79.223Z" fill="white"/>
<path d="M156.609 96.4707C156.681 95.6098 156.903 94.821 157.277 94.1043C157.65 93.3984 158.138 92.7942 158.743 92.2918C159.349 91.7893 160.041 91.4132 160.82 91.1636C161.598 90.9246 162.434 90.8422 163.327 90.9162C164.22 90.9902 165.031 91.209 165.759 91.5728C166.498 91.9374 167.119 92.4168 167.623 93.0111C168.137 93.6063 168.514 94.2822 168.755 95.039C169.006 95.8073 169.095 96.6274 169.023 97.499C168.95 98.3707 168.74 99.1388 168.393 99.8035C168.044 100.479 167.608 101.039 167.084 101.483C166.559 101.927 165.993 102.227 165.384 102.382L164.502 100.082C165.1 99.9262 165.608 99.6053 166.028 99.12C166.457 98.6463 166.702 98.0436 166.763 97.3118C166.822 96.6016 166.706 95.9636 166.417 95.3979C166.128 94.8322 165.7 94.3742 165.134 94.0238C164.577 93.6851 163.905 93.4832 163.12 93.4182C162.334 93.3531 161.633 93.4413 161.017 93.6828C160.401 93.9351 159.903 94.3165 159.525 94.8269C159.147 95.3373 158.928 95.9476 158.869 96.6579C158.809 97.3897 158.946 98.024 159.281 98.561C159.625 99.1096 160.08 99.5103 160.644 99.7629L159.395 101.886C158.82 101.633 158.311 101.244 157.867 100.719C157.422 100.195 157.084 99.5709 156.851 98.8473C156.618 98.1346 156.537 97.3423 156.609 96.4707Z" fill="white"/>
<path d="M154.789 106.793C155.002 105.944 155.391 105.218 155.955 104.614C156.517 104.021 157.185 103.599 157.961 103.349C158.744 103.112 159.565 103.102 160.424 103.318C161.293 103.537 162.011 103.935 162.579 104.512C163.143 105.1 163.532 105.788 163.746 106.576C163.956 107.376 163.955 108.199 163.741 109.047C163.528 109.896 163.14 110.616 162.579 111.21C162.017 111.803 161.35 112.22 160.577 112.46C159.801 112.71 158.979 112.725 158.11 112.506C157.251 112.29 156.534 111.887 155.959 111.296C155.392 110.719 155.002 110.036 154.788 109.248C154.575 108.459 154.575 107.641 154.789 106.793ZM156.909 107.327C156.801 107.756 156.807 108.153 156.926 108.517C157.044 108.892 157.258 109.213 157.569 109.48C157.878 109.759 158.262 109.956 158.723 110.072C159.184 110.188 159.611 110.195 160.004 110.094C160.404 110.005 160.745 109.824 161.026 109.549C161.314 109.288 161.513 108.943 161.621 108.513C161.729 108.084 161.719 107.681 161.592 107.303C161.474 106.929 161.262 106.602 160.953 106.324C160.652 106.059 160.272 105.868 159.811 105.752C159.35 105.636 158.919 105.623 158.518 105.711C158.115 105.81 157.773 105.996 157.492 106.271C157.211 106.545 157.017 106.897 156.909 107.327Z" fill="white"/>
<path d="M153.478 112.17L161.642 115.57L160.77 117.663L159.155 116.991L159.564 117.021C159.974 117.413 160.206 117.867 160.261 118.381C160.322 118.909 160.234 119.457 159.997 120.026C159.74 120.644 159.386 121.128 158.936 121.479C158.482 121.839 157.966 122.052 157.39 122.116C156.823 122.184 156.231 122.089 155.613 121.832L150.365 119.647L151.299 117.404L156.068 119.39C156.387 119.523 156.689 119.572 156.972 119.538C157.251 119.514 157.503 119.414 157.728 119.239C157.949 119.073 158.122 118.841 158.246 118.542C158.367 118.253 158.41 117.967 158.376 117.684C158.341 117.4 158.237 117.146 158.061 116.921C157.882 116.706 157.633 116.532 157.314 116.399L152.544 114.413L153.478 112.17Z" fill="white"/>
<path d="M147.349 124.76C147.871 123.827 148.526 123.24 149.315 123.001C150.108 122.776 150.958 122.916 151.863 123.422L154.96 125.151L155.686 123.85L157.525 124.876L157.485 124.947C157.264 125.343 157.195 125.7 157.277 126.018C157.354 126.345 157.59 126.62 157.986 126.841L158.552 127.157L157.367 129.278L155.614 128.299L154.603 130.109L152.765 129.082L153.775 127.272L150.82 125.622C150.556 125.475 150.308 125.398 150.076 125.392C149.854 125.392 149.645 125.467 149.449 125.617C149.254 125.768 149.075 125.99 148.912 126.282C148.875 126.348 148.837 126.426 148.799 126.516C148.761 126.606 148.721 126.701 148.678 126.8L146.882 125.798C146.942 125.646 147.012 125.475 147.093 125.285C147.175 125.096 147.26 124.921 147.349 124.76Z" fill="white"/>
<path d="M145.061 128.035C145.431 127.517 145.834 127.128 146.271 126.869C146.708 126.61 147.152 126.489 147.604 126.506C148.064 126.529 148.51 126.694 148.941 127.002C149.345 127.29 149.636 127.636 149.812 128.04C149.997 128.45 150.06 128.92 150.002 129.448C149.937 129.986 149.745 130.571 149.425 131.206L148.211 133.662L146.76 132.628L147.747 130.546C147.895 130.227 147.956 129.946 147.931 129.703C147.914 129.465 147.787 129.262 147.55 129.093C147.33 128.936 147.099 128.898 146.857 128.977C146.614 129.056 146.406 129.219 146.23 129.465C145.998 129.79 145.865 130.126 145.83 130.473C145.795 130.819 145.85 131.143 145.993 131.444C146.139 131.76 146.357 132.022 146.647 132.229L148.52 133.564C148.793 133.758 149.1 133.811 149.441 133.723C149.776 133.644 150.075 133.419 150.338 133.05C150.589 132.698 150.715 132.317 150.716 131.907C150.71 131.505 150.593 131.13 150.364 130.781L152.244 129.734C152.549 130.163 152.736 130.635 152.807 131.15C152.878 131.664 152.839 132.193 152.69 132.737C152.541 133.281 152.285 133.807 151.921 134.317C151.489 134.924 150.996 135.382 150.444 135.691C149.892 136.001 149.328 136.142 148.75 136.115C148.175 136.103 147.629 135.912 147.11 135.542L142.362 132.158L143.678 130.311L144.838 131.138L144.598 131.643C144.432 131.207 144.334 130.786 144.305 130.38C144.284 129.981 144.339 129.589 144.468 129.203C144.588 128.812 144.786 128.422 145.061 128.035Z" fill="white"/>
<path d="M138.166 136.442C138.775 135.799 139.47 135.357 140.25 135.114C141.031 134.887 141.821 134.862 142.62 135.039C143.411 135.224 144.125 135.617 144.76 136.219C145.395 136.82 145.822 137.508 146.041 138.281C146.268 139.062 146.282 139.848 146.082 140.64C145.881 141.432 145.477 142.15 144.868 142.792C144.415 143.27 143.913 143.635 143.362 143.887C142.811 144.139 142.249 144.268 141.677 144.276C141.112 144.291 140.57 144.172 140.052 143.919L140.842 141.766C141.267 141.961 141.7 142.014 142.141 141.926C142.574 141.846 142.954 141.633 143.281 141.288C143.57 140.983 143.756 140.638 143.837 140.254C143.911 139.877 143.881 139.492 143.749 139.099C143.608 138.713 143.366 138.357 143.021 138.03C142.676 137.703 142.307 137.48 141.915 137.361C141.514 137.249 141.128 137.241 140.757 137.335C140.378 137.437 140.043 137.64 139.753 137.946C139.419 138.299 139.224 138.694 139.167 139.13C139.11 139.567 139.19 139.993 139.407 140.407L137.289 141.301C137.024 140.826 136.88 140.303 136.857 139.731C136.834 139.159 136.929 138.587 137.143 138.016C137.365 137.453 137.706 136.928 138.166 136.442Z" fill="white"/>
<path d="M131.345 142.786C132.161 142.096 132.981 141.777 133.804 141.83C134.626 141.899 135.371 142.329 136.041 143.121L138.331 145.829L139.469 144.867L140.829 146.474L140.767 146.527C140.421 146.82 140.23 147.129 140.195 147.456C140.152 147.789 140.277 148.129 140.57 148.475L140.988 148.97L139.133 150.539L137.836 149.006L136.253 150.345L134.893 148.737L136.476 147.398L134.29 144.813C134.095 144.582 133.89 144.424 133.675 144.337C133.467 144.258 133.245 144.255 133.009 144.327C132.773 144.399 132.528 144.543 132.272 144.76C132.214 144.808 132.152 144.868 132.085 144.939C132.017 145.01 131.946 145.085 131.87 145.163L130.542 143.592C130.652 143.471 130.778 143.336 130.921 143.187C131.063 143.038 131.205 142.904 131.345 142.786Z" fill="white"/>
<path d="M122.238 148.641C123.071 148.185 123.911 147.953 124.756 147.945C125.601 147.938 126.379 148.134 127.09 148.532C127.797 148.946 128.362 149.541 128.788 150.318L132.459 157.023L130.257 158.229L126.663 151.665C126.435 151.249 126.138 150.919 125.771 150.677C125.4 150.449 125.002 150.328 124.576 150.315C124.15 150.302 123.734 150.407 123.327 150.63C122.91 150.858 122.597 151.152 122.388 151.513C122.17 151.879 122.061 152.277 122.063 152.707C122.06 153.151 122.173 153.582 122.401 153.999L125.995 160.563L123.793 161.768L120.121 155.062C119.696 154.286 119.504 153.486 119.546 152.663C119.584 151.854 119.833 151.096 120.295 150.388C120.757 149.679 121.404 149.097 122.238 148.641Z" fill="white"/>
<path d="M112.444 153.046C113.359 152.719 114.234 152.648 115.068 152.831C115.895 153.029 116.561 153.45 117.067 154.095L115.672 155.488C115.299 155.116 114.884 154.869 114.427 154.746C113.97 154.622 113.518 154.64 113.071 154.8C112.745 154.917 112.52 155.072 112.394 155.266C112.268 155.46 112.247 155.673 112.331 155.907C112.374 156.029 112.441 156.12 112.531 156.18C112.625 156.249 112.746 156.298 112.893 156.326C113.041 156.353 113.215 156.36 113.416 156.345L114.976 156.235C115.727 156.185 116.361 156.308 116.88 156.604C117.402 156.911 117.769 157.359 117.979 157.949C118.164 158.467 118.194 158.967 118.068 159.448C117.941 159.929 117.677 160.361 117.276 160.746C116.878 161.14 116.368 161.448 115.748 161.67C114.935 161.96 114.154 162.021 113.406 161.853C112.651 161.698 112.023 161.321 111.522 160.72L112.932 159.322C113.177 159.624 113.499 159.819 113.897 159.906C114.288 160.007 114.688 159.985 115.094 159.839C115.389 159.734 115.601 159.589 115.731 159.406C115.85 159.225 115.871 159.029 115.795 158.815C115.755 158.703 115.688 158.612 115.594 158.543C115.501 158.473 115.375 158.426 115.217 158.402C115.049 158.382 114.853 158.377 114.628 158.389L113.159 158.467C112.395 158.51 111.755 158.389 111.24 158.103C110.729 157.827 110.366 157.389 110.152 156.789C109.967 156.27 109.942 155.769 110.079 155.284C110.205 154.803 110.467 154.366 110.865 153.971C111.267 153.587 111.793 153.279 112.444 153.046Z" fill="white"/>
<path d="M101.303 162.025L102.864 162.844L101.979 164.513L103.847 164.861L103.544 166.592L101.694 166.257L101.988 168.26L100.225 168.519L99.9316 166.516L98.2557 167.367L97.4688 165.796L99.1583 164.926L97.8317 163.582L99.0915 162.35L100.418 163.694L101.303 162.025Z" fill="white"/>
<path d="M84.0176 156.641C84.879 156.706 85.6694 156.923 86.3888 157.291C87.0974 157.658 87.7052 158.143 88.2121 158.744C88.719 159.346 89.1001 160.035 89.3555 160.812C89.6001 161.589 89.6887 162.424 89.6213 163.317C89.5538 164.211 89.3409 165.023 88.9826 165.754C88.6234 166.496 88.1485 167.121 87.558 167.629C86.9666 168.147 86.2934 168.529 85.5385 168.776C84.772 169.032 83.9526 169.127 83.0804 169.061C82.2083 168.996 81.4386 168.791 80.7714 168.449C80.0935 168.105 79.5305 167.673 79.0825 167.152C78.6345 166.631 78.3306 166.066 78.1707 165.458L80.4639 164.559C80.6246 165.156 80.9491 165.663 81.4375 166.079C81.9144 166.504 82.5189 166.745 83.2511 166.8C83.9617 166.854 84.5988 166.734 85.1624 166.441C85.7259 166.148 86.1808 165.716 86.527 165.147C86.8616 164.587 87.0585 163.915 87.1178 163.129C87.1771 162.343 87.0838 161.642 86.8377 161.028C86.5809 160.413 86.1959 159.919 85.6827 159.544C85.1695 159.17 84.5576 158.956 83.847 158.902C83.1148 158.847 82.4814 158.989 81.9469 159.327C81.4008 159.676 81.0036 160.133 80.7551 160.699L78.6228 159.466C78.8721 158.89 79.2573 158.377 79.7784 157.929C80.2995 157.481 80.9209 157.138 81.6427 156.9C82.3538 156.662 83.1454 156.575 84.0176 156.641Z" fill="white"/>
<path d="M73.6867 154.898C74.5364 155.105 75.2654 155.489 75.8736 156.048C76.4713 156.605 76.898 157.271 77.1539 158.045C77.3967 158.826 77.4132 159.647 77.2033 160.507C76.9909 161.378 76.5983 162.099 76.0254 162.671C75.442 163.24 74.7568 163.634 73.9697 163.853C73.1722 164.07 72.3485 164.075 71.4988 163.868C70.6491 163.66 69.9253 163.278 69.3277 162.721C68.73 162.164 68.3084 161.5 68.0631 160.729C67.8072 159.955 67.7855 159.133 67.9979 158.262C68.2077 157.402 68.6056 156.682 69.1916 156.102C69.7645 155.531 70.4444 155.135 71.2315 154.916C72.0186 154.697 72.837 154.691 73.6867 154.898ZM73.1685 157.022C72.7384 156.918 72.3417 156.926 71.9783 157.049C71.6045 157.169 71.2849 157.386 71.0196 157.699C70.7437 158.009 70.5495 158.395 70.4369 158.857C70.3243 159.319 70.3202 159.745 70.4246 160.138C70.516 160.538 70.6999 160.877 70.9765 161.156C71.24 161.443 71.5869 161.638 72.017 161.743C72.4471 161.848 72.8503 161.835 73.2267 161.705C73.6005 161.585 73.9254 161.37 74.2012 161.059C74.464 160.756 74.6517 160.374 74.7643 159.913C74.8769 159.451 74.8875 159.02 74.7962 158.62C74.6943 158.217 74.5051 157.876 74.2285 157.598C73.952 157.319 73.5986 157.127 73.1685 157.022Z" fill="white"/>
<path d="M68.2926 153.623L64.9533 161.812L62.8535 160.956L63.5141 159.336L63.4873 159.745C63.0975 160.158 62.6458 160.393 62.132 160.452C61.6042 160.517 61.0554 160.433 60.4854 160.2C59.8655 159.947 59.3786 159.597 59.0247 159.15C58.6607 158.698 58.4446 158.184 58.3763 157.608C58.3038 157.042 58.394 156.45 58.6468 155.83L60.7935 150.565L63.0432 151.483L61.0923 156.267C60.9618 156.587 60.9146 156.888 60.9509 157.171C60.9771 157.45 61.0786 157.702 61.2556 157.925C61.4226 158.145 61.656 158.316 61.956 158.438C62.246 158.557 62.5324 158.598 62.8154 158.562C63.0984 158.525 63.3518 158.419 63.5755 158.242C63.7893 158.061 63.9614 157.81 64.0919 157.49L66.0429 152.706L68.2926 153.623Z" fill="white"/>
<path d="M55.6614 147.591C56.5986 148.105 57.1899 148.756 57.4352 149.543C57.6659 150.335 57.532 151.185 57.0333 152.094L55.327 155.204L56.6334 155.921L55.6205 157.767L55.5495 157.728C55.1519 157.509 54.7944 157.443 54.477 157.527C54.1502 157.606 53.8777 157.845 53.6596 158.243L53.3479 158.811L51.2179 157.642L52.1841 155.881L50.3665 154.884L51.3794 153.038L53.197 154.035L54.8254 151.067C54.9708 150.802 55.0456 150.554 55.0496 150.322C55.0484 150.1 54.9718 149.891 54.8198 149.697C54.6677 149.503 54.445 149.325 54.1515 149.164C54.0852 149.128 54.0069 149.091 53.9165 149.054C53.8261 149.016 53.731 148.976 53.6311 148.934L54.6207 147.13C54.773 147.189 54.9444 147.259 55.1346 147.339C55.3249 147.418 55.5005 147.502 55.6614 147.591Z" fill="white"/>
<path d="M52.3697 145.326C52.8912 145.692 53.2831 146.092 53.5453 146.527C53.8075 146.961 53.9317 147.405 53.9179 147.857C53.8979 148.318 53.7359 148.765 53.432 149.198C53.1466 149.604 52.8026 149.897 52.3999 150.076C51.991 150.264 51.5221 150.331 50.9931 150.276C50.4554 150.216 49.8682 150.028 49.2316 149.713L46.7663 148.517L47.7898 147.059L49.8785 148.03C50.1986 148.175 50.4803 148.234 50.7236 148.207C50.9607 148.189 51.1629 148.061 51.3304 147.822C51.4855 147.601 51.5225 147.37 51.4414 147.128C51.3603 146.886 51.196 146.679 50.9485 146.505C50.6215 146.276 50.2846 146.145 49.9379 146.113C49.5911 146.08 49.2677 146.137 48.9677 146.283C48.6526 146.431 48.3927 146.651 48.188 146.942L46.8668 148.825C46.6745 149.099 46.6237 149.406 46.7144 149.747C46.7963 150.082 47.0228 150.379 47.3941 150.64C47.7476 150.888 48.1296 151.011 48.5401 151.009C48.9417 151 49.3161 150.88 49.6631 150.649L50.7237 152.521C50.297 152.829 49.8266 153.019 49.3125 153.094C48.7985 153.169 48.2691 153.133 47.7243 152.989C47.1796 152.844 46.6509 152.592 46.1382 152.232C45.5284 151.804 45.0667 151.315 44.7533 150.765C44.44 150.215 44.2947 149.652 44.3175 149.074C44.3252 148.499 44.5121 147.951 44.8781 147.429L48.2276 142.657L50.0837 143.959L49.2649 145.126L48.7583 144.889C49.1938 144.72 49.6141 144.619 50.0193 144.587C50.4183 144.563 50.811 144.615 51.1974 144.741C51.59 144.858 51.9808 145.053 52.3697 145.326Z" fill="white"/>
<path d="M43.9121 138.492C44.5592 139.096 45.0069 139.787 45.2551 140.566C45.488 141.345 45.5189 142.134 45.3476 142.935C45.1685 143.728 44.7804 144.444 44.1835 145.083C43.5865 145.723 42.9023 146.155 42.1307 146.38C41.3518 146.613 40.5655 146.632 39.772 146.438C38.9784 146.243 38.258 145.844 37.6109 145.239C37.1295 144.79 36.761 144.291 36.5053 143.742C36.2497 143.193 36.1159 142.632 36.104 142.059C36.0846 141.495 36.1998 140.952 36.4494 140.432L38.6074 141.206C38.4157 141.633 38.3656 142.066 38.4571 142.506C38.5406 142.939 38.756 143.317 39.1033 143.641C39.4111 143.929 39.7573 144.112 40.142 144.19C40.5188 144.261 40.9035 144.229 41.2961 144.093C41.6809 143.95 42.0354 143.705 42.3596 143.358C42.6839 143.011 42.9043 142.64 43.0207 142.247C43.1292 141.846 43.1351 141.46 43.0383 141.089C42.9337 140.71 42.7275 140.377 42.4197 140.09C42.0646 139.758 41.6683 139.565 41.231 139.512C40.7937 139.458 40.3687 139.541 39.9561 139.762L39.0472 137.65C39.5194 137.381 40.0415 137.234 40.6135 137.206C41.1856 137.179 41.7579 137.27 42.3304 137.48C42.8956 137.698 43.4228 138.035 43.9121 138.492Z" fill="white"/>
<path d="M37.5159 131.72C38.2122 132.531 38.5367 133.349 38.4893 134.172C38.4266 134.994 38.0021 135.743 37.2155 136.418L34.524 138.729L35.4947 139.859L33.897 141.231L33.8442 141.169C33.5488 140.825 33.2377 140.637 32.9109 140.604C32.5771 140.564 32.2381 140.691 31.894 140.986L31.4024 141.408L29.8199 139.565L31.3438 138.257L29.9934 136.684L31.5911 135.312L32.9415 136.885L35.5101 134.68C35.7395 134.483 35.8968 134.277 35.9822 134.061C36.0593 133.853 36.0609 133.631 35.987 133.396C35.913 133.16 35.767 132.916 35.5489 132.662C35.4997 132.604 35.4393 132.542 35.3679 132.475C35.2964 132.409 35.2213 132.338 35.1428 132.263L36.7036 130.923C36.8255 131.032 36.9615 131.157 37.1115 131.299C37.2615 131.44 37.3963 131.581 37.5159 131.72Z" fill="white"/>
<path d="M31.5979 122.655C32.0604 123.485 32.2984 124.322 32.312 125.168C32.3256 126.013 32.1356 126.793 31.7421 127.506C31.3339 128.216 30.7431 128.786 29.9696 129.217L23.291 132.938L22.0692 130.744L28.6062 127.102C29.0213 126.871 29.3487 126.571 29.5884 126.203C29.8135 125.83 29.931 125.431 29.941 125.005C29.951 124.58 29.843 124.164 29.617 123.758C29.3858 123.343 29.0891 123.033 28.727 122.826C28.3597 122.611 27.961 122.505 27.531 122.51C27.0863 122.51 26.6564 122.626 26.2414 122.858L19.7043 126.499L18.4825 124.306L25.161 120.586C25.9345 120.155 26.733 119.957 27.5563 119.993C28.365 120.024 29.1251 120.268 29.8368 120.725C30.5484 121.181 31.1355 121.824 31.5979 122.655Z" fill="white"/>
<path d="M27.1187 112.893C27.4524 113.806 27.5305 114.68 27.3529 115.515C27.1615 116.344 26.7452 117.013 26.104 117.523L24.7012 116.139C25.0696 115.763 25.3138 115.346 25.4339 114.888C25.5539 114.431 25.5324 113.979 25.3693 113.532C25.2506 113.208 25.0939 112.983 24.899 112.859C24.7041 112.735 24.4901 112.716 24.2568 112.801C24.1351 112.845 24.0448 112.913 23.9859 113.003C23.9169 113.098 23.8691 113.219 23.8426 113.366C23.8161 113.514 23.8109 113.688 23.8269 113.889L23.9486 115.449C24.0043 116.199 23.886 116.834 23.5935 117.355C23.2909 117.879 22.8455 118.249 22.2572 118.464C21.74 118.653 21.2405 118.686 20.7587 118.564C20.277 118.441 19.8424 118.18 19.4552 117.781C19.0578 117.386 18.7461 116.879 18.5199 116.261C18.2233 115.449 18.1564 114.669 18.3194 113.92C18.4684 113.164 18.8414 112.533 19.4384 112.027L20.8468 113.427C20.5464 113.674 20.3542 113.998 20.27 114.396C20.172 114.789 20.1971 115.188 20.3454 115.593C20.4529 115.887 20.599 116.098 20.7838 116.226C20.9648 116.344 21.1618 116.364 21.3748 116.286C21.4863 116.245 21.5766 116.178 21.6456 116.084C21.7147 115.989 21.7606 115.863 21.7834 115.706C21.8025 115.538 21.8054 115.341 21.792 115.116L21.7037 113.648C21.6544 112.884 21.771 112.244 22.0533 111.727C22.3255 111.213 22.7607 110.847 23.3591 110.628C23.8763 110.439 24.3777 110.411 24.8632 110.544C25.3449 110.667 25.7845 110.926 26.1819 111.321C26.5691 111.72 26.8814 112.244 27.1187 112.893Z" fill="white"/>
<path d="M18.0561 101.816L17.2487 103.382L15.5737 102.51L15.2392 104.38L13.5065 104.09L13.8274 102.238L11.8264 102.546L11.555 100.785L13.556 100.477L12.6923 98.8075L14.2573 98.0091L15.1394 99.6922L16.474 98.3558L17.7156 99.6066L16.3811 100.943L18.0561 101.816Z" fill="white"/>
<path d="M23.3141 84.4963C23.2554 85.3582 23.0446 86.1501 22.6815 86.8722C22.3193 87.5835 21.8393 88.1948 21.2417 88.7061C20.6441 89.2174 19.9576 89.6036 19.1822 89.8647C18.4076 90.1151 17.5732 90.2098 16.679 90.1489C15.7848 90.0881 14.9709 89.8811 14.2373 89.5282C13.493 89.1745 12.8648 88.7042 12.3527 88.1174C11.8299 87.5298 11.4426 86.8595 11.1908 86.1064C10.929 85.3417 10.8278 84.5231 10.8872 83.6505C10.9466 82.7779 11.1452 82.0067 11.483 81.337C11.8215 80.6566 12.2497 80.0904 12.7675 79.6386C13.2853 79.1868 13.8474 78.8788 14.4539 78.7144L15.3697 81.0009C14.774 81.166 14.2701 81.4943 13.8578 81.9857C13.4355 82.4656 13.1994 83.0719 13.1496 83.8045C13.1012 84.5155 13.2256 85.1517 13.5229 85.7131C13.8202 86.2745 14.2549 86.7262 14.8269 87.0682C15.3888 87.3986 16.063 87.5906 16.8495 87.6442C17.6359 87.6977 18.3353 87.5992 18.9476 87.3486C19.5607 87.0873 20.0525 86.6987 20.4232 86.1828C20.7938 85.6668 21.0033 85.0534 21.0517 84.3423C21.1016 83.6098 20.9552 82.9775 20.6126 82.4455C20.26 81.9019 19.7997 81.508 19.2319 81.2638L20.4491 79.1225C21.0277 79.3675 21.5429 79.7489 21.9947 80.2667C22.4465 80.7845 22.794 81.4034 23.0372 82.1235C23.2812 82.8327 23.3735 83.6237 23.3141 84.4963Z" fill="white"/>
<path d="M24.9819 74.1542C24.781 75.0055 24.403 75.7373 23.848 76.3496C23.2954 76.9515 22.6332 77.3832 21.8614 77.6448C21.0816 77.8935 20.2608 77.9161 19.399 77.7127C18.5267 77.5068 17.8027 77.1196 17.2268 76.551C16.6534 75.9719 16.2541 75.2896 16.029 74.5042C15.8063 73.7083 15.7955 72.8847 15.9964 72.0335C16.1973 71.1822 16.574 70.4557 17.1266 69.8538C17.6791 69.252 18.3401 68.8255 19.1094 68.5744C19.8812 68.3128 20.7033 68.2849 21.5756 68.4907C22.4373 68.6941 23.1602 69.0866 23.744 69.6682C24.3199 70.2368 24.7204 70.9138 24.9456 71.6992C25.1707 72.4846 25.1828 73.303 24.9819 74.1542ZM22.8537 73.6519C22.9554 73.2211 22.9437 72.8244 22.8184 72.462C22.6956 72.0891 22.4766 71.7711 22.1615 71.5081C21.8488 71.2346 21.4613 71.0433 20.9989 70.9342C20.5364 70.825 20.1095 70.8241 19.7181 70.9314C19.3186 71.0258 18.9805 71.2123 18.704 71.4909C18.4194 71.7566 18.2262 72.1049 18.1245 72.5358C18.0228 72.9666 18.0386 73.3698 18.1719 73.7452C18.2947 74.1181 18.5124 74.4413 18.8251 74.7148C19.1298 74.9753 19.5133 75.1601 19.9757 75.2693C20.4381 75.3784 20.8691 75.3858 21.2685 75.2915C21.6705 75.1867 22.0098 74.9949 22.2863 74.7163C22.5629 74.4376 22.7521 74.0828 22.8537 73.6519Z" fill="white"/>
<path d="M26.2171 68.7456L18.0038 65.4666L18.8445 63.3606L20.4691 64.0092L20.0601 63.9854C19.6447 63.5987 19.4058 63.1487 19.3433 62.6354C19.2748 62.1081 19.3546 61.5586 19.5828 60.987C19.8311 60.3653 20.1776 59.8758 20.6226 59.5186C21.0715 59.1513 21.5836 58.9314 22.1591 58.8588C22.7245 58.7823 23.3181 58.8681 23.9398 59.1163L29.2198 61.2243L28.319 63.4807L23.5204 61.5649C23.1995 61.4368 22.8976 61.3919 22.6149 61.4302C22.3362 61.4584 22.0857 61.5618 21.8632 61.7405C21.6448 61.909 21.4755 62.1437 21.3554 62.4446C21.2393 62.7354 21.2004 63.0222 21.2386 63.3049C21.2769 63.5876 21.3854 63.8402 21.564 64.0626C21.7466 64.2751 21.9984 64.4453 22.3193 64.5734L27.1179 66.4892L26.2171 68.7456Z" fill="white"/>
<path d="M32.1557 56.0713C31.6484 57.0123 31.0019 57.6083 30.2163 57.8595C29.4264 58.0961 28.5751 57.9684 27.6627 57.4764L24.5404 55.7931L23.8332 57.1047L21.9798 56.1055L22.0182 56.0342C22.2335 55.635 22.2976 55.277 22.2108 54.9603C22.129 54.6341 21.8886 54.3634 21.4894 54.1482L20.9191 53.8407L22.0721 51.7021L23.8399 52.6553L24.8238 50.8303L26.6772 51.8296L25.6934 53.6545L28.6731 55.261C28.9392 55.4045 29.1882 55.4774 29.42 55.4797C29.6424 55.4769 29.8501 55.3987 30.0433 55.2452C30.2364 55.0918 30.4124 54.8677 30.5713 54.5731C30.6072 54.5065 30.6434 54.4279 30.68 54.3373C30.7166 54.2466 30.7558 54.1512 30.7975 54.051L32.6082 55.0272C32.5503 55.18 32.4822 55.3518 32.4039 55.5427C32.3255 55.7335 32.2428 55.9097 32.1557 56.0713Z" fill="white"/>
<path d="M34.3945 52.7648C34.0323 53.289 33.6349 53.6837 33.2022 53.9492C32.7695 54.2146 32.3271 54.342 31.875 54.3315C31.414 54.3149 30.9658 54.1563 30.5305 53.8555C30.1218 53.5732 29.8265 53.2313 29.6444 52.8299C29.4534 52.4224 29.3833 51.954 29.434 51.4247C29.4908 50.8865 29.6743 50.2979 29.9844 49.6591L31.1621 47.185L32.628 48.1977L31.6722 50.2936C31.5291 50.6147 31.472 50.8968 31.501 51.1399C31.521 51.3768 31.651 51.5782 31.8908 51.7439C32.1129 51.8973 32.3445 51.9326 32.5855 51.8497C32.8265 51.7669 33.0329 51.6011 33.2048 51.3523C33.4318 51.0236 33.5602 50.6857 33.5899 50.3388C33.6197 49.9918 33.5606 49.6689 33.4128 49.3699C33.2622 49.0559 33.0404 48.7976 32.7472 48.5951L30.8548 47.2878C30.5794 47.0975 30.2717 47.049 29.9317 47.1422C29.5978 47.2265 29.302 47.4553 29.0442 47.8284C28.7987 48.1838 28.6786 48.5667 28.6838 48.9771C28.6951 49.3787 28.8177 49.7521 29.0516 50.0974L27.1873 51.1718C26.8768 50.7474 26.6824 50.2784 26.604 49.7649C26.5256 49.2514 26.5569 48.7218 26.6977 48.176C26.8385 47.6302 27.0869 47.0996 27.4429 46.5843C27.8664 45.9713 28.3518 45.5061 28.8992 45.1887C29.4466 44.8712 30.0092 44.7218 30.587 44.7404C31.162 44.7439 31.7116 44.9267 32.2358 45.2888L37.0333 48.6031L35.7444 50.4688L34.5717 49.6586L34.8047 49.1503C34.9773 49.5845 35.0811 50.004 35.1164 50.409C35.1427 50.8078 35.0943 51.2009 34.9711 51.5882C34.8567 51.9817 34.6645 52.3739 34.3945 52.7648Z" fill="white"/>
<path d="M41.1657 44.2562C40.5662 44.9077 39.8781 45.3604 39.1015 45.6143C38.3243 45.8529 37.5349 45.8896 36.7332 45.7242C35.9389 45.5508 35.2199 45.1681 34.5763 44.5758C33.9327 43.9835 33.4956 43.3024 33.2649 42.5326C33.0263 41.7553 33.0012 40.9693 33.1898 40.1743C33.3784 39.3793 33.7725 38.6561 34.3721 38.0045C34.8181 37.5198 35.3146 37.1477 35.8617 36.888C36.4088 36.6284 36.9686 36.4905 37.5411 36.4744C38.1056 36.4509 38.649 36.5621 39.1712 36.8078L38.4128 38.9715C37.9847 38.7829 37.551 38.736 37.1117 38.8307C36.6797 38.9174 36.3028 39.1355 35.9811 39.4852C35.6959 39.7951 35.5155 40.1426 35.4398 40.5279C35.3714 40.9052 35.4065 41.2896 35.545 41.6813C35.6909 42.0649 35.9386 42.4176 36.2882 42.7394C36.6379 43.0611 37.0099 43.2787 37.4044 43.3922C37.8061 43.4978 38.1922 43.5009 38.5625 43.4014C38.9401 43.294 39.2715 43.0854 39.5567 42.7755C39.8857 42.4179 40.0756 42.0203 40.1261 41.5826C40.1767 41.1449 40.0903 40.7206 39.8669 40.3095L41.9721 39.3853C42.2438 39.8554 42.3954 40.3764 42.4268 40.9483C42.4582 41.5201 42.3712 42.0931 42.1658 42.6671C41.9524 43.2338 41.6191 43.7635 41.1657 44.2562Z" fill="white"/>
<path d="M47.8934 37.8096C47.0874 38.5118 46.2725 38.8422 45.4488 38.8009C44.6261 38.7443 43.8743 38.3252 43.1934 37.5436L40.8632 34.8691L39.7397 35.848L38.3565 34.2604L38.4175 34.2072C38.7595 33.9093 38.9455 33.5968 38.9757 33.2698C39.014 32.9357 38.8842 32.5976 38.5862 32.2557L38.1606 31.7672L39.9925 30.1712L41.3118 31.6855L42.875 30.3236L44.2582 31.9112L42.695 33.2731L44.9188 35.8255C45.1174 36.0534 45.3248 36.2093 45.541 36.2931C45.7501 36.3687 45.972 36.3686 46.2068 36.2929C46.4417 36.2173 46.6853 36.0695 46.9376 35.8496C46.9946 35.7999 47.0562 35.7391 47.1224 35.6671C47.1886 35.5951 47.2588 35.5196 47.3332 35.4405L48.6844 36.9915C48.5765 37.1142 48.4523 37.251 48.3118 37.4021C48.1713 37.5532 48.0318 37.689 47.8934 37.8096Z" fill="white"/>
<path d="M56.9142 31.8285C56.0875 32.2971 55.2516 32.5413 54.4064 32.5611C53.5612 32.5809 52.7803 32.3967 52.0638 32.0085C51.3513 31.6056 50.7768 31.0189 50.3402 30.2486L46.5703 23.5977L48.7544 22.3597L52.4444 28.8697C52.6787 29.2831 52.9809 29.6082 53.3511 29.8453C53.7253 30.0676 54.1254 30.1821 54.5513 30.189C54.9772 30.1958 55.3921 30.0848 55.796 29.8558C56.2094 29.6215 56.5178 29.3226 56.7213 28.959C56.9342 28.5901 57.0367 28.1906 57.0288 27.7607C57.025 27.316 56.906 26.887 56.6717 26.4736L52.9817 19.9636L55.1658 18.7256L58.9357 25.3766C59.3723 26.1469 59.5758 26.9438 59.5461 27.7674C59.5205 28.5763 59.2821 29.3382 58.831 30.0532C58.3798 30.7682 57.7409 31.36 56.9142 31.8285Z" fill="white"/>
<path d="M66.6443 27.2773C65.734 27.6177 64.8606 27.7023 64.0241 27.5309C63.194 27.3456 62.5213 26.9343 62.0063 26.2969L63.3801 24.8839C63.7589 25.2495 64.1776 25.4906 64.6363 25.6073C65.0949 25.724 65.5468 25.6991 65.9918 25.5327C66.3154 25.4116 66.5387 25.2532 66.6614 25.0574C66.7842 24.8617 66.8021 24.6475 66.7151 24.4148C66.6697 24.2935 66.6015 24.2037 66.5106 24.1455C66.4159 24.0771 66.2946 24.0303 66.1467 24.0048C65.9989 23.9794 65.8245 23.9755 65.6235 23.993L64.0651 24.1262C63.3156 24.1875 62.6794 24.0738 62.1564 23.7851C61.6297 23.4864 61.2566 23.0437 61.0372 22.4571C60.8443 21.9413 60.8075 21.4421 60.9267 20.9594C61.0459 20.4767 61.3035 20.0403 61.6994 19.6501C62.0916 19.2499 62.5961 18.9344 63.2131 18.7036C64.0222 18.401 64.8021 18.3284 65.5526 18.4858C66.3095 18.6293 66.943 18.9977 67.4531 19.5908L66.0641 21.0095C65.8141 20.711 65.4895 20.5212 65.0902 20.4399C64.6972 20.3448 64.2985 20.3729 63.8939 20.5241C63.6006 20.6338 63.3907 20.7815 63.2641 20.9672C63.1477 21.1491 63.1292 21.3462 63.2086 21.5586C63.2502 21.6699 63.3184 21.7596 63.4131 21.828C63.5079 21.8963 63.6342 21.9413 63.7922 21.9629C63.9602 21.9808 64.1568 21.9822 64.3817 21.9672L65.8491 21.8681C66.6125 21.8132 67.2538 21.925 67.773 22.2035C68.2884 22.4719 68.6577 22.9044 68.8808 23.5011C69.0737 24.0169 69.1055 24.5181 68.9762 25.0045C68.8569 25.4872 68.6012 25.9287 68.2091 26.329C67.8132 26.7191 67.2916 27.0353 66.6443 27.2773Z" fill="white"/>
<path d="M77.6588 18.1294L76.0863 17.3335L76.9467 15.6522L75.0736 15.3314L75.3511 13.5966L77.2056 13.9039L76.8826 11.9052L78.6415 11.621L78.9645 13.6197L80.6277 12.7438L81.4375 14.3029L79.7609 15.1973L81.1071 16.5221L79.8654 17.7728L78.5192 16.4481L77.6588 18.1294Z" fill="white"/>
<circle cx="89.9993" cy="90.0032" r="53.1438" fill="white"/>
<path d="M112.487 102.36C111.02 101.129 102.413 95.679 100.983 95.9291C100.311 96.0484 99.7973 96.6209 98.4222 98.2613C97.7863 99.0687 97.0879 99.8249 96.3335 100.523C94.9513 100.189 93.6134 99.6931 92.3475 99.0454C87.3832 96.6284 83.3726 92.6167 80.9571 87.6516C80.3094 86.3858 79.8135 85.0478 79.4796 83.6657C80.1776 82.9113 80.9338 82.2129 81.7412 81.577C83.3799 80.2019 83.9542 79.6914 84.0734 79.0165C84.3236 77.5826 78.8684 68.9793 77.6428 67.5119C77.129 66.9041 76.6622 66.4961 76.0645 66.4961C74.3318 66.4961 66.4941 76.1873 66.4941 77.4432C66.4941 77.5457 66.662 87.6348 79.4041 100.598C92.3677 113.34 102.457 113.508 102.559 113.508C103.815 113.508 113.506 105.671 113.506 103.938C113.506 103.34 113.098 102.874 112.487 102.36Z" fill="url(#paint1_linear_385_447)"/>
<path d="M101.753 88.3227H105.111C105.107 84.7615 103.69 81.3473 101.172 78.8292C98.6541 76.3111 95.2399 74.8946 91.6787 74.8906V78.2486C94.3497 78.2513 96.9105 79.3135 98.7992 81.2022C100.688 83.0909 101.75 85.6517 101.753 88.3227Z" fill="url(#paint2_linear_385_447)"/>
<path d="M110.148 88.3232H113.506C113.499 82.5364 111.197 76.9884 107.105 72.8965C103.014 68.8045 97.4656 66.5028 91.6787 66.4961V69.8541C96.5753 69.8599 101.27 71.8076 104.732 75.27C108.194 78.7324 110.142 83.4267 110.148 88.3232Z" fill="url(#paint3_linear_385_447)"/>
<defs>
<linearGradient id="paint0_linear_385_447" x1="1.84651" y1="88.6256" x2="178.154" y2="89.0933" gradientUnits="userSpaceOnUse">
<stop stop-color="#4D51AB"/>
<stop offset="1" stop-color="#55CEE3"/>
</linearGradient>
<linearGradient id="paint1_linear_385_447" x1="66.9764" y1="89.6433" x2="113.024" y2="89.7654" gradientUnits="userSpaceOnUse">
<stop stop-color="#4D51AB"/>
<stop offset="1" stop-color="#55CEE3"/>
</linearGradient>
<linearGradient id="paint2_linear_385_447" x1="91.8165" y1="81.5041" x2="104.973" y2="81.539" gradientUnits="userSpaceOnUse">
<stop stop-color="#4D51AB"/>
<stop offset="1" stop-color="#55CEE3"/>
</linearGradient>
<linearGradient id="paint3_linear_385_447" x1="91.9026" y1="77.243" x2="113.282" y2="77.2997" gradientUnits="userSpaceOnUse">
<stop stop-color="#4D51AB"/>
<stop offset="1" stop-color="#55CEE3"/>
</linearGradient>
</defs>
</svg>
