<svg width="223" height="60" viewBox="0 0 223 60" fill="none" xmlns="http://www.w3.org/2000/svg">
<path d="M218.401 41.6209V37.2529H222.52V41.6209H218.401Z" fill="#010535"/>
<path d="M203.398 41.9957C201.755 41.9957 200.288 41.6109 198.999 40.8413C197.709 40.0509 196.69 38.9797 195.941 37.6277C195.192 36.2757 194.818 34.7781 194.818 33.1349C194.818 31.4709 195.192 29.9733 195.941 28.6421C196.69 27.3109 197.709 26.2501 198.999 25.4597C200.309 24.6693 201.765 24.2741 203.367 24.2741C204.656 24.2741 205.8 24.5341 206.799 25.0541C207.818 25.5533 208.619 26.2605 209.201 27.1757L208.577 28.0181V18.0029H212.664V41.6213H208.795V38.3453L209.232 39.1565C208.65 40.0717 207.839 40.7789 206.799 41.2781C205.759 41.7565 204.625 41.9957 203.398 41.9957ZM203.835 38.2517C204.771 38.2517 205.592 38.0333 206.299 37.5965C207.007 37.1597 207.558 36.5565 207.953 35.7869C208.369 35.0173 208.577 34.1333 208.577 33.1349C208.577 32.1573 208.369 31.2837 207.953 30.5141C207.558 29.7237 207.007 29.1101 206.299 28.6733C205.592 28.2365 204.771 28.0181 203.835 28.0181C202.919 28.0181 202.098 28.2469 201.37 28.7045C200.642 29.1413 200.07 29.7445 199.654 30.5141C199.259 31.2629 199.061 32.1365 199.061 33.1349C199.061 34.1333 199.259 35.0173 199.654 35.7869C200.07 36.5565 200.642 37.1597 201.37 37.5965C202.098 38.0333 202.919 38.2517 203.835 38.2517Z" fill="white"/>
<path d="M187.643 41.6213V18.0029H191.73V41.6213H187.643Z" fill="white"/>
<path d="M176.589 41.995C174.842 41.995 173.313 41.5998 172.003 40.8094C170.692 40.019 169.673 38.9478 168.945 37.5958C168.217 36.2438 167.853 34.7462 167.853 33.103C167.853 31.3974 168.217 29.8894 168.945 28.579C169.694 27.2478 170.703 26.1974 171.971 25.4278C173.261 24.6582 174.696 24.2734 176.277 24.2734C177.608 24.2734 178.773 24.4918 179.771 24.9286C180.791 25.3654 181.654 25.9686 182.361 26.7382C183.068 27.5078 183.609 28.3918 183.983 29.3902C184.358 30.3678 184.545 31.4286 184.545 32.5726C184.545 32.8638 184.524 33.1654 184.483 33.4774C184.462 33.7894 184.41 34.0598 184.327 34.2886H171.223V31.1686H182.018L180.083 32.635C180.271 31.6782 180.219 30.8254 179.927 30.0766C179.657 29.3278 179.199 28.735 178.555 28.2982C177.931 27.8614 177.171 27.643 176.277 27.643C175.424 27.643 174.665 27.8614 173.999 28.2982C173.334 28.7142 172.824 29.3382 172.471 30.1702C172.138 30.9814 172.013 31.9694 172.096 33.1342C172.013 34.1742 172.148 35.0998 172.502 35.911C172.876 36.7014 173.417 37.315 174.124 37.7518C174.852 38.1886 175.684 38.407 176.62 38.407C177.556 38.407 178.347 38.2094 178.991 37.8142C179.657 37.419 180.177 36.8886 180.551 36.223L183.859 37.8454C183.526 38.6566 183.006 39.3742 182.299 39.9982C181.591 40.6222 180.749 41.111 179.771 41.4646C178.815 41.8182 177.754 41.995 176.589 41.995Z" fill="white"/>
<path d="M160.678 41.621V24.6482H164.765V41.621H160.678ZM160.678 22.745V18.377H164.765V22.745H160.678Z" fill="white"/>
<path d="M142.184 41.6213V18.0029H146.271V27.9869L145.709 27.3941C146.104 26.3749 146.749 25.6053 147.644 25.0853C148.559 24.5445 149.62 24.2741 150.826 24.2741C152.074 24.2741 153.176 24.5445 154.133 25.0853C155.111 25.6261 155.87 26.3853 156.411 27.3629C156.952 28.3197 157.222 29.4325 157.222 30.7013V41.6213H153.135V31.6685C153.135 30.9197 152.989 30.2749 152.698 29.7341C152.407 29.1933 152.001 28.7773 151.481 28.4861C150.982 28.1741 150.389 28.0181 149.703 28.0181C149.037 28.0181 148.444 28.1741 147.924 28.4861C147.404 28.7773 146.999 29.1933 146.708 29.7341C146.416 30.2749 146.271 30.9197 146.271 31.6685V41.6213H142.184Z" fill="white"/>
<path d="M132.615 41.995C130.806 41.995 129.225 41.5686 127.873 40.7158C126.542 39.8422 125.627 38.667 125.127 37.1902L128.185 35.7238C128.622 36.6806 129.225 37.4294 129.995 37.9702C130.785 38.511 131.659 38.7814 132.615 38.7814C133.364 38.7814 133.957 38.615 134.394 38.2822C134.831 37.9494 135.049 37.5126 135.049 36.9718C135.049 36.639 134.955 36.3686 134.768 36.1606C134.602 35.9318 134.363 35.7446 134.051 35.599C133.759 35.4326 133.437 35.2974 133.083 35.1934L130.307 34.4134C128.871 33.9974 127.779 33.363 127.031 32.5102C126.303 31.6574 125.939 30.6486 125.939 29.4838C125.939 28.4438 126.199 27.539 126.719 26.7694C127.259 25.979 127.998 25.3654 128.934 24.9286C129.891 24.4918 130.983 24.2734 132.21 24.2734C133.811 24.2734 135.226 24.6582 136.453 25.4278C137.68 26.1974 138.554 27.279 139.074 28.6726L135.954 30.139C135.663 29.3694 135.174 28.7558 134.487 28.2982C133.801 27.8406 133.031 27.6118 132.179 27.6118C131.492 27.6118 130.951 27.7678 130.556 28.0798C130.161 28.3918 129.963 28.7974 129.963 29.2966C129.963 29.6086 130.047 29.879 130.213 30.1078C130.379 30.3366 130.608 30.5238 130.899 30.6694C131.211 30.815 131.565 30.9502 131.96 31.075L134.675 31.8862C136.068 32.3022 137.139 32.9262 137.888 33.7582C138.658 34.5902 139.043 35.6094 139.043 36.8158C139.043 37.835 138.772 38.7398 138.231 39.5302C137.691 40.2998 136.942 40.903 135.985 41.3398C135.028 41.7766 133.905 41.995 132.615 41.995Z" fill="white"/>
<path d="M114.103 41.995C112.439 41.995 110.921 41.6102 109.548 40.8406C108.196 40.071 107.114 39.0206 106.303 37.6894C105.513 36.3582 105.118 34.8398 105.118 33.1342C105.118 31.4286 105.513 29.9102 106.303 28.579C107.114 27.2478 108.196 26.1974 109.548 25.4278C110.9 24.6582 112.418 24.2734 114.103 24.2734C115.767 24.2734 117.275 24.6582 118.627 25.4278C119.979 26.1974 121.05 27.2478 121.841 28.579C122.652 29.8894 123.058 31.4078 123.058 33.1342C123.058 34.8398 122.652 36.3582 121.841 37.6894C121.03 39.0206 119.948 40.071 118.596 40.8406C117.244 41.6102 115.746 41.995 114.103 41.995ZM114.103 38.251C115.018 38.251 115.819 38.0326 116.506 37.5958C117.213 37.159 117.764 36.5558 118.159 35.7862C118.575 34.9958 118.783 34.1118 118.783 33.1342C118.783 32.1358 118.575 31.2622 118.159 30.5134C117.764 29.7438 117.213 29.1406 116.506 28.7038C115.819 28.2462 115.018 28.0174 114.103 28.0174C113.167 28.0174 112.346 28.2462 111.638 28.7038C110.931 29.1406 110.37 29.7438 109.954 30.5134C109.558 31.2622 109.361 32.1358 109.361 33.1342C109.361 34.1118 109.558 34.9958 109.954 35.7862C110.37 36.5558 110.931 37.159 111.638 37.5958C112.346 38.0326 113.167 38.251 114.103 38.251Z" fill="white"/>
<path d="M94.1343 41.6209V24.6481H97.9719V28.4233L97.6599 27.8617C98.0551 26.5929 98.6687 25.7089 99.5007 25.2097C100.353 24.7105 101.373 24.4609 102.558 24.4609H103.557V28.0801H102.09C100.925 28.0801 99.9895 28.4441 99.2823 29.1721C98.5751 29.8793 98.2215 30.8777 98.2215 32.1673V41.6209H94.1343Z" fill="white"/>
<path d="M74.2466 41.621V18.377H82.9202C84.501 18.377 85.8946 18.6682 87.101 19.2506C88.3282 19.8122 89.285 20.6442 89.9714 21.7466C90.6578 22.8282 91.001 24.149 91.001 25.709C91.001 27.2482 90.6474 28.569 89.9402 29.6714C89.2538 30.753 88.3074 31.585 87.101 32.1674C85.8946 32.7498 84.501 33.041 82.9202 33.041H78.4898V41.621H74.2466ZM78.4898 29.297H82.9826C83.7522 29.297 84.4178 29.1514 84.9794 28.8602C85.541 28.5482 85.9778 28.1218 86.2898 27.581C86.6018 27.0402 86.7578 26.4162 86.7578 25.709C86.7578 24.981 86.6018 24.357 86.2898 23.837C85.9778 23.2962 85.541 22.8802 84.9794 22.589C84.4178 22.277 83.7522 22.121 82.9826 22.121H78.4898V29.297Z" fill="white"/>
<circle cx="30" cy="30" r="30" fill="white"/>
<path d="M46.977 19.6088L30.4917 11.3661C30.1822 11.2113 29.8179 11.2113 29.5085 11.3661L13.0232 19.6088C12.6507 19.795 12.4155 20.1757 12.4155 20.592V27.2839C12.4155 37.1604 19.1924 46.4832 29.7687 48.75C40.857 46.9455 47.6156 36.8149 47.5849 27.284V20.592C47.5847 20.1757 47.3495 19.795 46.977 19.6088ZM30.0001 24.2029C29.3078 24.2029 28.7445 23.6395 28.7445 22.9471C28.8076 21.2835 31.193 21.284 31.2559 22.9471C31.2558 23.6396 30.6925 24.2029 30.0001 24.2029ZM45.386 27.2839C45.386 37.8282 37.819 43.0007 35.8095 44.2092V32.8226L37.8829 30.7492C40.1185 31.905 42.9084 30.1854 42.8746 27.6571C42.8746 25.7524 41.3249 24.2027 39.4202 24.2027C36.8922 24.1692 35.1721 26.9588 36.3282 29.1946L33.9328 31.59C33.7267 31.7961 33.6108 32.0757 33.6108 32.3672V45.3515C32.797 45.7117 31.9581 46.0173 31.0994 46.2653V26.2212C34.7552 24.9309 33.9243 19.5698 29.9999 19.4928C26.0751 19.5701 25.2454 24.9316 28.9007 26.2212V46.2655C28.042 46.0176 27.203 45.7118 26.3892 45.3517V32.3674C26.3892 32.0758 26.2733 31.7961 26.0672 31.5901L23.6718 29.1948C24.8276 26.9592 23.108 24.1692 20.5796 24.2031C18.675 24.2031 17.1253 25.7526 17.1253 27.6574C17.0918 30.1854 19.8814 31.9057 22.1172 30.7496L24.1905 32.8229V44.2096C22.1812 43.0009 14.6142 37.8284 14.6142 27.284V21.2715L30.0001 13.5785L45.386 21.2715V27.2839ZM38.1646 27.6572C38.1646 26.9649 38.7279 26.4016 39.4202 26.4016C41.0838 26.4647 41.0833 28.8501 39.4202 28.913C38.7279 28.913 38.1646 28.3496 38.1646 27.6572ZM21.8356 27.6572C21.8356 28.3496 21.2724 28.913 20.58 28.913C18.9164 28.8499 18.9168 26.4645 20.58 26.4016C21.2724 26.4016 21.8356 26.9649 21.8356 27.6572Z" fill="url(#paint0_linear_156_340)"/>
<defs>
<linearGradient id="paint0_linear_156_340" x1="12.7763" y1="29.7137" x2="47.2243" y2="29.7994" gradientUnits="userSpaceOnUse">
<stop stop-color="#4D51AB"/>
<stop offset="1" stop-color="#55CEE3"/>
</linearGradient>
</defs>
</svg>
