<svg width="168" height="168" viewBox="0 0 168 168" fill="none" xmlns="http://www.w3.org/2000/svg">
<circle cx="84.1439" cy="83.9108" r="83.7547" fill="url(#paint0_linear_190_65)"/>
<path d="M90.9823 21.4735C89.7478 21.3531 88.7227 21.0176 87.9071 20.4668C87.1019 19.917 86.5172 19.2002 86.153 18.3164C85.7888 17.4326 85.6618 16.4252 85.772 15.2944C85.8569 14.4229 86.063 13.6523 86.3901 12.9825C86.7286 12.3033 87.1706 11.7442 87.7161 11.3051C88.273 10.8567 88.9225 10.5325 89.6646 10.3325C90.4172 10.1336 91.2499 10.0786 92.1629 10.1676C92.7231 10.2222 93.2772 10.339 93.8253 10.5181C94.3734 10.6972 94.8927 10.9573 95.3831 11.2983C95.5888 11.4441 95.7184 11.619 95.7718 11.8232C95.8366 12.0181 95.8376 12.2224 95.7749 12.4362C95.7236 12.6407 95.6224 12.8193 95.4713 12.9722C95.3316 13.1156 95.1555 13.2032 94.943 13.2349C94.7418 13.2571 94.5176 13.1934 94.2704 13.0436C93.9462 12.8235 93.5963 12.6533 93.2205 12.5328C92.8458 12.4021 92.4301 12.3144 91.9736 12.2699C91.2371 12.1981 90.6061 12.278 90.0808 12.5096C89.5566 12.7308 89.1436 13.099 88.8421 13.6142C88.5519 14.1201 88.3689 14.762 88.293 15.5401C88.1788 16.7125 88.3724 17.6268 88.874 18.2831C89.3859 18.9405 90.197 19.3232 91.307 19.4314C91.6805 19.4678 92.0679 19.4689 92.4692 19.4347C92.8706 19.4005 93.2697 19.3347 93.6667 19.2373L93.1199 20.1737L93.4111 17.1858L92.0105 17.0493C91.6993 17.0189 91.4683 16.9179 91.3174 16.7461C91.1666 16.5743 91.1043 16.3535 91.1306 16.0838C91.1579 15.8037 91.2617 15.5991 91.4418 15.47C91.623 15.3306 91.8692 15.276 92.1804 15.3063L94.6236 15.5445C94.9349 15.5748 95.1602 15.6806 95.2996 15.8617C95.4494 16.0439 95.5092 16.2906 95.4789 16.6018L95.127 20.2122C95.1007 20.4819 95.0265 20.7051 94.9046 20.8818C94.7826 21.0584 94.5931 21.1761 94.3361 21.2348C93.853 21.3553 93.316 21.4391 92.7249 21.4862C92.1338 21.5333 91.5529 21.5291 90.9823 21.4735Z" fill="white"/>
<path d="M101.246 23.4758C100.372 23.2332 99.6622 22.8684 99.1159 22.3813C98.5825 21.887 98.2245 21.3062 98.0419 20.6389C97.8722 19.9643 97.8962 19.2353 98.1137 18.4519C98.3256 17.6886 98.6718 17.0653 99.1521 16.582C99.6353 16.0887 100.208 15.7609 100.869 15.5984C101.544 15.4287 102.248 15.4457 102.981 15.6493C103.513 15.7971 103.97 16.0213 104.352 16.322C104.737 16.6127 105.038 16.967 105.258 17.3849C105.48 17.7927 105.606 18.255 105.635 18.7717C105.668 19.2783 105.605 19.8179 105.446 20.3903C105.393 20.5812 105.292 20.7101 105.144 20.7771C104.998 20.834 104.81 20.8304 104.579 20.7662L99.848 19.4527L100.174 18.2776L103.971 19.3318L103.671 19.4757C103.786 19.0639 103.82 18.7057 103.775 18.4011C103.732 18.0864 103.615 17.8267 103.423 17.6219C103.241 17.4199 102.985 17.2729 102.653 17.1809C102.282 17.0777 101.941 17.0753 101.633 17.1735C101.324 17.2717 101.055 17.462 100.825 17.7444C100.595 18.0267 100.418 18.3939 100.292 18.8459L100.259 18.9664C100.047 19.7297 100.066 20.341 100.318 20.8002C100.579 21.2621 101.061 21.5907 101.764 21.7859C102.005 21.8529 102.29 21.8994 102.618 21.9256C102.946 21.9518 103.264 21.9373 103.571 21.882C103.833 21.8357 104.048 21.8577 104.218 21.9481C104.39 22.0284 104.509 22.1478 104.573 22.3062C104.637 22.4647 104.65 22.6307 104.613 22.8042C104.586 22.9805 104.503 23.1415 104.365 23.2872C104.23 23.4228 104.042 23.5165 103.801 23.5684C103.406 23.6645 102.98 23.6977 102.523 23.6682C102.074 23.6515 101.648 23.5874 101.246 23.4758Z" fill="white"/>
<path d="M109.915 26.6043C109.25 26.3308 108.736 25.9899 108.374 25.5819C108.022 25.1778 107.822 24.718 107.775 24.2027C107.737 23.6913 107.851 23.1126 108.117 22.4667L109.235 19.7482L108.628 19.4984C108.358 19.3874 108.175 19.2278 108.081 19.0198C107.995 18.8157 108.004 18.5884 108.108 18.3377C108.219 18.0678 108.374 17.8951 108.574 17.8196C108.788 17.7384 109.03 17.7533 109.3 17.8644L109.907 18.1141L110.359 17.0151C110.51 16.6488 110.719 16.4137 110.987 16.3098C111.259 16.1963 111.569 16.211 111.916 16.3537C112.273 16.5004 112.503 16.7078 112.607 16.9759C112.715 17.2344 112.693 17.5469 112.543 17.9132L112.091 19.0122L113.464 19.5772C113.734 19.6882 113.912 19.8457 113.997 20.0498C114.086 20.2442 114.075 20.4764 113.964 20.7463C113.861 20.997 113.707 21.1649 113.503 21.25C113.299 21.3351 113.062 21.3222 112.792 21.2112L111.419 20.6462L110.336 23.278C110.17 23.6829 110.136 24.0242 110.236 24.302C110.346 24.5837 110.608 24.8099 111.022 24.9803C111.167 25.0398 111.308 25.0809 111.445 25.1035C111.582 25.1261 111.706 25.1544 111.816 25.1884C111.955 25.2342 112.048 25.3232 112.095 25.4553C112.146 25.5777 112.108 25.7932 111.981 26.1017C111.886 26.3331 111.764 26.5197 111.616 26.6615C111.467 26.8033 111.281 26.8731 111.056 26.8709C110.911 26.8676 110.722 26.8348 110.488 26.7725C110.26 26.7238 110.069 26.6678 109.915 26.6043Z" fill="white"/>
<path d="M116.989 30.3651C116.662 30.1617 116.464 29.9166 116.397 29.6295C116.339 29.3479 116.411 29.0433 116.614 28.7156L119.17 24.5968L118.691 24.3C118.443 24.1462 118.29 23.9588 118.23 23.7381C118.18 23.5228 118.226 23.3 118.369 23.0697C118.523 22.8217 118.705 22.6769 118.915 22.6353C119.139 22.5904 119.375 22.6448 119.623 22.7987L120.686 23.4581L119.771 23.6269L120.027 23.215C120.615 22.2672 121.289 21.7043 122.05 21.5261C122.82 21.3534 123.695 21.504 124.677 21.9781L125.127 22.202C125.368 22.3272 125.528 22.4753 125.606 22.6463C125.692 22.8228 125.714 22.9956 125.67 23.1648C125.627 23.334 125.545 23.4857 125.425 23.6198C125.31 23.745 125.169 23.835 125 23.8897C124.845 23.941 124.685 23.9217 124.521 23.8316L124.326 23.7295C123.826 23.4682 123.414 23.3717 123.089 23.4402C122.77 23.4998 122.489 23.7245 122.248 24.1142L121.967 24.566L121.855 24.1835L123.051 24.9254C123.308 25.0847 123.461 25.2721 123.512 25.4873C123.568 25.6938 123.519 25.921 123.365 26.169C123.222 26.3993 123.043 26.5397 122.828 26.5901C122.612 26.6405 122.376 26.5861 122.119 26.4267L121.176 25.8415L118.621 29.9602C118.198 30.6423 117.654 30.7772 116.989 30.3651Z" fill="white"/>
<path d="M121.545 33.449C121.229 33.2091 121.052 32.9432 121.012 32.651C120.972 32.3589 121.069 32.0593 121.303 31.7524L124.663 27.3346C124.897 27.0276 125.152 26.8553 125.43 26.8175C125.722 26.7778 126.013 26.8684 126.304 27.0893C126.602 27.3165 126.767 27.573 126.799 27.8588C126.836 28.1363 126.739 28.4286 126.505 28.7355L126.013 29.3827L125.888 29.288C126.367 28.8659 126.88 28.6474 127.428 28.6324C127.977 28.6173 128.533 28.7983 129.098 29.1753C129.318 29.3165 129.434 29.4903 129.447 29.6968C129.475 29.9013 129.389 30.1436 129.189 30.4237C129.01 30.6935 128.802 30.8557 128.564 30.9104C128.334 30.9714 128.065 30.9112 127.758 30.7298L127.453 30.537C126.948 30.2188 126.492 30.0874 126.083 30.143C125.682 30.205 125.314 30.4558 124.98 30.8955L123.219 33.2101C122.986 33.5171 122.723 33.6905 122.431 33.7302C122.147 33.7762 121.852 33.6825 121.545 33.449Z" fill="white"/>
<path d="M128.156 39.1611C127.507 38.528 127.059 37.8666 126.815 37.1769C126.585 36.4869 126.55 35.8055 126.711 35.1326C126.887 34.4596 127.259 33.832 127.826 33.2498C128.379 32.6825 128.982 32.3026 129.636 32.1099C130.297 31.9098 130.956 31.8977 131.615 32.0736C132.288 32.2493 132.897 32.6027 133.442 33.1339C133.837 33.5195 134.13 33.9359 134.32 34.3832C134.517 34.8229 134.612 35.2787 134.603 35.7506C134.601 36.215 134.489 36.6809 134.267 37.1481C134.052 37.6079 133.737 38.0505 133.322 38.4759C133.184 38.6177 133.033 38.6823 132.871 38.6696C132.716 38.6495 132.553 38.5558 132.381 38.3884L128.865 34.9614L129.717 34.0881L132.538 36.8384L132.206 36.8206C132.504 36.5145 132.707 36.2171 132.814 35.9283C132.928 35.6319 132.95 35.3479 132.88 35.076C132.818 34.8114 132.664 34.5591 132.417 34.319C132.141 34.0498 131.844 33.884 131.526 33.8217C131.209 33.7595 130.881 33.7968 130.544 33.9338C130.206 34.0708 129.874 34.3072 129.547 34.6431L129.459 34.7327C128.906 35.3 128.63 35.8453 128.629 36.3687C128.636 36.8993 128.9 37.4193 129.423 37.9286C129.602 38.1032 129.829 38.2809 130.104 38.4617C130.379 38.6425 130.665 38.7826 130.961 38.882C131.213 38.9672 131.391 39.0903 131.496 39.2511C131.609 39.4045 131.655 39.566 131.635 39.7358C131.615 39.9056 131.547 40.0576 131.431 40.1918C131.322 40.3332 131.172 40.4346 130.981 40.4961C130.798 40.55 130.588 40.5416 130.351 40.4709C129.959 40.3654 129.57 40.1897 129.183 39.944C128.797 39.7131 128.454 39.4521 128.156 39.1611Z" fill="white"/>
<path d="M134.429 46.3529C133.882 45.6292 133.54 44.908 133.402 44.1892C133.279 43.4724 133.347 42.7936 133.608 42.1527C133.883 41.5139 134.345 40.9494 134.994 40.4594C135.626 39.982 136.28 39.6973 136.955 39.6054C137.638 39.5072 138.292 39.5947 138.916 39.8678C139.555 40.1429 140.104 40.5841 140.563 41.1913C140.896 41.6322 141.122 42.088 141.243 42.5588C141.371 43.0232 141.396 43.4881 141.316 43.9532C141.245 44.4121 141.064 44.8557 140.773 45.2841C140.491 45.7061 140.113 46.0962 139.639 46.4543C139.481 46.5736 139.323 46.6148 139.164 46.5778C139.014 46.5346 138.866 46.4173 138.722 46.2259L135.763 42.3081L136.736 41.5731L139.111 44.7174L138.785 44.6497C139.126 44.3921 139.372 44.1286 139.521 43.8592C139.678 43.5834 139.743 43.3059 139.715 43.0267C139.693 42.7557 139.579 42.483 139.371 42.2085C139.139 41.9008 138.87 41.6921 138.566 41.5827C138.261 41.4732 137.932 41.4607 137.577 41.5453C137.223 41.6299 136.859 41.8135 136.485 42.0962L136.385 42.1716C135.753 42.649 135.397 43.1464 135.317 43.6637C135.244 44.1893 135.427 44.7432 135.867 45.3255C136.018 45.5251 136.215 45.735 136.46 45.9552C136.705 46.1754 136.966 46.3569 137.244 46.4998C137.48 46.622 137.638 46.7706 137.717 46.9454C137.806 47.114 137.827 47.2807 137.782 47.4455C137.736 47.6104 137.646 47.7504 137.511 47.8655C137.382 47.9889 137.219 48.0666 137.021 48.0985C136.831 48.1242 136.625 48.0842 136.401 47.9786C136.03 47.8152 135.671 47.5829 135.326 47.2818C134.979 46.9952 134.68 46.6856 134.429 46.3529Z" fill="white"/>
<path d="M141.455 58.3186C141.111 57.559 140.957 56.8277 140.993 56.1247C141.043 55.4268 141.275 54.8013 141.688 54.248C142.101 53.6947 142.683 53.2482 143.433 52.9085C143.993 52.6548 144.535 52.5123 145.059 52.4811C145.583 52.4499 146.074 52.5248 146.534 52.7057C146.998 52.8962 147.416 53.1875 147.788 53.5796C148.169 53.9675 148.489 54.4463 148.747 55.016C148.881 55.3104 148.984 55.6409 149.059 56.0076C149.143 56.3701 149.173 56.7514 149.148 57.1517C149.149 57.3803 149.083 57.5644 148.952 57.704C148.834 57.8487 148.686 57.9503 148.506 58.0087C148.336 58.0628 148.161 58.0678 147.981 58.0235C147.814 57.9845 147.673 57.8997 147.557 57.7693C147.45 57.6346 147.401 57.4508 147.41 57.2179C147.433 56.9902 147.423 56.7658 147.38 56.5449C147.341 56.3335 147.283 56.1424 147.206 55.9715C147.077 55.6866 146.916 55.4565 146.722 55.2811C146.537 55.1014 146.325 54.9743 146.086 54.8998C145.86 54.8304 145.604 54.8089 145.318 54.8353C145.037 54.8711 144.735 54.9622 144.412 55.1084C143.785 55.3922 143.361 55.7677 143.137 56.235C142.928 56.7075 142.95 57.2238 143.204 57.784C143.281 57.955 143.382 58.1268 143.506 58.2995C143.639 58.4679 143.801 58.6234 143.992 58.766C144.173 58.9129 144.274 59.0731 144.295 59.2465C144.317 59.4199 144.28 59.5795 144.186 59.7251C144.105 59.876 143.982 59.9949 143.815 60.0818C143.662 60.1738 143.488 60.2185 143.292 60.2156C143.11 60.2179 142.936 60.1483 142.769 60.0066C142.461 59.7568 142.201 59.4856 141.988 59.1928C141.766 58.9044 141.588 58.613 141.455 58.3186Z" fill="white"/>
<path d="M141.399 65.9842C141.324 65.7237 141.333 65.4881 141.424 65.2776C141.516 65.0671 141.673 64.9139 141.894 64.8179C142.106 64.7247 142.353 64.6974 142.635 64.736L145.148 65.1068L144.216 65.3734L149.558 60.9667C149.79 60.7919 150.021 60.6881 150.25 60.655C150.492 60.6292 150.704 60.6878 150.886 60.831C151.08 60.9812 151.225 61.2217 151.32 61.5524C151.397 61.823 151.394 62.0571 151.309 62.2548C151.238 62.4595 151.047 62.6822 150.736 62.9229L146.734 65.9868L146.596 65.5058L151.645 66.0454C152.026 66.0882 152.301 66.1776 152.47 66.3136C152.652 66.4567 152.786 66.6786 152.872 66.9792C152.947 67.2398 152.935 67.4653 152.838 67.6558C152.754 67.8534 152.605 67.9988 152.394 68.0919C152.185 68.1951 151.933 68.2238 151.638 68.1781L142.615 66.9374C142.231 66.8846 141.952 66.7801 141.777 66.6241C141.605 66.4781 141.479 66.2648 141.399 65.9842Z" fill="white"/>
<path d="M146.501 76.8838C146.425 76.2735 146.507 75.7117 146.748 75.1985C147 74.6942 147.369 74.3329 147.857 74.1144L148.39 74.2211L147.428 74.3413C147.046 74.3891 146.739 74.3277 146.507 74.157C146.276 73.9863 146.137 73.7148 146.09 73.3425C146.044 72.9701 146.111 72.6676 146.292 72.4349C146.474 72.2125 146.757 72.0774 147.139 72.0296L155.967 70.9264C156.361 70.8773 156.668 70.9387 156.889 71.1107C157.121 71.2917 157.262 71.5735 157.309 71.9562C157.356 72.3286 157.288 72.626 157.106 72.8483C156.935 73.0798 156.653 73.22 156.26 73.2691L152.583 73.7286L152.56 73.5425C153.046 73.6498 153.463 73.9181 153.811 74.3473C154.159 74.7766 154.37 75.2912 154.445 75.8911C154.529 76.5634 154.442 77.1678 154.183 77.7044C153.924 78.2409 153.518 78.6857 152.963 79.0386C152.408 79.3916 151.723 79.6191 150.905 79.7212C150.088 79.8233 149.362 79.7722 148.728 79.5679C148.093 79.3636 147.583 79.0281 147.199 78.5613C146.817 78.1049 146.584 77.5457 146.501 76.8838ZM148.167 75.9665C148.209 76.2975 148.327 76.5768 148.524 76.8043C148.722 77.0422 148.989 77.2084 149.327 77.3028C149.676 77.4062 150.104 77.4263 150.611 77.3629C151.366 77.2686 151.9 77.0443 152.213 76.69C152.536 76.3345 152.666 75.9085 152.604 75.412C152.563 75.081 152.449 74.7959 152.261 74.5567C152.075 74.3279 151.807 74.1617 151.458 74.0583C151.12 73.9536 150.697 73.9329 150.19 73.9962C149.435 74.0905 148.891 74.3161 148.557 74.673C148.234 75.0285 148.104 75.4597 148.167 75.9665Z" fill="white"/>
<path d="M146.841 86.2328C146.87 85.3264 147.056 84.55 147.399 83.9038C147.753 83.2683 148.232 82.7827 148.837 82.4471C149.452 82.1223 150.166 81.9726 150.979 81.9981C151.771 82.0229 152.458 82.2114 153.042 82.5634C153.635 82.9157 154.09 83.3941 154.404 83.9984C154.729 84.6135 154.88 85.3013 154.856 86.0618C154.839 86.614 154.729 87.1112 154.528 87.5533C154.336 87.9957 154.064 88.3731 153.71 88.6853C153.366 88.9978 152.947 89.2297 152.452 89.381C151.968 89.5327 151.429 89.5992 150.835 89.5806C150.637 89.5744 150.488 89.5071 150.387 89.3788C150.298 89.2509 150.256 89.0671 150.264 88.8274L150.418 83.9203L151.637 83.9585L151.513 87.8967L151.302 87.6398C151.73 87.6532 152.086 87.6018 152.371 87.4856C152.667 87.3698 152.891 87.1943 153.044 86.9593C153.198 86.7346 153.279 86.4504 153.29 86.1066C153.302 85.7211 153.224 85.3901 153.055 85.1137C152.887 84.8372 152.638 84.6209 152.309 84.4645C151.98 84.3082 151.582 84.2227 151.113 84.208L150.988 84.2041C150.196 84.1792 149.607 84.3433 149.22 84.6962C148.833 85.0595 148.629 85.6058 148.606 86.3351C148.598 86.5851 148.62 86.8726 148.672 87.1975C148.725 87.5225 148.814 87.8277 148.941 88.1133C149.048 88.3565 149.078 88.5712 149.03 88.7575C148.993 88.944 148.905 89.0873 148.767 89.1872C148.628 89.2871 148.47 89.3395 148.292 89.3444C148.115 89.3597 147.939 89.3177 147.764 89.2183C147.601 89.1193 147.465 88.9586 147.357 88.7363C147.17 88.3758 147.037 87.9701 146.957 87.5192C146.867 87.0783 146.828 86.6495 146.841 86.2328Z" fill="white"/>
<path d="M146.275 92.9302C146.336 92.539 146.486 92.2566 146.725 92.083C146.963 91.9095 147.273 91.8527 147.654 91.9127L153.137 92.7759C153.518 92.8359 153.791 92.9791 153.956 93.2055C154.129 93.4439 154.187 93.7433 154.131 94.1037C154.072 94.4743 153.925 94.7413 153.688 94.9045C153.462 95.0694 153.158 95.1218 152.777 95.0618L151.974 94.9354L151.998 94.7809C152.596 95.0018 153.032 95.35 153.306 95.8257C153.579 96.3013 153.684 96.8771 153.619 97.5528C153.6 97.8135 153.502 97.9986 153.326 98.1082C153.159 98.2296 152.905 98.2688 152.564 98.2256C152.241 98.1959 152 98.0893 151.839 97.9056C151.676 97.7323 151.602 97.4673 151.616 97.1108L151.641 96.7506C151.681 96.1556 151.58 95.6913 151.338 95.3575C151.093 95.0341 150.698 94.8295 150.152 94.7436L147.279 94.2913C146.898 94.2313 146.621 94.0822 146.448 93.8438C146.272 93.6158 146.215 93.3112 146.275 92.9302Z" fill="white"/>
<path d="M143.218 105.086C143.374 104.655 143.576 104.223 143.821 103.791C144.064 103.369 144.345 103.006 144.667 102.701C144.836 102.541 145.01 102.444 145.189 102.409C145.374 102.387 145.544 102.41 145.697 102.477C145.85 102.544 145.974 102.644 146.07 102.779C146.161 102.923 146.2 103.076 146.186 103.237C146.178 103.412 146.101 103.578 145.955 103.735C145.642 104.076 145.391 104.401 145.201 104.709C145.012 105.017 144.858 105.333 144.741 105.656C144.587 106.078 144.541 106.404 144.6 106.637C144.666 106.883 144.807 107.045 145.023 107.123C145.218 107.194 145.389 107.184 145.533 107.092C145.677 107.001 145.813 106.839 145.942 106.609L146.782 105.167C147.11 104.599 147.502 104.209 147.956 103.997C148.416 103.798 148.911 103.795 149.44 103.987C149.93 104.166 150.301 104.456 150.554 104.858C150.817 105.264 150.954 105.741 150.966 106.289C150.983 106.85 150.88 107.439 150.656 108.056C150.496 108.497 150.309 108.89 150.095 109.233C149.881 109.577 149.624 109.888 149.323 110.167C149.171 110.311 149.008 110.391 148.837 110.406C148.661 110.431 148.5 110.4 148.354 110.314C148.205 110.238 148.084 110.127 147.992 109.983C147.901 109.839 147.864 109.681 147.881 109.51C147.896 109.349 147.978 109.184 148.127 109.017C148.388 108.757 148.596 108.505 148.751 108.262C148.916 108.023 149.043 107.78 149.132 107.535C149.292 107.095 149.334 106.75 149.258 106.5C149.193 106.254 149.052 106.092 148.836 106.014C148.67 105.953 148.508 105.956 148.351 106.021C148.201 106.099 148.063 106.249 147.939 106.47L147.098 107.911C146.759 108.509 146.367 108.915 145.923 109.131C145.488 109.35 144.997 109.36 144.448 109.16C143.704 108.89 143.223 108.382 143.005 107.637C142.794 106.906 142.865 106.056 143.218 105.086Z" fill="white"/>
<path d="M139.241 113.945C139.671 113.146 140.184 112.535 140.78 112.11C141.38 111.699 142.026 111.479 142.717 111.449C143.413 111.433 144.118 111.618 144.834 112.004C145.531 112.38 146.062 112.856 146.427 113.431C146.801 114.012 146.994 114.642 147.006 115.324C147.021 116.019 146.849 116.702 146.488 117.372C146.226 117.858 145.906 118.254 145.528 118.559C145.159 118.87 144.747 119.086 144.291 119.207C143.844 119.333 143.365 119.353 142.855 119.268C142.353 119.187 141.841 119.006 141.318 118.724C141.144 118.63 141.041 118.503 141.008 118.343C140.985 118.189 141.03 118.006 141.144 117.795L143.474 113.473L144.547 114.052L142.677 117.52L142.604 117.196C142.98 117.399 143.321 117.512 143.628 117.535C143.945 117.564 144.224 117.507 144.466 117.365C144.703 117.233 144.904 117.015 145.067 116.712C145.25 116.373 145.328 116.042 145.3 115.719C145.273 115.396 145.147 115.092 144.923 114.805C144.698 114.518 144.38 114.264 143.967 114.041L143.857 113.982C143.159 113.606 142.559 113.489 142.056 113.632C141.547 113.785 141.12 114.182 140.774 114.824C140.655 115.044 140.546 115.312 140.448 115.626C140.35 115.94 140.294 116.253 140.279 116.565C140.267 116.83 140.197 117.036 140.072 117.181C139.955 117.331 139.812 117.42 139.644 117.448C139.475 117.475 139.31 117.452 139.149 117.377C138.983 117.311 138.844 117.195 138.733 117.028C138.631 116.866 138.581 116.662 138.584 116.415C138.578 116.009 138.64 115.586 138.77 115.147C138.886 114.712 139.043 114.312 139.241 113.945Z" fill="white"/>
<path d="M134.201 121.742C134.702 121.076 135.27 120.589 135.904 120.284C136.54 119.993 137.2 119.896 137.884 119.992C138.568 120.089 139.238 120.385 139.897 120.88C140.388 121.249 140.773 121.656 141.052 122.101C141.331 122.545 141.501 123.012 141.563 123.502C141.619 124.001 141.564 124.507 141.399 125.022C141.242 125.543 140.975 126.053 140.599 126.553C140.405 126.812 140.165 127.061 139.879 127.303C139.602 127.551 139.281 127.76 138.918 127.93C138.718 128.041 138.525 128.072 138.34 128.023C138.156 127.99 137.996 127.908 137.858 127.779C137.729 127.656 137.641 127.504 137.593 127.325C137.548 127.16 137.554 126.996 137.613 126.831C137.68 126.673 137.817 126.542 138.026 126.438C138.237 126.348 138.429 126.232 138.602 126.088C138.769 125.953 138.909 125.81 139.021 125.66C139.209 125.41 139.334 125.158 139.394 124.904C139.463 124.656 139.473 124.409 139.423 124.163C139.376 123.931 139.272 123.697 139.112 123.459C138.945 123.229 138.72 123.008 138.437 122.795C137.887 122.381 137.354 122.189 136.837 122.218C136.322 122.261 135.879 122.528 135.51 123.02C135.397 123.17 135.295 123.34 135.203 123.532C135.119 123.73 135.06 123.947 135.027 124.182C134.985 124.412 134.893 124.577 134.751 124.679C134.609 124.781 134.452 124.826 134.279 124.813C134.108 124.815 133.944 124.764 133.788 124.659C133.634 124.569 133.511 124.438 133.419 124.265C133.33 124.106 133.307 123.92 133.351 123.705C133.423 123.315 133.536 122.957 133.69 122.63C133.837 122.296 134.007 122 134.201 121.742Z" fill="white"/>
<path d="M128.668 128.129C129.13 127.677 129.597 127.387 130.07 127.259C130.543 127.131 131.022 127.165 131.506 127.362C131.991 127.573 132.484 127.936 132.988 128.45L135.461 130.974C135.738 131.257 135.875 131.538 135.872 131.818C135.862 132.105 135.723 132.38 135.455 132.643C135.187 132.906 134.909 133.039 134.622 133.044C134.334 133.048 134.052 132.909 133.774 132.626L131.258 130.057C130.937 129.73 130.629 129.55 130.334 129.517C130.047 129.492 129.758 129.622 129.468 129.906C129.148 130.22 128.997 130.587 129.014 131.007C129.032 131.442 129.223 131.846 129.588 132.218L131.842 134.519C132.12 134.802 132.257 135.083 132.254 135.364C132.244 135.651 132.104 135.926 131.836 136.189C131.561 136.458 131.283 136.592 131.003 136.589C130.716 136.594 130.433 136.454 130.156 136.171L126.271 132.207C125.71 131.633 125.7 131.08 126.244 130.548C126.512 130.285 126.79 130.159 127.077 130.169C127.364 130.18 127.643 130.323 127.913 130.598L128.646 131.346L128.052 131.075C127.844 130.535 127.79 130.011 127.891 129.503C127.992 128.996 128.251 128.538 128.668 128.129Z" fill="white"/>
<path d="M122.706 133.463C123.022 133.224 123.326 133.124 123.618 133.164C123.91 133.205 124.172 133.379 124.405 133.686L127.757 138.11C127.99 138.418 128.087 138.71 128.049 138.988C128.009 139.28 127.843 139.536 127.552 139.756C127.253 139.983 126.962 140.073 126.678 140.026C126.4 139.988 126.145 139.815 125.912 139.508L125.421 138.86L125.546 138.765C125.824 139.339 125.897 139.893 125.764 140.425C125.631 140.957 125.307 141.444 124.792 141.887C124.597 142.061 124.398 142.126 124.196 142.083C123.991 142.055 123.781 141.907 123.565 141.639C123.353 141.394 123.253 141.15 123.264 140.906C123.267 140.668 123.397 140.426 123.655 140.179L123.922 139.936C124.365 139.536 124.614 139.132 124.67 138.723C124.718 138.32 124.576 137.899 124.242 137.458L122.486 135.14C122.253 134.833 122.157 134.533 122.197 134.241C122.229 133.955 122.399 133.696 122.706 133.463Z" fill="white"/>
<path d="M117.604 137.063C117.929 136.856 118.239 136.789 118.532 136.862C118.822 136.949 119.077 137.164 119.295 137.507L122.165 142.019C122.388 142.371 122.475 142.692 122.426 142.983C122.373 143.289 122.184 143.545 121.858 143.752C121.542 143.953 121.238 144.01 120.948 143.923C120.655 143.85 120.396 143.638 120.172 143.286L117.303 138.774C117.084 138.431 116.997 138.11 117.041 137.81C117.091 137.519 117.278 137.27 117.604 137.063ZM122.547 144.834C122.916 144.599 123.255 144.5 123.564 144.539C123.869 144.592 124.122 144.776 124.324 145.093C124.531 145.418 124.591 145.726 124.503 146.016C124.413 146.321 124.183 146.591 123.814 146.826C123.444 147.061 123.107 147.152 122.801 147.099C122.502 147.055 122.248 146.87 122.041 146.545C121.84 146.228 121.78 145.92 121.862 145.621C121.949 145.331 122.177 145.069 122.547 144.834Z" fill="white"/>
<path d="M111.851 140.269C112.486 139.931 113.076 139.752 113.621 139.733C114.157 139.719 114.638 139.858 115.065 140.15C115.484 140.447 115.857 140.904 116.185 141.52L117.568 144.114L118.147 143.805C118.405 143.668 118.644 143.629 118.865 143.689C119.076 143.753 119.246 143.905 119.373 144.144C119.51 144.402 119.544 144.632 119.475 144.834C119.401 145.05 119.236 145.227 118.978 145.365L118.399 145.673L118.958 146.722C119.144 147.072 119.192 147.383 119.101 147.656C119.015 147.938 118.806 148.167 118.475 148.343C118.135 148.525 117.828 148.57 117.555 148.479C117.287 148.398 117.06 148.182 116.874 147.832L116.315 146.784L115.004 147.482C114.747 147.62 114.512 147.656 114.301 147.592C114.094 147.536 113.922 147.38 113.785 147.122C113.657 146.883 113.626 146.658 113.69 146.446C113.755 146.235 113.916 146.06 114.173 145.923L115.484 145.225L114.146 142.713C113.94 142.327 113.698 142.084 113.42 141.984C113.133 141.889 112.792 141.946 112.397 142.157C112.259 142.231 112.137 142.313 112.032 142.404C111.928 142.496 111.827 142.573 111.731 142.636C111.607 142.714 111.479 142.729 111.347 142.681C111.22 142.642 111.078 142.476 110.921 142.182C110.804 141.961 110.738 141.748 110.723 141.543C110.708 141.338 110.773 141.15 110.918 140.979C111.013 140.869 111.159 140.744 111.356 140.603C111.539 140.459 111.704 140.347 111.851 140.269Z" fill="white"/>
<path d="M107.102 139.353C107.355 139.255 107.59 139.242 107.808 139.314C108.026 139.386 108.193 139.528 108.309 139.74C108.421 139.942 108.471 140.186 108.458 140.47L108.319 143.007L107.969 142.103L112.846 147.019C113.042 147.234 113.166 147.454 113.22 147.679C113.268 147.917 113.229 148.134 113.103 148.328C112.971 148.536 112.745 148.702 112.425 148.826C112.162 148.928 111.929 148.946 111.724 148.88C111.514 148.828 111.274 148.658 111.006 148.371L107.588 144.666L108.055 144.485L107.98 149.563C107.973 149.946 107.909 150.228 107.789 150.408C107.663 150.603 107.454 150.756 107.163 150.87C106.91 150.968 106.685 150.977 106.486 150.898C106.282 150.832 106.123 150.698 106.011 150.495C105.889 150.296 105.837 150.048 105.856 149.75L106.264 140.651C106.282 140.264 106.36 139.977 106.499 139.789C106.629 139.604 106.83 139.459 107.102 139.353Z" fill="white"/>
<path d="M96.8247 151.21C97.0621 151.31 97.2169 151.454 97.2891 151.643C97.3527 151.844 97.3252 152.07 97.2067 152.321L96.5005 153.858L96.0848 153.433L97.7509 153.058C98.0154 152.995 98.2397 153.012 98.424 153.11C98.61 153.218 98.7225 153.395 98.7617 153.642C98.8009 153.889 98.7479 154.088 98.6028 154.237C98.4593 154.397 98.252 154.488 97.9811 154.51L96.2783 154.653L96.5242 154.108L97.676 155.381C97.868 155.594 97.9641 155.8 97.9642 156.001C97.9557 156.213 97.8523 156.393 97.654 156.541C97.459 156.709 97.2564 156.762 97.0461 156.7C96.8374 156.649 96.6561 156.504 96.502 156.264L95.6688 155.003L95.9468 154.959L95.5291 156.418C95.467 156.692 95.3446 156.886 95.1621 156.999C94.9709 157.124 94.7566 157.137 94.5191 157.038C94.2714 156.94 94.1158 156.79 94.0523 156.589C93.9904 156.399 94.0238 156.177 94.1526 155.924L94.8588 154.388L95.259 154.815L93.5954 155.205C93.331 155.268 93.1058 155.246 92.9198 155.138C92.7355 155.041 92.6238 154.869 92.5846 154.622C92.5454 154.374 92.5976 154.171 92.7411 154.011C92.8862 153.861 93.0943 153.776 93.3652 153.754L95.0656 153.595L94.8172 154.125L93.6703 152.882C93.4696 152.682 93.3693 152.481 93.3691 152.281C93.369 152.08 93.4716 151.895 93.6769 151.725C93.8821 151.556 94.0891 151.496 94.2978 151.548C94.4978 151.611 94.674 151.757 94.8264 151.986L95.6799 153.276L95.402 153.32L95.8302 151.827C95.9043 151.562 96.0317 151.368 96.2127 151.244C96.3849 151.132 96.5889 151.121 96.8247 151.21Z" fill="white"/>
<path d="M78.389 146.439C79.6256 146.535 80.6569 146.851 81.4828 147.387C82.2983 147.921 82.8964 148.627 83.2773 149.503C83.6582 150.38 83.8043 151.385 83.7156 152.518C83.6472 153.391 83.4558 154.165 83.1414 154.841C82.8159 155.526 82.3846 156.094 81.8475 156.543C81.2992 157.002 80.656 157.338 79.9177 157.552C79.1691 157.766 78.3376 157.836 77.4231 157.765C76.8619 157.721 76.3057 157.614 75.7543 157.446C75.2029 157.277 74.6788 157.027 74.182 156.695C73.9735 156.553 73.8407 156.381 73.7834 156.178C73.7149 155.984 73.71 155.78 73.7687 155.565C73.8161 155.36 73.9139 155.179 74.0621 155.023C74.199 154.877 74.3734 154.786 74.5853 154.751C74.786 154.725 75.0114 154.784 75.2614 154.929C75.5897 155.143 75.9428 155.307 76.3208 155.42C76.698 155.544 77.1152 155.623 77.5724 155.659C78.3102 155.717 78.9395 155.625 79.4603 155.384C79.9803 155.153 80.3862 154.777 80.6779 154.256C80.9585 153.744 81.1293 153.099 81.1903 152.32C81.2823 151.145 81.0714 150.235 80.5574 149.588C80.0331 148.941 79.215 148.573 78.103 148.486C77.7289 148.457 77.3416 148.463 76.941 148.505C76.5404 148.547 76.1426 148.62 75.7475 148.725L76.2765 147.779L76.042 150.771L77.4449 150.881C77.7566 150.906 77.9895 151.002 78.1436 151.171C78.2977 151.34 78.3641 151.56 78.3429 151.83C78.3209 152.111 78.2211 152.317 78.0435 152.45C77.865 152.592 77.6198 152.652 77.3081 152.627L74.8608 152.435C74.549 152.411 74.3217 152.31 74.1789 152.131C74.0256 151.952 73.9612 151.706 73.9857 151.395L74.269 147.778C74.2902 147.508 74.3601 147.283 74.4786 147.105C74.5972 146.926 74.7845 146.804 75.0404 146.741C75.521 146.611 76.0564 146.517 76.6465 146.459C77.2366 146.4 77.8174 146.394 78.389 146.439Z" fill="white"/>
<path d="M68.092 144.634C68.9703 144.86 69.6873 145.211 70.2429 145.687C70.7857 146.171 71.1549 146.745 71.3502 147.408C71.5329 148.08 71.523 148.809 71.3206 149.596C71.1234 150.364 70.7893 150.994 70.3184 151.486C69.8448 151.988 69.2788 152.327 68.6203 152.502C67.9491 152.685 67.2451 152.682 66.5081 152.492C65.973 152.355 65.5118 152.139 65.1244 151.846C64.7344 151.563 64.4257 151.214 64.1984 150.801C63.9684 150.397 63.8337 149.938 63.7941 149.422C63.7519 148.916 63.8048 148.375 63.9527 147.8C64.002 147.608 64.1002 147.477 64.2473 147.407C64.3918 147.347 64.5801 147.347 64.8123 147.407L69.5674 148.629L69.2638 149.81L65.4476 148.83L65.7444 148.68C65.638 149.094 65.6104 149.453 65.6615 149.756C65.71 150.07 65.8322 150.328 66.028 150.529C66.2138 150.727 66.4733 150.869 66.8064 150.955C67.18 151.051 67.52 151.047 67.8266 150.942C68.1332 150.838 68.3987 150.643 68.6231 150.356C68.8475 150.069 69.018 149.699 69.1348 149.244L69.1659 149.123C69.3631 148.356 69.3318 147.745 69.0718 147.291C68.8018 146.834 68.3134 146.515 67.6067 146.333C67.3645 146.271 67.079 146.23 66.7505 146.21C66.422 146.19 66.1045 146.211 65.7982 146.272C65.5375 146.323 65.3214 146.306 65.1501 146.219C64.9762 146.142 64.8556 146.024 64.7884 145.867C64.7211 145.71 64.7045 145.544 64.7386 145.37C64.7625 145.193 64.8419 145.031 64.9769 144.882C65.1093 144.744 65.2957 144.647 65.5363 144.59C65.9288 144.487 66.3538 144.445 66.8113 144.466C67.2613 144.474 67.6882 144.53 68.092 144.634Z" fill="white"/>
<path d="M59.3505 141.667C60.0207 141.928 60.5407 142.259 60.9102 142.66C61.2701 143.057 61.4786 143.513 61.5356 144.027C61.583 144.538 61.48 145.119 61.2267 145.769L60.1605 148.509L60.7724 148.747C61.0444 148.853 61.2298 149.009 61.3285 149.215C61.4175 149.417 61.4128 149.645 61.3145 149.897C61.2087 150.169 61.0564 150.345 60.8578 150.424C60.6456 150.51 60.4036 150.499 60.1316 150.393L59.5196 150.155L59.0886 151.263C58.9449 151.632 58.74 151.871 58.4739 151.98C58.204 152.098 57.8942 152.09 57.5445 151.954C57.1851 151.814 56.9509 151.611 56.842 151.344C56.7292 151.088 56.7447 150.775 56.8884 150.406L57.3194 149.299L55.9352 148.76C55.6632 148.654 55.4827 148.5 55.3937 148.298C55.3009 148.105 55.3075 147.873 55.4133 147.601C55.5116 147.348 55.662 147.177 55.8644 147.088C56.0669 146.999 56.3041 147.008 56.576 147.114L57.9603 147.652L58.9925 145C59.1513 144.592 59.1781 144.251 59.0729 143.975C58.958 143.695 58.6917 143.474 58.2741 143.311C58.1283 143.255 57.9867 143.216 57.8491 143.196C57.7114 143.176 57.5873 143.15 57.4767 143.119C57.3369 143.075 57.2422 142.988 57.1926 142.857C57.1392 142.735 57.173 142.519 57.294 142.208C57.3847 141.975 57.503 141.786 57.6487 141.642C57.7945 141.497 57.9796 141.424 58.2042 141.422C58.3494 141.422 58.5393 141.452 58.7741 141.509C59.0029 141.554 59.195 141.606 59.3505 141.667Z" fill="white"/>
<path d="M52.2116 138.044C52.5432 138.241 52.7453 138.482 52.8179 138.768C52.8817 139.048 52.815 139.354 52.6179 139.686L50.1413 143.852L50.6251 144.14C50.876 144.289 51.0332 144.474 51.0967 144.693C51.1512 144.907 51.1092 145.131 50.9707 145.364C50.8216 145.615 50.6425 145.763 50.4335 145.809C50.2103 145.858 49.9732 145.808 49.7223 145.659L48.6471 145.02L49.558 144.834L49.3104 145.25C48.7405 146.209 48.0769 146.785 47.3198 146.977C46.5536 147.165 45.6753 147.03 44.6849 146.575L44.2308 146.36C43.9872 146.239 43.8248 146.094 43.7437 145.925C43.6536 145.75 43.6287 145.577 43.6691 145.407C43.7095 145.237 43.7885 145.084 43.9059 144.948C44.018 144.821 44.1579 144.728 44.3257 144.67C44.4793 144.616 44.6393 144.632 44.8059 144.719L45.0021 144.817C45.5073 145.069 45.9215 145.158 46.2447 145.083C46.5627 145.017 46.8388 144.788 47.0732 144.393L47.3448 143.936L47.4643 144.317L46.2547 143.598C45.9949 143.443 45.8377 143.259 45.7832 143.044C45.7233 142.839 45.768 142.611 45.9171 142.36C46.0556 142.127 46.232 141.983 46.4463 141.929C46.6606 141.874 46.8976 141.924 47.1575 142.079L48.1118 142.646L50.5884 138.479C50.9985 137.79 51.5396 137.644 52.2116 138.044Z" fill="white"/>
<path d="M47.602 135.049C47.9217 135.283 48.1042 135.546 48.1495 135.837C48.1947 136.128 48.1035 136.43 47.8759 136.741L44.5999 141.222C44.3723 141.533 44.1201 141.71 43.8433 141.753C43.552 141.798 43.259 141.713 42.9645 141.498C42.6616 141.277 42.4917 141.023 42.4549 140.738C42.4119 140.461 42.5042 140.167 42.7318 139.856L43.2117 139.2L43.3379 139.292C42.8678 139.723 42.3588 139.951 41.8107 139.977C41.2627 140.002 40.7029 139.832 40.1314 139.465C39.9087 139.329 39.7888 139.157 39.7717 138.951C39.74 138.747 39.8215 138.503 40.0161 138.219C40.19 137.946 40.3954 137.78 40.6324 137.721C40.8609 137.655 41.1305 137.71 41.4412 137.886L41.75 138.073C42.2604 138.381 42.7195 138.504 43.1274 138.441C43.5269 138.371 43.8896 138.113 44.2157 137.667L45.9321 135.32C46.1597 135.008 46.4192 134.83 46.7106 134.785C46.9935 134.734 47.2906 134.822 47.602 135.049Z" fill="white"/>
<path d="M40.8824 129.462C41.5436 130.083 42.0031 130.735 42.2607 131.42C42.5037 132.106 42.5511 132.787 42.4028 133.462C42.2399 134.139 41.8802 134.773 41.3238 135.366C40.7816 135.944 40.1856 136.335 39.5358 136.54C38.8789 136.752 38.2196 136.777 37.5581 136.613C36.8819 136.451 36.2664 136.109 35.7115 135.588C35.3087 135.21 35.0081 134.799 34.8097 134.355C34.6041 133.919 34.5013 133.466 34.5011 132.994C34.4937 132.529 34.5969 132.061 34.8106 131.59C35.0171 131.126 35.3237 130.678 35.7303 130.245C35.8659 130.1 36.0149 130.033 36.1774 130.042C36.3329 130.06 36.498 130.15 36.6728 130.314L40.2525 133.674L39.4179 134.563L36.545 131.867L36.8772 131.879C36.5847 132.19 36.3878 132.491 36.2864 132.782C36.1778 133.081 36.161 133.365 36.236 133.636C36.3033 133.899 36.4624 134.148 36.7132 134.384C36.9944 134.648 37.2944 134.808 37.6133 134.864C37.9322 134.92 38.259 134.877 38.5937 134.733C38.9284 134.59 39.2562 134.347 39.5772 134.005L39.6628 133.914C40.205 133.336 40.4715 132.786 40.4623 132.263C40.4455 131.732 40.171 131.217 39.639 130.718C39.4566 130.547 39.2262 130.373 38.9478 130.198C38.6694 130.022 38.3812 129.888 38.0832 129.794C37.83 129.713 37.6492 129.594 37.5409 129.435C37.4255 129.284 37.3762 129.123 37.3929 128.953C37.4096 128.783 37.4748 128.63 37.5885 128.493C37.6946 128.35 37.8425 128.246 38.0321 128.181C38.2147 128.123 38.425 128.128 38.6631 128.194C39.057 128.292 39.4495 128.46 39.8405 128.698C40.2311 128.922 40.5784 129.177 40.8824 129.462Z" fill="white"/>
<path d="M34.4755 122.391C35.0357 123.104 35.3916 123.819 35.5431 124.535C35.68 125.249 35.6242 125.929 35.3759 126.575C35.1129 127.219 34.6617 127.792 34.0223 128.294C33.3993 128.784 32.7512 129.081 32.0779 129.185C31.3964 129.297 30.741 129.222 30.1117 128.96C29.4677 128.697 28.9107 128.267 28.4407 127.668C28.0994 127.234 27.8642 126.782 27.7348 126.314C27.5973 125.852 27.564 125.388 27.635 124.921C27.6977 124.461 27.8702 124.014 28.1524 123.58C28.4265 123.153 28.7971 122.756 29.2644 122.389C29.4201 122.266 29.5776 122.222 29.7369 122.256C29.8879 122.297 30.0375 122.411 30.1856 122.6L33.2182 126.461L32.2591 127.214L29.8253 124.115L30.152 124.177C29.8159 124.441 29.5758 124.709 29.4317 124.981C29.2794 125.26 29.22 125.538 29.2533 125.817C29.2802 126.088 29.3999 126.358 29.6124 126.629C29.8506 126.932 30.1231 127.135 30.4298 127.239C30.7366 127.343 31.0662 127.349 31.4187 127.258C31.7711 127.166 32.1318 126.976 32.5007 126.686L32.5991 126.609C33.2221 126.12 33.5684 125.616 33.6382 125.097C33.7015 124.57 33.5078 124.02 33.0571 123.446C32.9026 123.249 32.7009 123.043 32.4521 122.827C32.2034 122.612 31.9388 122.435 31.6583 122.298C31.4201 122.18 31.2594 122.035 31.1763 121.861C31.085 121.694 31.0604 121.528 31.1026 121.362C31.1448 121.197 31.2323 121.055 31.3652 120.937C31.4917 120.812 31.6536 120.731 31.8509 120.695C32.04 120.666 32.2473 120.702 32.4727 120.803C32.8473 120.96 33.21 121.185 33.5606 121.48C33.913 121.76 34.218 122.063 34.4755 122.391Z" fill="white"/>
<path d="M27.2247 110.566C27.5833 111.319 27.7511 112.047 27.7283 112.751C27.6916 113.449 27.472 114.079 27.0696 114.64C26.6672 115.201 26.0942 115.659 25.3507 116.013C24.7955 116.277 24.2564 116.43 23.7334 116.472C23.2104 116.513 22.7174 116.447 22.2545 116.275C21.787 116.094 21.3635 115.811 20.9839 115.426C20.5949 115.045 20.2659 114.573 19.997 114.008C19.8581 113.716 19.7478 113.388 19.6663 113.022C19.5753 112.662 19.5383 112.281 19.5553 111.88C19.5504 111.652 19.6122 111.466 19.7408 111.324C19.8555 111.177 20.0021 111.073 20.1804 111.011C20.3494 110.954 20.5244 110.945 20.7055 110.986C20.8726 111.022 21.0156 111.104 21.1343 111.232C21.2437 111.365 21.2961 111.548 21.2917 111.781C21.2733 112.009 21.2876 112.233 21.3347 112.453C21.3773 112.664 21.4389 112.854 21.5196 113.023C21.6541 113.305 21.8199 113.532 22.0171 113.704C22.2049 113.88 22.4193 114.003 22.6604 114.073C22.8876 114.138 23.1437 114.155 23.4288 114.123C23.7093 114.082 24.0096 113.985 24.3295 113.832C24.9507 113.537 25.3683 113.153 25.5825 112.681C25.7828 112.205 25.7508 111.689 25.4863 111.134C25.4057 110.965 25.3017 110.795 25.1744 110.624C25.0377 110.459 24.8728 110.306 24.6796 110.167C24.4959 110.024 24.3917 109.866 24.367 109.693C24.3424 109.52 24.3758 109.36 24.4672 109.212C24.5447 109.06 24.6659 108.938 24.8308 108.848C24.9819 108.753 25.1553 108.705 25.3511 108.705C25.5331 108.699 25.709 108.765 25.8788 108.903C26.1912 109.147 26.4565 109.413 26.6748 109.702C26.9025 109.986 27.0858 110.274 27.2247 110.566Z" fill="white"/>
<path d="M27.132 102.898C27.2115 103.157 27.2075 103.392 27.12 103.605C27.0325 103.817 26.8787 103.973 26.6587 104.073C26.4487 104.171 26.2023 104.203 25.9195 104.169L23.3999 103.847L24.3266 103.563L19.0702 108.071C18.8417 108.25 18.6132 108.359 18.3848 108.396C18.1434 108.426 17.9304 108.372 17.7458 108.232C17.5481 108.086 17.3989 107.848 17.2979 107.519C17.2153 107.25 17.2143 107.016 17.2949 106.817C17.3625 106.611 17.5493 106.384 17.8552 106.138L21.798 102.998L21.9448 103.476L16.8859 103.033C16.5043 102.998 16.2277 102.914 16.0561 102.781C15.8715 102.642 15.7333 102.422 15.6416 102.123C15.562 101.864 15.5691 101.639 15.6627 101.446C15.7433 101.247 15.8886 101.099 16.0987 101.002C16.3057 100.895 16.5571 100.861 16.8528 100.901L25.898 101.968C26.2827 102.014 26.5639 102.113 26.7416 102.265C26.9162 102.408 27.0463 102.619 27.132 102.898Z" fill="white"/>
<path d="M21.8208 92.0887C21.9086 92.6974 21.8371 93.2606 21.6064 93.7783C21.3638 94.2872 21.0009 94.6555 20.5177 94.8832L19.9825 94.7866L20.942 94.6482C21.3237 94.5932 21.6319 94.6488 21.8665 94.815C22.1011 94.9813 22.2452 95.2501 22.2987 95.6215C22.3523 95.9929 22.2908 96.2967 22.1142 96.5328C21.9362 96.7586 21.6563 96.899 21.2745 96.9541L12.469 98.224C12.0769 98.2806 11.7687 98.225 11.5444 98.0572C11.3083 97.8806 11.1628 97.6015 11.1077 97.2197C11.0542 96.8483 11.1164 96.5497 11.2945 96.3239C11.4607 96.0893 11.7399 95.9438 12.1319 95.8872L15.7996 95.3582L15.8264 95.544C15.3383 95.4458 14.9164 95.1855 14.5606 94.7629C14.2047 94.3403 13.9837 93.8298 13.8974 93.2314C13.8006 92.5608 13.8765 91.9548 14.1249 91.4135C14.3733 90.8721 14.7714 90.4198 15.3193 90.0564C15.8672 89.693 16.5487 89.4526 17.3638 89.335C18.1788 89.2175 18.9056 89.2548 19.5442 89.4471C20.1827 89.6393 20.6984 89.9652 21.0911 90.4246C21.4824 90.8737 21.7256 91.4284 21.8208 92.0887ZM20.1725 93.0373C20.1249 92.7071 20.0007 92.4301 19.7999 92.2063C19.5977 91.9722 19.3269 91.8112 18.9878 91.7232C18.6368 91.6263 18.2085 91.6144 17.703 91.6873C16.9499 91.7959 16.4202 92.0303 16.1141 92.3904C15.7976 92.752 15.6751 93.1804 15.7465 93.6756C15.7941 94.0057 15.9139 94.2886 16.1059 94.5242C16.2963 94.7495 16.5671 94.9106 16.918 95.0074C17.2587 95.1057 17.6818 95.1184 18.1873 95.0455C18.9405 94.9369 19.4804 94.701 19.8072 94.3379C20.1237 93.9764 20.2454 93.5428 20.1725 93.0373Z" fill="white"/>
<path d="M21.3058 82.7734C21.2946 83.6802 21.1234 84.4599 20.7921 85.1126C20.4506 85.7547 19.9806 86.2492 19.3821 86.5963C18.7734 86.9328 18.0625 87.096 17.2495 87.086C16.4573 87.0762 15.7663 86.9009 15.1763 86.56C14.5759 86.219 14.1126 85.7494 13.7864 85.1512C13.4499 84.5424 13.2863 83.8576 13.2957 83.0967C13.3025 82.5443 13.4025 82.0451 13.5957 81.5992C13.7784 81.1533 14.0437 80.7708 14.3917 80.452C14.7292 80.133 15.1439 79.8931 15.6359 79.7324C16.1174 79.5715 16.6552 79.4948 17.2493 79.5021C17.4473 79.5046 17.5977 79.569 17.7004 79.6953C17.7926 79.8216 17.8373 80.0045 17.8343 80.2443L17.7737 85.1535L16.5542 85.1384L16.6029 81.1985L16.8187 81.4514C16.3913 81.4461 16.0362 81.5043 15.7532 81.6259C15.4598 81.7474 15.2387 81.9271 15.0898 82.165C14.9411 82.3925 14.8646 82.6782 14.8603 83.0222C14.8556 83.4078 14.9401 83.7372 15.1139 84.0104C15.2878 84.2836 15.5406 84.4952 15.8723 84.6453C16.204 84.7953 16.6044 84.8732 17.0735 84.879L17.1985 84.8806C17.9907 84.8903 18.5766 84.7151 18.9563 84.355C19.3362 83.9844 19.5306 83.4343 19.5396 82.7047C19.5427 82.4545 19.515 82.1675 19.4565 81.8436C19.3979 81.5197 19.3026 81.2162 19.1706 80.9332C19.0589 80.692 19.0251 80.4779 19.0691 80.2908C19.1027 80.1036 19.1878 79.9587 19.3246 79.8561C19.4614 79.7536 19.6185 79.6982 19.7958 79.6899C19.9732 79.6713 20.15 79.7099 20.326 79.8059C20.4916 79.9018 20.6304 80.0599 20.7423 80.2802C20.936 80.637 21.077 81.0401 21.1652 81.4894C21.2641 81.9285 21.3109 82.3565 21.3058 82.7734Z" fill="white"/>
<path d="M21.7469 76.0381C21.6927 76.4305 21.5481 76.7157 21.3131 76.8937C21.0781 77.0716 20.7695 77.1343 20.3875 77.0815L14.889 76.3221C14.5069 76.2693 14.2314 76.1313 14.0623 75.908C13.8843 75.673 13.8203 75.3748 13.8702 75.0133C13.9215 74.6416 14.064 74.3719 14.2976 74.2043C14.5209 74.0352 14.8235 73.977 15.2056 74.0298L16.011 74.141L15.9896 74.2959C15.3872 74.0864 14.9448 73.7465 14.6626 73.2761C14.3803 72.8056 14.2648 72.232 14.3162 71.5551C14.3312 71.2941 14.4254 71.1072 14.5989 70.9944C14.7634 70.8698 15.0167 70.8258 15.3589 70.8626C15.6819 70.8861 15.9256 70.9882 16.0901 71.1687C16.2559 71.339 16.3353 71.6025 16.3281 71.9593L16.3099 72.3198C16.2802 72.9155 16.39 73.3778 16.6392 73.7069C16.8898 74.0256 17.2887 74.2228 17.836 74.2984L20.7169 74.6962C21.0989 74.749 21.379 74.8929 21.557 75.1279C21.7364 75.3527 21.7997 75.656 21.7469 76.0381Z" fill="white"/>
<path d="M24.5711 63.8316C24.4227 64.2656 24.2297 64.7008 23.9922 65.1374C23.7581 65.5641 23.4833 65.9328 23.1677 66.2435C23.0016 66.407 22.8294 66.5078 22.6511 66.546C22.4663 66.5709 22.2967 66.5514 22.1423 66.4876C21.9878 66.4237 21.8617 66.3255 21.7638 66.1929C21.6694 66.0504 21.6277 65.8984 21.6389 65.737C21.6435 65.5623 21.7174 65.3948 21.8604 65.2344C22.1664 64.8874 22.4112 64.558 22.595 64.2463C22.7787 63.9346 22.9263 63.616 23.0376 63.2905C23.1827 62.8664 23.2232 62.5388 23.1591 62.3075C23.0885 62.063 22.9447 61.9037 22.7277 61.8294C22.5304 61.762 22.3606 61.7755 22.2181 61.8699C22.0756 61.9644 21.9424 62.1282 21.8187 62.3613L21.0062 63.8185C20.6885 64.3928 20.3047 64.7903 19.8546 65.011C19.3981 65.2183 18.9035 65.2309 18.371 65.0488C17.8778 64.8801 17.501 64.5969 17.2404 64.1993C16.9699 63.7983 16.8237 63.3241 16.8016 62.7768C16.773 62.2162 16.865 61.6252 17.0776 61.0038C17.2294 60.56 17.4089 60.1642 17.616 59.8164C17.8231 59.4686 18.0744 59.1525 18.37 58.868C18.5195 58.7209 18.6801 58.6381 18.8516 58.6196C19.0266 58.5914 19.1879 58.619 19.3355 58.7026C19.4866 58.7763 19.6094 58.8844 19.7038 59.0268C19.7983 59.1693 19.8383 59.3262 19.8238 59.4975C19.8126 59.659 19.7338 59.8248 19.5875 59.9951C19.3315 60.2601 19.1285 60.5156 18.9782 60.7616C18.8181 61.0043 18.6958 61.2489 18.6115 61.4955C18.4597 61.9393 18.424 62.2852 18.5044 62.533C18.575 62.7775 18.7188 62.9369 18.9358 63.0111C19.1035 63.0684 19.265 63.0631 19.4205 62.9951C19.5695 62.9139 19.7042 62.7617 19.8246 62.5384L20.6371 61.0812C20.9648 60.4773 21.3488 60.0633 21.789 59.8393C22.2193 59.6119 22.7106 59.5927 23.2629 59.7816C24.0125 60.0381 24.503 60.5364 24.7346 61.2766C24.9596 62.0035 24.9051 62.8552 24.5711 63.8316Z" fill="white"/>
<path d="M28.3755 54.9039C27.9606 55.7102 27.4591 56.3314 26.8713 56.7674C26.279 57.1894 25.6376 57.422 24.9471 57.4653C24.2521 57.4945 23.5432 57.323 22.8203 56.951C22.1159 56.5884 21.5758 56.1229 21.2002 55.5545C20.8153 54.9812 20.6105 54.3541 20.5858 53.6732C20.5566 52.9782 20.7161 52.2924 21.0643 51.6158C21.3171 51.1246 21.6295 50.7227 22.0014 50.41C22.3641 50.0926 22.7723 49.8689 23.226 49.739C23.6705 49.6043 24.1487 49.5749 24.6606 49.6508C25.1633 49.7219 25.6788 49.8934 26.207 50.1653C26.3831 50.256 26.4889 50.3807 26.5244 50.5397C26.5505 50.6938 26.5088 50.8775 26.3991 51.0906L24.1524 55.456L23.068 54.8979L24.871 51.3945L24.9512 51.7171C24.5712 51.5215 24.2275 51.415 23.92 51.3974C23.6032 51.3751 23.3251 51.4371 23.0856 51.5835C22.8509 51.7206 22.6549 51.9421 22.4975 52.2479C22.321 52.5909 22.2495 52.9234 22.2831 53.2454C22.3166 53.5675 22.4483 53.8697 22.6781 54.1521C22.9079 54.4345 23.2313 54.683 23.6484 54.8977L23.7596 54.9549C24.464 55.3175 25.0665 55.4224 25.5671 55.2697C26.0725 55.1078 26.4921 54.7024 26.826 54.0536C26.9405 53.8312 27.0439 53.562 27.1361 53.2461C27.2284 52.9301 27.2787 52.616 27.287 52.3038C27.2948 52.0381 27.3601 51.8314 27.483 51.6837C27.5967 51.5312 27.7376 51.4396 27.9058 51.4089C28.074 51.3782 28.2393 51.3988 28.4016 51.4706C28.5687 51.5332 28.7096 51.6467 28.8242 51.8112C28.9296 51.971 28.9831 52.1744 28.9849 52.4215C28.9988 52.8272 28.9449 53.2508 28.8232 53.6923C28.7156 54.1293 28.5663 54.5331 28.3755 54.9039Z" fill="white"/>
<path d="M33.2658 47.0121C32.7773 47.688 32.219 48.1848 31.5908 48.5024C30.9602 48.8055 30.3022 48.9152 29.6168 48.8314C28.9314 48.7477 28.255 48.4646 27.5876 47.9823C27.0891 47.6221 26.6963 47.2224 26.4091 46.7834C26.1219 46.3444 25.9427 45.8805 25.8715 45.3918C25.8064 44.8946 25.8516 44.3871 26.0071 43.8693C26.1542 43.3455 26.4109 42.8301 26.7772 42.3232C26.9665 42.0612 27.2018 41.8069 27.483 41.56C27.7559 41.307 28.0721 41.0919 28.4318 40.9145C28.6299 40.8005 28.8222 40.7658 29.0085 40.8105C29.1926 40.8406 29.3545 40.919 29.4944 41.0458C29.6258 41.1665 29.7171 41.3161 29.7682 41.4945C29.817 41.6583 29.8136 41.8231 29.7582 41.9888C29.6943 42.1484 29.559 42.2822 29.3524 42.3901C29.1435 42.4834 28.9538 42.6036 28.7834 42.7505C28.619 42.8889 28.4819 43.0342 28.372 43.1862C28.1888 43.4397 28.0693 43.6941 28.0133 43.9495C27.9489 44.1988 27.9439 44.4459 27.9983 44.691C28.0504 44.9215 28.1588 45.1542 28.3235 45.3889C28.4943 45.6153 28.7233 45.8322 29.0106 46.0398C29.5682 46.4428 30.1052 46.6251 30.6216 46.5867C31.1357 46.5338 31.5729 46.2581 31.9331 45.7597C32.043 45.6076 32.1421 45.4349 32.2304 45.2415C32.3102 45.042 32.3648 44.8242 32.3939 44.588C32.4316 44.358 32.5203 44.1907 32.6603 44.086C32.8002 43.9814 32.9568 43.9337 33.13 43.9432C33.3009 43.9381 33.4654 43.9862 33.6236 44.0877C33.7794 44.1746 33.9048 44.3037 33.9995 44.4751C34.092 44.6319 34.1182 44.8181 34.0782 45.0335C34.0143 45.4246 33.9081 45.7851 33.7596 46.1151C33.6197 46.4512 33.455 46.7502 33.2658 47.0121Z" fill="white"/>
<path d="M38.6784 40.5193C38.2254 40.9803 37.7636 41.2791 37.2931 41.4159C36.8225 41.5527 36.3432 41.5274 35.8551 41.34C35.3668 41.1378 34.8662 40.7847 34.3532 40.2806L31.8329 37.8037C31.5504 37.5261 31.4079 37.2472 31.4055 36.9672C31.4103 36.6797 31.5443 36.4021 31.8073 36.1344C32.0703 35.8668 32.3455 35.728 32.6329 35.7182C32.9203 35.7083 33.2053 35.8422 33.4878 36.1198L36.0527 38.6405C36.3798 38.962 36.6909 39.1362 36.986 39.1631C37.2736 39.1827 37.5599 39.0475 37.8449 38.7576C38.159 38.4379 38.3032 38.0681 38.2775 37.6482C38.2516 37.2135 38.0528 36.8135 37.681 36.4482L35.3837 34.1905C35.1012 33.9129 34.9588 33.634 34.9563 33.354C34.9612 33.0665 35.0951 32.7889 35.3582 32.5212C35.6285 32.2462 35.9037 32.1074 36.1838 32.105C36.4712 32.0951 36.7561 32.229 37.0386 32.5066L40.9975 36.3972C41.57 36.9598 41.5895 37.5125 41.0562 38.0552C40.7932 38.3228 40.5179 38.4542 40.2304 38.4493C39.9429 38.4445 39.6616 38.3069 39.3865 38.0365L38.6393 37.3023L39.2386 37.5624C39.4571 38.0986 39.5206 38.6214 39.4292 39.1308C39.3378 39.6401 39.0875 40.103 38.6784 40.5193Z" fill="white"/>
<path d="M44.5373 35.0752C44.2262 35.3203 43.9242 35.4255 43.6314 35.3908C43.3387 35.3561 43.0729 35.1872 42.8343 34.8843L39.3991 30.5243C39.1604 30.2213 39.0576 29.9308 39.0906 29.6527C39.1253 29.3599 39.286 29.1006 39.5726 28.8748C39.8673 28.6426 40.157 28.5471 40.4416 28.5882C40.7197 28.6212 40.9781 28.7892 41.2168 29.0922L41.72 29.7308L41.5972 29.8276C41.3084 29.2589 41.2254 28.7072 41.3482 28.1725C41.471 27.6378 41.7856 27.1445 42.292 26.6924C42.4838 26.5148 42.6813 26.4454 42.8845 26.4844C43.0895 26.5087 43.3025 26.6527 43.5235 26.9165C43.7399 27.1574 43.8447 27.3999 43.838 27.6441C43.8395 27.8818 43.714 28.1266 43.4614 28.3787L43.1983 28.6258C42.7638 29.0345 42.5223 29.4438 42.4736 29.8536C42.4332 30.2571 42.5839 30.6758 42.9258 31.1097L44.7256 33.3941C44.9643 33.6971 45.0663 33.9949 45.0316 34.2877C45.005 34.574 44.8403 34.8365 44.5373 35.0752Z" fill="white"/>
<path d="M49.5745 31.3758C49.2531 31.5889 48.945 31.6618 48.6503 31.5946C48.3585 31.5129 48.1003 31.3026 47.8757 30.9638L44.9209 26.5069C44.6905 26.1594 44.5973 25.8397 44.6415 25.5478C44.6885 25.2415 44.8727 24.9818 45.1942 24.7686C45.507 24.5613 45.8092 24.4985 46.101 24.5802C46.3957 24.6474 46.6583 24.8548 46.8887 25.2023L49.8435 29.6592C50.0681 29.998 50.1612 30.3177 50.1229 30.6183C50.0788 30.9101 49.896 31.1626 49.5745 31.3758ZM44.4857 23.7C44.1208 23.9419 43.7838 24.0466 43.4745 24.014C43.1682 23.967 42.9113 23.7871 42.704 23.4743C42.4909 23.1529 42.4252 22.8462 42.5069 22.5544C42.5915 22.2482 42.8162 21.9741 43.1811 21.7322C43.546 21.4903 43.8816 21.3929 44.188 21.4399C44.4885 21.4783 44.7454 21.6582 44.9585 21.9796C45.1658 22.2924 45.2315 22.599 45.1556 22.8995C45.0739 23.1913 44.8506 23.4581 44.4857 23.7Z" fill="white"/>
<path d="M55.2614 28.0636C54.6333 28.4139 54.0469 28.6036 53.5022 28.6329C52.9667 28.657 52.4825 28.5272 52.0497 28.2434C51.6261 27.9545 51.2441 27.5051 50.904 26.8951L49.4723 24.3279L48.8988 24.6477C48.6439 24.7899 48.4055 24.8333 48.1837 24.778C47.971 24.7176 47.7986 24.569 47.6666 24.3323C47.5245 24.0774 47.4861 23.8481 47.5516 23.6445C47.6211 23.4267 47.7833 23.2468 48.0382 23.1046L48.6118 22.7848L48.033 21.7469C47.8401 21.401 47.7864 21.0908 47.872 20.8163C47.9526 20.5326 48.1567 20.2994 48.4844 20.1167C48.8213 19.9288 49.127 19.8777 49.4015 19.9633C49.6709 20.0398 49.9021 20.2511 50.095 20.597L50.6738 21.6348L51.9711 20.9114C52.226 20.7692 52.4598 20.7284 52.6725 20.7888C52.8801 20.8401 53.055 20.9932 53.1972 21.2481C53.3292 21.4848 53.365 21.7095 53.3046 21.9222C53.2442 22.1349 53.0865 22.3123 52.8316 22.4545L51.5343 23.1779L52.9203 25.6633C53.1335 26.0456 53.38 26.2842 53.6595 26.3789C53.9482 26.4685 54.2883 26.4042 54.6798 26.1859C54.8163 26.1098 54.9362 26.025 55.0393 25.9317C55.1424 25.8384 55.2415 25.7593 55.3366 25.6943C55.4589 25.6141 55.5865 25.5967 55.7192 25.6421C55.8468 25.6783 55.9919 25.8421 56.1543 26.1334C56.2762 26.3519 56.3464 26.5634 56.3649 26.7679C56.3835 26.9724 56.322 27.1618 56.1806 27.3362C56.0876 27.4477 55.944 27.5755 55.7499 27.7196C55.5699 27.8677 55.4071 27.9823 55.2614 28.0636Z" fill="white"/>
<path d="M60.0351 28.8845C59.7844 28.9874 59.5494 29.005 59.33 28.9372C59.1107 28.8695 58.9411 28.7307 58.8211 28.5208C58.7051 28.3205 58.6507 28.078 58.6578 27.7934L58.7484 25.2549L59.1165 26.1517L54.1461 21.3296C53.9468 21.1185 53.8181 20.9009 53.7599 20.6768C53.7075 20.4392 53.7423 20.2221 53.8645 20.0255C53.9923 19.8153 54.2153 19.6449 54.5335 19.5143C54.7939 19.4075 55.027 19.3851 55.2327 19.4471C55.4441 19.4956 55.6866 19.6608 55.9601 19.943L59.4478 23.582L58.9849 23.7719L58.9629 18.6938C58.9634 18.3105 59.0218 18.0274 59.1383 17.8444C59.2604 17.6478 59.4661 17.4901 59.7554 17.3714C60.0061 17.2685 60.2315 17.2549 60.4316 17.3305C60.6373 17.3926 60.7982 17.5237 60.9142 17.724C61.0398 17.9203 61.0962 18.1676 61.0834 18.4658L60.848 27.5706C60.8379 27.9579 60.765 28.2469 60.6293 28.4379C60.5032 28.6248 60.3052 28.7737 60.0351 28.8845Z" fill="white"/>
<path d="M70.0905 16.833C69.8512 16.7379 69.6937 16.5966 69.618 16.4089C69.5506 16.2091 69.5739 15.9826 69.6876 15.7295L70.3647 14.1797L70.7883 14.5966L69.1295 15.003C68.8664 15.071 68.6417 15.058 68.4556 14.9641C68.2677 14.8599 68.1518 14.6846 68.108 14.4383C68.0641 14.192 68.1133 13.9927 68.2556 13.8403C68.3961 13.6777 68.6016 13.5829 68.872 13.5559L70.5719 13.3805L70.3363 13.9306L69.1606 12.6788C68.9647 12.4701 68.8647 12.2656 68.8608 12.0651C68.8654 11.8525 68.9653 11.6706 69.1608 11.5194C69.3525 11.3476 69.5541 11.2906 69.7655 11.3483C69.9751 11.3957 70.1592 11.5376 70.3178 11.7741L71.1746 13.0191L70.8975 13.0685L71.2876 11.6015C71.3445 11.3267 71.4632 11.1308 71.6436 11.014C71.8324 10.8852 72.0464 10.8682 72.2857 10.9633C72.5352 11.0565 72.6936 11.203 72.7609 11.4028C72.8264 11.5923 72.7972 11.8146 72.6731 12.0696L71.9961 13.6194L71.5879 13.1997L73.2439 12.7779C73.507 12.7099 73.7326 12.728 73.9205 12.8322C74.1067 12.9261 74.2216 13.0963 74.2655 13.3426C74.3093 13.5889 74.261 13.7933 74.1205 13.956C73.9782 14.1083 73.7719 14.198 73.5014 14.225L71.8043 14.4158L72.0426 13.8811L73.2128 15.1021C73.4172 15.2987 73.5213 15.4972 73.5252 15.6977C73.5292 15.8981 73.4301 16.0852 73.2281 16.2588C73.026 16.4324 72.8202 16.4954 72.6106 16.448C72.4094 16.3886 72.2305 16.2457 72.0738 16.0195L71.1961 14.7464L71.4732 14.6971L71.0732 16.1976C71.0041 16.464 70.8803 16.6607 70.7018 16.7877C70.5317 16.9027 70.3279 16.9178 70.0905 16.833Z" fill="white"/>
<circle cx="84.1436" cy="83.9107" r="49.4561" fill="white"/>
<path d="M106.779 70.0558L84.7988 59.0655C84.3861 58.8591 83.9004 58.8591 83.4879 59.0655L61.5075 70.0558C61.0108 70.304 60.6973 70.8116 60.6973 71.3667V80.2892C60.6973 93.4579 69.7331 105.888 83.8348 108.911C98.6193 106.505 107.631 92.9972 107.59 80.2894V71.3667C107.59 70.8116 107.276 70.304 106.779 70.0558ZM84.1434 76.1812C83.2202 76.1812 82.4692 75.43 82.4692 74.5068C82.5534 72.2887 85.7339 72.2894 85.8178 74.5068C85.8176 75.4302 85.0665 76.1812 84.1434 76.1812ZM104.658 80.2892C104.658 94.3483 94.5686 101.245 91.8893 102.856V87.6742L94.6537 84.9097C97.6345 86.4507 101.354 84.158 101.309 80.7868C101.309 78.2472 99.2431 76.181 96.7035 76.181C93.3328 76.1363 91.0393 79.8558 92.5808 82.8368L89.387 86.0307C89.1122 86.3055 88.9577 86.6783 88.9577 87.067V104.379C87.8726 104.86 86.754 105.267 85.6091 105.598V78.8722C90.4835 77.1519 89.3756 70.0037 84.1431 69.901C78.91 70.0042 77.8038 77.1529 82.6775 78.8722V105.598C81.5325 105.268 80.4139 104.86 79.3289 104.38V87.0672C79.3289 86.6785 79.1743 86.3055 78.8995 86.0309L75.7057 82.8371C77.2467 79.8563 74.9539 76.1363 71.5828 76.1815C69.0432 76.1815 66.977 78.2475 66.977 80.7873C66.9323 84.158 70.6518 86.4517 73.6328 84.9102L76.3973 87.6746V102.857C73.7182 101.245 63.6289 94.3485 63.6289 80.2894V72.2728L84.1434 62.0154L104.658 72.2728V80.2892ZM95.0294 80.787C95.0294 79.8639 95.7804 79.1128 96.7035 79.1128C98.9217 79.197 98.9209 82.3775 96.7035 82.4614C95.7804 82.4614 95.0294 81.7102 95.0294 80.787ZM73.2574 80.787C73.2574 81.7102 72.5064 82.4614 71.5832 82.4614C69.3651 82.3773 69.3656 79.1968 71.5832 79.1128C72.5064 79.1128 73.2574 79.8639 73.2574 80.787Z" fill="#4D51AB"/>
<defs>
<linearGradient id="paint0_linear_190_65" x1="2.10754" y1="82.6317" x2="166.18" y2="83.067" gradientUnits="userSpaceOnUse">
<stop stop-color="#4D51AB"/>
<stop offset="1" stop-color="#55CEE3"/>
</linearGradient>
</defs>
</svg>
