<svg width="30" height="30" viewBox="0 0 30 30" fill="none" xmlns="http://www.w3.org/2000/svg">
<g clip-path="url(#clip0_205_6434)">
<path d="M12.4485 18.1683L14.6659 19.6805C14.7423 19.7919 14.8684 19.859 15.0034 19.8602H15.0039C15.0715 19.8599 15.1382 19.8423 15.197 19.809C15.2215 19.7986 15.2449 19.7861 15.2669 19.7715L17.6176 18.1683C18.3784 17.6495 18.9743 16.5227 18.9743 15.6027V12.3036C18.9743 12.1453 18.8842 12.0008 18.7421 11.9311L15.2159 10.1997C15.1981 10.1909 15.1796 10.1837 15.1608 10.1777C15.1085 10.1534 15.0518 10.1406 14.9942 10.1406H14.9937C14.8805 10.1418 14.7731 10.1904 14.6974 10.2744L11.3245 11.9263C11.1823 11.996 11.092 12.1402 11.0918 12.2985V15.6027C11.0918 16.5227 11.6879 17.6495 12.4485 18.1683ZM18.1446 15.6027C18.1446 16.2546 17.6892 17.1154 17.1502 17.4828L15.4176 18.6644L15.4099 11.2188L18.1446 12.562V15.6027ZM11.9215 12.5574L14.58 11.2556L14.5876 18.6227L12.9159 17.4828C12.3769 17.1151 11.9215 16.2544 11.9215 15.6027V12.5574Z" fill="white"/>
<path d="M21.6423 8.83674C21.6423 8.60755 21.4566 8.42188 21.2274 8.42188H8.84065C8.61168 8.42188 8.42578 8.60755 8.42578 8.83674V21.2235C8.42578 21.4525 8.61168 21.6384 8.84065 21.6384H21.2274C21.4566 21.6384 21.6423 21.4525 21.6423 21.2235V8.83674ZM20.8126 20.7494H9.25552V9.25161H20.8126V20.7494Z" fill="white"/>
<path d="M26.9098 15.4152C27.1175 16.1739 27.8546 16.6619 28.6344 16.5572C29.4139 16.4524 29.9959 15.787 29.9959 15.0003C29.9959 14.2134 29.4139 13.548 28.6344 13.4432C27.8546 13.3385 27.1175 13.8266 26.9098 14.5855H24.5447V12.4518H25.6458C25.8831 12.4461 26.0752 12.2574 26.0856 12.0203V9.60703H26.651C26.7265 9.87003 26.8649 10.1108 27.0548 10.3083C27.668 10.9204 28.6614 10.9197 29.274 10.3067C29.8866 9.69361 29.8866 8.70043 29.274 8.08739C28.6614 7.47435 27.668 7.47365 27.0548 8.08577C26.8654 8.27954 26.7267 8.51707 26.651 8.77729H25.6458C25.4166 8.77729 25.2559 8.97269 25.2559 9.20212V11.6221H24.5447V7.68896C24.5447 6.48 23.5527 5.51761 22.3435 5.51761H18.2624V4.74714H20.8009C21.0299 4.74714 21.2258 4.58647 21.2258 4.35728V3.35205C21.486 3.27635 21.7233 3.13767 21.9171 2.9483C22.5324 2.33433 22.5331 1.33767 21.9189 0.722779C21.3045 0.107884 20.3078 0.107884 19.6934 0.722779C19.079 1.33767 19.0796 2.33433 19.695 2.9483C19.8923 3.13791 20.133 3.27658 20.396 3.35205V3.9174H17.8519C17.6227 3.9174 17.4327 4.12808 17.4327 4.35728V5.51761H15.4176V3.09207C16.1781 2.8844 16.6675 2.14588 16.5627 1.36453C16.4578 0.583177 15.791 0 15.0027 0C14.2144 0 13.5477 0.583177 13.4428 1.36453C13.3379 2.14588 13.8273 2.8844 14.5879 3.09207V5.51761H12.4543V4.35728C12.4485 4.11998 12.26 3.92782 12.0229 3.9174H9.60944V3.35205C9.87267 3.27658 10.1134 3.13791 10.3109 2.9483C10.8149 2.44638 10.9184 1.6685 10.5635 1.05222C10.2086 0.435936 9.48373 0.135203 8.79661 0.319023C8.10971 0.503074 7.6321 1.12584 7.63257 1.83704C7.62979 2.25353 7.7937 2.65382 8.08818 2.9483C8.28196 3.13767 8.51949 3.27635 8.77971 3.35205V4.35728C8.77971 4.58647 8.97533 4.74714 9.20476 4.74714H11.6245V5.51761H7.72123C6.51205 5.51761 5.52002 6.47977 5.52002 7.68896V11.7406H4.74955V9.20212C4.74955 8.97292 4.58889 8.77729 4.35992 8.77729H3.3547C3.27899 8.51707 3.14032 8.27954 2.95094 8.08577C2.50088 7.63316 1.82232 7.49657 1.2322 7.74012C0.642079 7.98344 0.257075 8.55875 0.257075 9.19702C0.257075 9.8353 0.642079 10.4106 1.2322 10.6542C1.82232 10.8975 2.50088 10.7611 2.95094 10.3083C3.14055 10.111 3.27923 9.87003 3.3547 9.60703H3.91982V12.1511C3.91982 12.3801 4.13072 12.5704 4.35992 12.5704H5.52002V14.5855H3.0961C3.02433 14.3218 2.88473 14.0817 2.69119 13.8891C2.18881 13.3869 1.41232 13.2846 0.79696 13.639C0.181371 13.9932 -0.119594 14.7165 0.0623743 15.4029C0.244574 16.0893 0.864561 16.5683 1.57461 16.5711C2.28488 16.5739 2.90858 16.1 3.0961 15.4152H5.52002V17.5488H4.35992C4.12262 17.5544 3.93024 17.743 3.91982 17.9801V20.3936H3.3547C3.27923 20.1304 3.14055 19.8896 2.95094 19.6921C2.33813 19.0837 1.34865 19.0863 0.739082 19.6975C0.129281 20.3086 0.129281 21.2981 0.739082 21.9093C1.34865 22.5205 2.33813 22.5231 2.95094 21.9146C3.14032 21.7209 3.27899 21.4833 3.3547 21.2233H4.35992C4.58889 21.2233 4.74955 21.0277 4.74955 20.7983V18.3785H5.52002V22.3114C5.52002 23.5204 6.51205 24.483 7.72123 24.483H11.7431V25.2535H9.20476C8.97556 25.2535 8.77971 25.4139 8.77971 25.6431V26.6484C8.51972 26.7241 8.28219 26.8627 8.08841 27.0521C7.47305 27.6661 7.47236 28.663 8.08679 29.2779C8.70145 29.8928 9.69811 29.8928 10.3125 29.2779C10.927 28.663 10.9263 27.6661 10.3109 27.0521C10.1134 26.8623 9.87267 26.7238 9.60944 26.6484V26.0832H12.1535C12.3827 26.0832 12.5728 25.8723 12.5728 25.6431V24.483H14.5879V26.9083C13.8276 27.116 13.3382 27.8543 13.443 28.6356C13.5479 29.4168 14.2144 29.9999 15.0027 29.9999C15.791 29.9999 16.4578 29.4168 16.5624 28.6356C16.6673 27.8543 16.1781 27.116 15.4176 26.9083V24.483H17.5512V25.6431C17.557 25.8804 17.7454 26.0726 17.9827 26.0832H20.396V26.6484C20.1328 26.7238 19.892 26.8625 19.6945 27.0521C19.191 27.554 19.0873 28.3317 19.4422 28.948C19.7971 29.564 20.5217 29.8647 21.2086 29.6809C21.8955 29.4971 22.3731 28.8743 22.3727 28.1634C22.3757 27.7469 22.2115 27.3466 21.9173 27.0521C21.7235 26.8627 21.486 26.7241 21.2258 26.6484V25.6431C21.2258 25.4139 21.0301 25.2535 20.8009 25.2535H18.3809V24.483H22.3435C23.5527 24.483 24.5447 23.5206 24.5447 22.3114V18.26H25.2559V20.7983C25.2559 21.0275 25.4166 21.2233 25.6458 21.2233H26.651C26.7267 21.4833 26.8654 21.7209 27.0548 21.9146C27.5048 22.3675 28.1836 22.5043 28.774 22.2607C29.3643 22.0174 29.7493 21.4419 29.7493 20.8034C29.7493 20.1649 29.3643 19.5893 28.774 19.3458C28.1836 19.1025 27.5048 19.2391 27.0548 19.6921C26.8649 19.8896 26.7265 20.1304 26.651 20.3936H26.0856V17.8493C26.0856 17.6203 25.8747 17.4303 25.6458 17.4303H24.5447V15.4152H26.9098ZM27.9014 14.4757C28.1514 14.2255 28.5436 14.1868 28.8379 14.3836C29.1321 14.5801 29.2465 14.9573 29.111 15.2842C28.9756 15.611 28.6281 15.7967 28.2811 15.7277C27.934 15.6587 27.684 15.3541 27.684 15.0003C27.6838 14.8035 27.762 14.6146 27.9014 14.4757ZM27.6414 8.67751C27.8285 8.48837 28.1023 8.41382 28.3596 8.48211C28.6168 8.55064 28.8175 8.75136 28.8858 9.00857C28.9541 9.26555 28.8795 9.53966 28.6904 9.72672C28.4003 10.0136 27.9329 10.0122 27.6444 9.72371C27.356 9.43502 27.3546 8.96783 27.6414 8.67751ZM20.2763 1.31267C20.566 1.02305 21.0357 1.02305 21.3253 1.31267C21.6149 1.60229 21.6149 2.07203 21.3253 2.36165C21.0357 2.65127 20.566 2.65127 20.2763 2.36165C19.9869 2.0718 19.9869 1.60252 20.2763 1.31267ZM14.261 1.57729C14.261 1.22331 14.511 0.918637 14.858 0.849647C15.2051 0.780425 15.5526 0.966329 15.688 1.29322C15.8234 1.62012 15.7091 1.99725 15.4148 2.1938C15.1206 2.39059 14.7286 2.35192 14.4784 2.10166C14.3388 1.96299 14.2605 1.77407 14.261 1.57729ZM8.463 1.83704C8.463 1.48306 8.7128 1.17839 9.06007 1.1094C9.4071 1.04041 9.7546 1.22608 9.89003 1.55298C10.0255 1.8801 9.9111 2.25724 9.61685 2.45379C9.3226 2.65034 8.93042 2.61191 8.68015 2.36165C8.54055 2.22274 8.4623 2.03383 8.463 1.83704ZM2.36406 9.72672C2.07444 10.0159 1.60517 10.0159 1.31578 9.72626C1.02639 9.43687 1.02639 8.96736 1.31578 8.67797C1.60517 8.38835 2.07444 8.38835 2.36406 8.67751C2.50459 8.81619 2.58353 9.0051 2.58353 9.20212C2.58353 9.39936 2.50459 9.58828 2.36406 9.72672ZM2.10431 15.5247C1.85404 15.775 1.46186 15.8136 1.16761 15.6168C0.87359 15.4203 0.759224 15.0434 0.894658 14.7163C1.03009 14.3894 1.37759 14.2037 1.72463 14.2727C2.07166 14.3417 2.32146 14.6463 2.32146 15.0003C2.32146 15.1969 2.24321 15.3856 2.10431 15.5247ZM2.36406 21.3229C2.17723 21.512 1.90312 21.5866 1.64591 21.5183C1.38893 21.4498 1.18798 21.249 1.11969 20.9918C1.05139 20.7349 1.12594 20.4607 1.31508 20.2737C1.6054 19.9868 2.07259 19.9882 2.36105 20.2767C2.64975 20.5654 2.6509 21.0326 2.36406 21.3229ZM9.72937 28.6877C9.43974 28.9771 8.97024 28.9769 8.68085 28.6875C8.39146 28.3979 8.39146 27.9286 8.68085 27.639C8.97024 27.3496 9.43974 27.3494 9.72937 27.6388C10.0185 27.9286 10.0185 28.3979 9.72937 28.6877ZM15.745 28.4231C15.7447 28.7769 15.4949 29.0811 15.1481 29.1501C14.8013 29.2191 14.4543 29.0334 14.3188 28.7067C14.1836 28.3801 14.2978 28.0034 14.5918 27.8068C14.8856 27.6103 15.2775 27.6489 15.5276 27.8987C15.6669 28.0377 15.7452 28.2263 15.7445 28.4231H15.745ZM21.5429 28.1634C21.5429 28.5173 21.2929 28.822 20.9459 28.891C20.5988 28.96 20.2511 28.7743 20.1157 28.4472C19.9802 28.1203 20.0946 27.7432 20.3888 27.5466C20.6833 27.3498 21.0755 27.3885 21.3258 27.6388C21.4651 27.7777 21.5434 27.9666 21.5427 28.1634H21.5429ZM23.715 22.3494C23.715 23.1021 23.1047 23.7126 22.3518 23.7126H7.7129C6.96003 23.7126 6.34976 23.1021 6.34976 22.3494V7.71049C6.34976 6.95761 6.96003 6.34735 7.7129 6.34735H22.3518C23.1047 6.34735 23.715 6.95761 23.715 7.71049V22.3494ZM27.6414 20.2737C27.931 19.9841 28.4008 19.9841 28.6904 20.2737C28.9802 20.5635 28.9802 21.033 28.6904 21.3229C28.4008 21.6125 27.931 21.6125 27.6414 21.3229C27.5011 21.1842 27.4222 20.9953 27.4222 20.7983C27.4222 20.601 27.5011 20.4121 27.6414 20.2737Z" fill="white"/>
</g>
<defs>
<clipPath id="clip0_205_6434">
<rect width="30" height="30" fill="white"/>
</clipPath>
</defs>
</svg>
