<svg width="31" height="31" viewBox="0 0 31 31" fill="none" xmlns="http://www.w3.org/2000/svg">
<path d="M23.649 18.9854C23.0962 18.4099 22.4295 18.1022 21.7229 18.1022C21.0219 18.1022 20.3495 18.4042 19.774 18.9797L17.9732 20.7748C17.8251 20.695 17.6769 20.6209 17.5344 20.5468C17.3293 20.4443 17.1355 20.3474 16.9703 20.2448C15.2835 19.1735 13.7506 17.7773 12.2804 15.9709C11.5681 15.0705 11.0894 14.3126 10.7418 13.5433C11.2091 13.1159 11.6421 12.6715 12.0638 12.2441C12.2234 12.0845 12.383 11.9192 12.5425 11.7597C13.7392 10.563 13.7392 9.01299 12.5425 7.8163L10.9868 6.2606C10.8102 6.08394 10.6278 5.90159 10.4568 5.71924C10.1149 5.36593 9.75593 5.00122 9.38552 4.65931C8.83276 4.11225 8.17173 3.82162 7.47651 3.82162C6.78129 3.82162 6.10886 4.11225 5.53901 4.65931C5.53331 4.66501 5.53331 4.66501 5.52761 4.67071L3.59011 6.62531C2.8607 7.35472 2.4447 8.24369 2.35353 9.27513C2.21676 10.9391 2.70684 12.4891 3.08294 13.5034C4.0061 15.9937 5.38515 18.3016 7.44232 20.7748C9.93828 23.7551 12.9414 26.1086 16.3719 27.7669C17.6826 28.388 19.432 29.1231 21.3866 29.2485C21.5063 29.2542 21.6317 29.2599 21.7456 29.2599C23.062 29.2599 24.1675 28.7869 25.0337 27.8467C25.0394 27.8353 25.0508 27.8296 25.0565 27.8182C25.3528 27.4592 25.6947 27.1343 26.0537 26.7867C26.2988 26.5531 26.5495 26.3081 26.7946 26.0516C27.3587 25.4647 27.655 24.7808 27.655 24.0799C27.655 23.3733 27.353 22.6952 26.7775 22.1253L23.649 18.9854ZM25.689 24.986C25.6833 24.986 25.6833 24.9917 25.689 24.986C25.4668 25.2253 25.2388 25.4419 24.9938 25.6812C24.6234 26.0345 24.2473 26.4049 23.894 26.8209C23.3184 27.4364 22.6403 27.727 21.7513 27.727C21.6659 27.727 21.5747 27.727 21.4892 27.7213C19.7967 27.613 18.224 26.952 17.0444 26.3878C13.819 24.8264 10.9868 22.6097 8.63331 19.8003C6.69011 17.4582 5.39085 15.2928 4.53037 12.9678C4.0004 11.5488 3.80665 10.4433 3.89213 9.40049C3.94912 8.73376 4.20555 8.18101 4.67853 7.70803L6.62173 5.76483C6.90096 5.50269 7.19728 5.36023 7.48791 5.36023C7.84692 5.36023 8.13754 5.57677 8.31989 5.75913C8.32559 5.76483 8.33129 5.77052 8.33699 5.77622C8.6846 6.10104 9.01512 6.43725 9.36273 6.79626C9.53938 6.97861 9.72173 7.16097 9.90409 7.34902L11.4598 8.90472C12.0638 9.50877 12.0638 10.0672 11.4598 10.6713C11.2945 10.8365 11.135 11.0018 10.9697 11.1613C10.491 11.6514 10.0352 12.1073 9.53938 12.5518C9.52798 12.5632 9.51659 12.5689 9.51089 12.5803C9.02081 13.0704 9.11199 13.549 9.21456 13.8738C9.22026 13.8909 9.22596 13.908 9.23166 13.9251C9.63626 14.9053 10.2061 15.8284 11.0723 16.9283L11.078 16.934C12.6508 18.8715 14.3091 20.3816 16.1383 21.5384C16.3719 21.6865 16.6113 21.8062 16.8392 21.9202C17.0444 22.0228 17.2381 22.1196 17.4034 22.2222C17.4262 22.2336 17.449 22.2507 17.4717 22.2621C17.6655 22.359 17.8478 22.4046 18.0359 22.4046C18.5089 22.4046 18.8052 22.1082 18.9021 22.0114L20.851 20.0625C21.0447 19.8687 21.3524 19.6351 21.7115 19.6351C22.0648 19.6351 22.3554 19.8573 22.532 20.0511C22.5377 20.0568 22.5377 20.0568 22.5434 20.0625L25.6833 23.2024C26.2703 23.7836 26.2703 24.3819 25.689 24.986Z" fill="url(#paint0_linear_209_11983)"/>
<path d="M16.9028 8.68239C18.3958 8.93313 19.752 9.63974 20.8348 10.7225C21.9175 11.8052 22.6184 13.1614 22.8748 14.6545C22.9375 15.0306 23.2623 15.2927 23.6327 15.2927C23.6783 15.2927 23.7182 15.287 23.7638 15.2813C24.1855 15.2129 24.4647 14.814 24.3963 14.3923C24.0886 12.5859 23.2338 10.939 21.9289 9.63405C20.6239 8.32908 18.977 7.4743 17.1706 7.16658C16.7489 7.0982 16.3557 7.37743 16.2816 7.79342C16.2075 8.20941 16.4811 8.61401 16.9028 8.68239Z" fill="url(#paint1_linear_209_11983)"/>
<path d="M29.2804 14.1702C28.7732 11.1955 27.3714 8.48872 25.2173 6.33467C23.0633 4.18063 20.3565 2.77879 17.3818 2.27162C16.9659 2.19754 16.5727 2.48246 16.4986 2.89846C16.4302 3.32015 16.7094 3.71335 17.1311 3.78743C19.7866 4.23761 22.2085 5.49699 24.1346 7.41739C26.0607 9.3435 27.3144 11.7654 27.7646 14.4209C27.8273 14.797 28.1521 15.0591 28.5225 15.0591C28.5681 15.0591 28.608 15.0534 28.6536 15.0477C29.0695 14.9851 29.3545 14.5862 29.2804 14.1702Z" fill="url(#paint2_linear_209_11983)"/>
<defs>
<linearGradient id="paint0_linear_209_11983" x1="2.58987" y1="16.3465" x2="27.3953" y2="16.412" gradientUnits="userSpaceOnUse">
<stop stop-color="#4D51AB"/>
<stop offset="1" stop-color="#55CEE3"/>
</linearGradient>
<linearGradient id="paint1_linear_209_11983" x1="16.353" y1="11.1624" x2="24.3232" y2="11.1835" gradientUnits="userSpaceOnUse">
<stop stop-color="#4D51AB"/>
<stop offset="1" stop-color="#55CEE3"/>
</linearGradient>
<linearGradient id="paint2_linear_209_11983" x1="16.6196" y1="8.56178" x2="29.1608" y2="8.59506" gradientUnits="userSpaceOnUse">
<stop stop-color="#4D51AB"/>
<stop offset="1" stop-color="#55CEE3"/>
</linearGradient>
</defs>
</svg>
