<svg width="30" height="31" viewBox="0 0 30 31" fill="none" xmlns="http://www.w3.org/2000/svg">
<g clip-path="url(#clip0_125_169)">
<path d="M12.4489 18.7947L14.6664 20.307C14.7428 20.4183 14.8689 20.4855 15.0039 20.4866H15.0044C15.072 20.4864 15.1386 20.4688 15.1974 20.4355C15.222 20.4251 15.2454 20.4125 15.2674 20.398L17.6181 18.7947C18.3789 18.2759 18.9748 17.1492 18.9748 16.2291V12.9301C18.9748 12.7717 18.8847 12.6273 18.7426 12.5576L15.2164 10.8261C15.1986 10.8173 15.1801 10.8102 15.1613 10.8041C15.109 10.7798 15.0523 10.7671 14.9946 10.7671H14.9942C14.881 10.7682 14.7735 10.8169 14.6978 10.9009L11.325 12.5527C11.1828 12.6224 11.0925 12.7667 11.0923 12.925V16.2291C11.0923 17.1492 11.6884 18.2759 12.4489 18.7947ZM18.145 16.2291C18.145 16.8811 17.6897 17.7418 17.1507 18.1092L15.4181 19.2909L15.4104 11.8452L18.145 13.1885V16.2291ZM11.922 13.1838L14.5805 11.882L14.5881 19.2492L12.9164 18.1092C12.3774 17.7416 11.922 16.8808 11.922 16.2291V13.1838Z" fill="white"/>
<path d="M21.6418 9.46296C21.6418 9.23377 21.4561 9.0481 21.2269 9.0481H8.84016C8.6112 9.0481 8.42529 9.23377 8.42529 9.46296V21.8498C8.42529 22.0787 8.6112 22.2646 8.84016 22.2646H21.2269C21.4561 22.2646 21.6418 22.0787 21.6418 21.8498V9.46296ZM20.8121 21.3756H9.25503V9.87783H20.8121V21.3756Z" fill="white"/>
<path d="M26.9108 16.0417C27.1185 16.8003 27.8556 17.2883 28.6353 17.1837C29.4148 17.0788 29.9969 16.4135 29.9969 15.6268C29.9969 14.8399 29.4148 14.1745 28.6353 14.0696C27.8556 13.965 27.1185 14.453 26.9108 15.2119H24.5457V13.0783H25.6468C25.8841 13.0725 26.0762 12.8838 26.0866 12.6468V10.2335H26.652C26.7274 10.4965 26.8659 10.7373 27.0557 10.9347C27.669 11.5469 28.6624 11.5462 29.275 10.9331C29.8876 10.3201 29.8876 9.32689 29.275 8.71385C28.6624 8.10081 27.669 8.10012 27.0557 8.71223C26.8664 8.90601 26.7277 9.14354 26.652 9.40376H25.6468C25.4176 9.40376 25.2569 9.59915 25.2569 9.82858V12.2486H24.5457V8.31542C24.5457 7.10647 23.5537 6.14408 22.3445 6.14408H18.2634V5.37361H20.8019C21.0309 5.37361 21.2267 5.21294 21.2267 4.98374V3.97852C21.487 3.90281 21.7243 3.76414 21.918 3.57476C22.5334 2.96079 22.5341 1.96414 21.9199 1.34924C21.3055 0.734349 20.3088 0.734349 19.6944 1.34924C19.0799 1.96414 19.0806 2.96079 19.696 3.57476C19.8932 3.76437 20.134 3.90305 20.397 3.97852V4.54387H17.8529C17.6237 4.54387 17.4337 4.75454 17.4337 4.98374V6.14408H15.4186V3.71853C16.1791 3.51087 16.6685 2.77234 16.5636 1.99099C16.4588 1.20964 15.792 0.626465 15.0037 0.626465C14.2154 0.626465 13.5487 1.20964 13.4438 1.99099C13.3389 2.77234 13.8283 3.51087 14.5888 3.71853V6.14408H12.4552V4.98374C12.4494 4.74644 12.261 4.55429 12.0239 4.54387H9.61042V3.97852C9.87365 3.90305 10.1144 3.76437 10.3119 3.57476C10.8159 3.07285 10.9194 2.29497 10.5645 1.67868C10.2096 1.0624 9.48471 0.761668 8.79758 0.945488C8.11069 1.12954 7.63308 1.7523 7.63354 2.46351C7.63076 2.88 7.79467 3.28028 8.08916 3.57476C8.28293 3.76414 8.52046 3.90281 8.78068 3.97852V4.98374C8.78068 5.21294 8.97631 5.37361 9.20574 5.37361H11.6255V6.14408H7.72221C6.51303 6.14408 5.521 7.10624 5.521 8.31542V12.3671H4.75053V9.82858C4.75053 9.59938 4.58986 9.40376 4.3609 9.40376H3.35567C3.27997 9.14354 3.1413 8.90601 2.95192 8.71223C2.50186 8.25963 1.8233 8.12304 1.23318 8.36659C0.643055 8.6099 0.258052 9.18521 0.258052 9.82349C0.258052 10.4618 0.643055 11.0371 1.23318 11.2806C1.8233 11.5239 2.50186 11.3876 2.95192 10.9347C3.14153 10.7375 3.2802 10.4965 3.35567 10.2335H3.92079V12.7776C3.92079 13.0065 4.1317 13.1968 4.3609 13.1968H5.521V15.2119H3.09708C3.02531 14.9482 2.88571 14.7081 2.69216 14.5155C2.18978 14.0134 1.41329 13.9111 0.797937 14.2655C0.182348 14.6197 -0.118617 15.343 0.0633509 16.0294C0.24555 16.7158 0.865538 17.1948 1.57558 17.1976C2.28586 17.2004 2.90955 16.7265 3.09708 16.0417H5.521V18.1753H4.3609C4.1236 18.1808 3.93121 18.3695 3.92079 18.6066V21.0201H3.35567C3.2802 20.7568 3.14153 20.5161 2.95192 20.3186C2.33911 19.7102 1.34963 19.7127 0.740059 20.3239C0.130258 20.9351 0.130258 21.9246 0.740059 22.5358C1.34963 23.147 2.33911 23.1495 2.95192 22.5411C3.1413 22.3473 3.27997 22.1098 3.35567 21.8498H4.3609C4.58986 21.8498 4.75053 21.6542 4.75053 21.4248V19.005H5.521V22.9379C5.521 24.1469 6.51303 25.1095 7.72221 25.1095H11.744V25.88H9.20574C8.97654 25.88 8.78068 26.0404 8.78068 26.2696V27.2748C8.52069 27.3505 8.28316 27.4892 8.08939 27.6786C7.47403 28.2925 7.47334 29.2894 8.08777 29.9043C8.70243 30.5192 9.69909 30.5192 10.3135 29.9043C10.9279 29.2894 10.9273 28.2925 10.3119 27.6786C10.1144 27.4887 9.87365 27.3503 9.61042 27.2748V26.7097H12.1545C12.3837 26.7097 12.5738 26.4988 12.5738 26.2696V25.1095H14.5888V27.5348C13.8286 27.7425 13.3391 28.4808 13.444 29.2621C13.5489 30.0432 14.2154 30.6264 15.0037 30.6264C15.792 30.6264 16.4588 30.0432 16.5634 29.2621C16.6683 28.4808 16.1791 27.7425 15.4186 27.5348V25.1095H17.5522V26.2696C17.558 26.5069 17.7464 26.699 17.9837 26.7097H20.397V27.2748C20.1338 27.3503 19.893 27.489 19.6955 27.6786C19.192 28.1805 19.0883 28.9581 19.4432 29.5744C19.7981 30.1905 20.5227 30.4912 21.2096 30.3074C21.8965 30.1236 22.3741 29.5008 22.3736 28.7898C22.3767 28.3733 22.2125 27.9731 21.9183 27.6786C21.7245 27.4892 21.487 27.3505 21.2267 27.2748V26.2696C21.2267 26.0404 21.0311 25.88 20.8019 25.88H18.3819V25.1095H22.3445C23.5537 25.1095 24.5457 24.1471 24.5457 22.9379V18.8865H25.2569V21.4248C25.2569 21.654 25.4176 21.8498 25.6468 21.8498H26.652C26.7277 22.1098 26.8664 22.3473 27.0557 22.5411C27.5058 22.9939 28.1846 23.1308 28.7749 22.8872C29.3653 22.6439 29.7503 22.0684 29.7503 21.4298C29.7503 20.7913 29.3653 20.2158 28.7749 19.9723C28.1846 19.7289 27.5058 19.8655 27.0557 20.3186C26.8659 20.5161 26.7274 20.7568 26.652 21.0201H26.0866V18.4758C26.0866 18.2468 25.8757 18.0567 25.6468 18.0567H24.5457V16.0417H26.9108ZM27.9024 15.1022C28.1524 14.8519 28.5446 14.8133 28.8388 15.01C29.1331 15.2066 29.2474 15.5837 29.112 15.9106C28.9766 16.2375 28.6291 16.4232 28.282 16.3542C27.935 16.2852 27.685 15.9805 27.685 15.6268C27.6847 15.43 27.763 15.2411 27.9024 15.1022ZM27.6424 9.30398C27.8294 9.11483 28.1033 9.04028 28.3605 9.10858C28.6177 9.17711 28.8185 9.37783 28.8868 9.63504C28.9551 9.89201 28.8805 10.1661 28.6914 10.3532C28.4013 10.64 27.9339 10.6386 27.6454 10.3502C27.3569 10.0615 27.3555 9.59429 27.6424 9.30398ZM20.2773 1.93913C20.5669 1.64951 21.0367 1.64951 21.3263 1.93913C21.6159 2.22876 21.6159 2.69849 21.3263 2.98811C21.0367 3.27773 20.5669 3.27773 20.2773 2.98811C19.9879 2.69826 19.9879 2.22899 20.2773 1.93913ZM14.2619 2.20375C14.2619 1.84977 14.512 1.5451 14.859 1.47611C15.206 1.40689 15.5535 1.59279 15.689 1.91969C15.8244 2.24658 15.7101 2.62371 15.4158 2.82027C15.1215 3.01705 14.7296 2.97839 14.4793 2.72813C14.3397 2.58945 14.2615 2.40054 14.2619 2.20375ZM8.46397 2.46351C8.46397 2.10953 8.71377 1.80486 9.06104 1.73587C9.40808 1.66688 9.75558 1.85255 9.89101 2.17944C10.0264 2.50657 9.91208 2.8837 9.61783 3.08025C9.32358 3.27681 8.9314 3.23838 8.68113 2.98811C8.54153 2.84921 8.46328 2.66029 8.46397 2.46351ZM2.36504 10.3532C2.07542 10.6423 1.60614 10.6423 1.31675 10.3527C1.02736 10.0633 1.02736 9.59383 1.31675 9.30444C1.60614 9.01482 2.07542 9.01482 2.36504 9.30398C2.50556 9.44265 2.58451 9.63156 2.58451 9.82858C2.58451 10.0258 2.50556 10.2147 2.36504 10.3532ZM2.10528 16.1512C1.85502 16.4014 1.46284 16.4401 1.16859 16.2433C0.874567 16.0467 0.7602 15.6698 0.895634 15.3427C1.03107 15.0158 1.37857 14.8302 1.7256 14.8991C2.07264 14.9681 2.32244 15.2728 2.32244 15.6268C2.32244 15.8233 2.24419 16.012 2.10528 16.1512ZM2.36504 21.9494C2.17821 22.1385 1.9041 22.2131 1.64689 22.1448C1.38991 22.0762 1.18896 21.8755 1.12066 21.6183C1.05237 21.3613 1.12691 21.0872 1.31606 20.9002C1.60637 20.6133 2.07356 20.6147 2.36203 20.9032C2.65072 21.1919 2.65188 21.659 2.36504 21.9494ZM9.73034 29.3142C9.44072 29.6036 8.97122 29.6034 8.68183 29.314C8.39244 29.0243 8.39244 28.5551 8.68183 28.2655C8.97122 27.9761 9.44072 27.9758 9.73034 28.2652C10.0195 28.5551 10.0195 29.0243 9.73034 29.3142ZM15.7459 29.0496C15.7457 29.4033 15.4959 29.7075 15.1491 29.7765C14.8023 29.8455 14.4553 29.6598 14.3198 29.3332C14.1846 29.0065 14.2988 28.6299 14.5928 28.4333C14.8866 28.2367 15.2785 28.2754 15.5285 28.5252C15.6679 28.6641 15.7462 28.8528 15.7455 29.0496H15.7459ZM21.5439 28.7898C21.5439 29.1438 21.2939 29.4485 20.9468 29.5175C20.5998 29.5865 20.2521 29.4008 20.1166 29.0737C19.9812 28.7468 20.0956 28.3696 20.3898 28.1731C20.6843 27.9763 21.0765 28.015 21.3267 28.2652C21.4661 28.4041 21.5444 28.593 21.5437 28.7898H21.5439ZM23.7159 22.9759C23.7159 23.7285 23.1057 24.339 22.3528 24.339H7.71388C6.961 24.339 6.35074 23.7285 6.35074 22.9759V8.33695C6.35074 7.58408 6.961 6.97381 7.71388 6.97381H22.3528C23.1057 6.97381 23.7159 7.58408 23.7159 8.33695V22.9759ZM27.6424 20.9002C27.932 20.6105 28.4017 20.6105 28.6914 20.9002C28.9812 21.19 28.9812 21.6595 28.6914 21.9494C28.4017 22.239 27.932 22.239 27.6424 21.9494C27.5021 21.8107 27.4231 21.6218 27.4231 21.4248C27.4231 21.2275 27.5021 21.0386 27.6424 20.9002Z" fill="white"/>
</g>
<defs>
<clipPath id="clip0_125_169">
<rect width="30" height="30" fill="white" transform="translate(0 0.626465)"/>
</clipPath>
</defs>
</svg>
