<svg width="31" height="31" viewBox="0 0 31 31" fill="none" xmlns="http://www.w3.org/2000/svg">
<g clip-path="url(#clip0_211_12017)">
<path d="M20.5728 20.2849C23.7652 15.2755 23.3639 15.9005 23.4559 15.7699C24.6181 14.1306 25.2324 12.2011 25.2324 10.1901C25.2324 4.85686 20.9046 0.463501 15.5645 0.463501C10.2417 0.463501 5.89648 4.84819 5.89648 10.1901C5.89648 12.1998 6.52367 14.1798 7.72402 15.8412L10.556 20.2849C7.52814 20.7502 2.38086 22.1369 2.38086 25.1901C2.38086 26.3031 3.1073 27.8892 6.56809 29.1252C8.98461 29.9882 12.1796 30.4635 15.5645 30.4635C21.894 30.4635 28.748 28.678 28.748 25.1901C28.748 22.1363 23.6068 20.7512 20.5728 20.2849ZM9.19232 14.8743C9.18266 14.8592 9.17258 14.8445 9.16203 14.8299C8.16318 13.4558 7.6543 11.8272 7.6543 10.1901C7.6543 5.79448 11.1937 2.22131 15.5645 2.22131C19.9261 2.22131 23.4746 5.79606 23.4746 10.1901C23.4746 11.8299 22.9753 13.4032 22.0305 14.7411C21.9458 14.8528 22.3876 14.1665 15.5645 24.873L9.19232 14.8743ZM15.5645 28.7057C8.65074 28.7057 4.13867 26.6735 4.13867 25.1901C4.13867 24.193 6.45711 22.5536 11.5946 21.9146L14.8232 26.9808C14.9846 27.234 15.2641 27.3873 15.5644 27.3873C15.8647 27.3873 16.1442 27.234 16.3055 26.9808L19.5341 21.9146C24.6717 22.5536 26.9902 24.193 26.9902 25.1901C26.9902 26.6609 22.5188 28.7057 15.5645 28.7057Z" fill="url(#paint0_linear_211_12017)"/>
<path d="M15.5645 5.79553C13.1413 5.79553 11.1699 7.76692 11.1699 10.1901C11.1699 12.6132 13.1413 14.5846 15.5645 14.5846C17.9876 14.5846 19.959 12.6132 19.959 10.1901C19.959 7.76692 17.9876 5.79553 15.5645 5.79553ZM15.5645 12.8268C14.1106 12.8268 12.9277 11.6439 12.9277 10.1901C12.9277 8.73618 14.1106 7.55334 15.5645 7.55334C17.0183 7.55334 18.2012 8.73618 18.2012 10.1901C18.2012 11.6439 17.0183 12.8268 15.5645 12.8268Z" fill="url(#paint1_linear_211_12017)"/>
</g>
<defs>
<linearGradient id="paint0_linear_211_12017" x1="2.65134" y1="15.2344" x2="28.4776" y2="15.2946" gradientUnits="userSpaceOnUse">
<stop stop-color="#4D51AB"/>
<stop offset="1" stop-color="#55CEE3"/>
</linearGradient>
<linearGradient id="paint1_linear_211_12017" x1="11.2601" y1="10.123" x2="19.8688" y2="10.1458" gradientUnits="userSpaceOnUse">
<stop stop-color="#4D51AB"/>
<stop offset="1" stop-color="#55CEE3"/>
</linearGradient>
<clipPath id="clip0_211_12017">
<rect width="30" height="30" fill="white" transform="translate(0.564453 0.463501)"/>
</clipPath>
</defs>
</svg>
