<svg width="31" height="31" viewBox="0 0 31 31" fill="none" xmlns="http://www.w3.org/2000/svg">
<g clip-path="url(#clip0_209_10434)">
<path d="M10.25 16.7076C9.13748 16.7076 8.04994 16.3777 7.12492 15.7597C6.19989 15.1416 5.47892 14.2631 5.05318 13.2352C4.62743 12.2074 4.51604 11.0764 4.73308 9.98526C4.95012 8.89412 5.48585 7.89184 6.27252 7.10517C7.05919 6.3185 8.06147 5.78277 9.15262 5.56573C10.2438 5.34869 11.3748 5.46008 12.4026 5.88582C13.4304 6.31157 14.3089 7.03254 14.927 7.95756C15.5451 8.88259 15.875 9.97013 15.875 11.0826C15.8733 12.574 15.2802 14.0038 14.2256 15.0583C13.1711 16.1128 11.7413 16.706 10.25 16.7076ZM10.25 7.95764C9.63193 7.95764 9.02775 8.14092 8.51384 8.4843C7.99994 8.82768 7.5994 9.31574 7.36288 9.88676C7.12635 10.4578 7.06447 11.0861 7.18505 11.6923C7.30562 12.2985 7.60325 12.8553 8.04029 13.2924C8.47733 13.7294 9.03415 14.027 9.64034 14.1476C10.2465 14.2682 10.8749 14.2063 11.4459 13.9698C12.0169 13.7332 12.505 13.3327 12.8483 12.8188C13.1917 12.3049 13.375 11.7007 13.375 11.0826C13.375 10.2538 13.0458 9.45899 12.4597 8.87294C11.8737 8.28688 11.0788 7.95764 10.25 7.95764ZM19.625 29.2076V28.5826C19.625 26.0962 18.6373 23.7117 16.8791 21.9535C15.121 20.1954 12.7364 19.2076 10.25 19.2076C7.7636 19.2076 5.37903 20.1954 3.62087 21.9535C1.86272 23.7117 0.875 26.0962 0.875 28.5826L0.875 29.2076C0.875 29.5392 1.0067 29.8571 1.24112 30.0915C1.47554 30.326 1.79348 30.4576 2.125 30.4576C2.45652 30.4576 2.77446 30.326 3.00888 30.0915C3.2433 29.8571 3.375 29.5392 3.375 29.2076V28.5826C3.375 26.7593 4.09933 25.0106 5.38864 23.7213C6.67795 22.432 8.42664 21.7076 10.25 21.7076C12.0734 21.7076 13.822 22.432 15.1114 23.7213C16.4007 25.0106 17.125 26.7593 17.125 28.5826V29.2076C17.125 29.5392 17.2567 29.8571 17.4911 30.0915C17.7255 30.326 18.0435 30.4576 18.375 30.4576C18.7065 30.4576 19.0245 30.326 19.2589 30.0915C19.4933 29.8571 19.625 29.5392 19.625 29.2076ZM30.875 22.9576C30.875 21.2685 30.386 19.6155 29.4671 18.1981C28.5483 16.7807 27.2388 15.6596 25.6968 14.9701C24.1548 14.2806 22.4462 14.0521 20.7772 14.3123C19.1082 14.5725 17.5502 15.3102 16.2913 16.4364C16.1672 16.5454 16.066 16.6779 15.9934 16.8262C15.9209 16.9746 15.8785 17.1358 15.8686 17.3006C15.8587 17.4655 15.8816 17.6306 15.9359 17.7866C15.9903 17.9425 16.0749 18.0861 16.1851 18.2092C16.2952 18.3322 16.4286 18.4322 16.5777 18.5033C16.7267 18.5745 16.8883 18.6154 17.0532 18.6238C17.2181 18.6321 17.3831 18.6077 17.5385 18.5519C17.6939 18.4962 17.8368 18.4102 17.9587 18.2989C18.8581 17.4947 19.9709 16.9679 21.163 16.7822C22.3551 16.5965 23.5754 16.7598 24.6768 17.2524C25.7781 17.745 26.7133 18.5458 27.3695 19.5581C28.0258 20.5705 28.375 21.7512 28.375 22.9576C28.375 23.2892 28.5067 23.6071 28.7411 23.8415C28.9755 24.076 29.2935 24.2076 29.625 24.2076C29.9565 24.2076 30.2745 24.076 30.5089 23.8415C30.7433 23.6071 30.875 23.2892 30.875 22.9576ZM22.75 11.7076C21.6375 11.7076 20.5499 11.3777 19.6249 10.7597C18.6999 10.1416 17.9789 9.26307 17.5532 8.23524C17.1274 7.2074 17.016 6.0764 17.2331 4.98526C17.4501 3.89412 17.9859 2.89184 18.7725 2.10517C19.5592 1.3185 20.5615 0.782769 21.6526 0.565727C22.7438 0.348685 23.8748 0.460079 24.9026 0.885822C25.9304 1.31156 26.8089 2.03254 27.427 2.95756C28.0451 3.88259 28.375 4.97012 28.375 6.08264C28.3733 7.57398 27.7802 9.00376 26.7256 10.0583C25.6711 11.1128 24.2413 11.706 22.75 11.7076ZM22.75 2.95764C22.1319 2.95764 21.5277 3.14092 21.0138 3.4843C20.4999 3.82768 20.0994 4.31574 19.8629 4.88676C19.6264 5.45778 19.5645 6.08611 19.685 6.6923C19.8056 7.29849 20.1033 7.85531 20.5403 8.29235C20.9773 8.72939 21.5342 9.02702 22.1403 9.1476C22.7465 9.26818 23.3749 9.20629 23.9459 8.96977C24.5169 8.73324 25.005 8.33271 25.3483 7.8188C25.6917 7.3049 25.875 6.70071 25.875 6.08264C25.875 5.25384 25.5458 4.45899 24.9597 3.87294C24.3737 3.28688 23.5788 2.95764 22.75 2.95764Z" fill="white"/>
</g>
<defs>
<clipPath id="clip0_209_10434">
<rect width="30" height="30" fill="white" transform="translate(0.875 0.457642)"/>
</clipPath>
</defs>
</svg>
