<svg width="80" height="80" viewBox="0 0 80 80" fill="none" xmlns="http://www.w3.org/2000/svg">
<g clip-path="url(#clip0_194_186)">
<path d="M79.7948 39.2893C71.4619 25.9954 57.018 17.7661 41.3333 17.3759V6.66653H38.6666V17.3759C22.9819 17.7661 8.53799 25.9954 0.205126 39.2893C-0.0683753 39.7237 -0.0683753 40.2763 0.205126 40.7107C8.53799 54.0046 22.9819 62.2339 38.6666 62.6241V73.3335H41.3333V62.6241C57.018 62.2339 71.4619 54.0046 79.7948 40.7107C80.0685 40.2763 80.0685 39.7237 79.7948 39.2893ZM2.91847 40C8.36199 31.6765 16.4574 25.4356 25.8919 22.2893C20.863 26.294 17.7757 32.249 17.4012 38.6667H6.66649V41.3333H17.4012C17.7757 47.751 20.863 53.7061 25.8919 57.7108C16.4574 54.5644 8.36199 48.3235 2.91847 40ZM38.6666 52.0001V59.9321C28.6891 59.2544 20.7455 51.3109 20.0679 41.3333H27.9999V38.6667H20.0679C20.7455 28.6891 28.6891 20.7456 38.6666 20.0679V28H41.3333V20.0679C51.3108 20.7456 59.2544 28.689 59.932 38.6667H52V41.3333H59.932C59.2544 51.3109 51.3108 59.2544 41.3333 59.9321V52.0001H38.6666ZM77.0815 40C71.6379 48.3235 63.5426 54.5644 54.108 57.7108C59.1369 53.7061 62.2242 47.751 62.5987 41.3333H73.3334V38.6667H62.5987C62.2242 32.249 59.1369 26.2938 54.108 22.2893C63.5427 25.4358 71.6379 31.6765 77.0815 40Z" fill="url(#paint0_linear_194_186)"/>
<path d="M39.9999 30.6666C34.8452 30.6666 30.6665 34.8453 30.6665 40C30.6723 45.1522 34.8477 49.3275 39.9999 49.3334C45.1546 49.3334 49.3332 45.1547 49.3332 40C49.3332 34.8453 45.1546 30.6666 39.9999 30.6666ZM39.9999 46.6667C36.318 46.6667 33.3332 43.6818 33.3332 40C33.3375 36.32 36.3199 33.3376 39.9999 33.3333C43.6817 33.3333 46.6666 36.3181 46.6666 40C46.6666 43.6818 43.6819 46.6667 39.9999 46.6667Z" fill="url(#paint1_linear_194_186)"/>
<path d="M7.99984 6.66653C7.26351 6.66653 6.6665 7.26354 6.6665 7.99987V18.6666H9.33318V9.33321H18.6666V6.66653H7.99984Z" fill="url(#paint2_linear_194_186)"/>
<path d="M72.0002 6.66653H61.3335V9.33321H70.6669V18.6666H73.3335V7.99987C73.3335 7.26354 72.7365 6.66653 72.0002 6.66653Z" fill="url(#paint3_linear_194_186)"/>
<path d="M70.6669 61.3334V70.6668H61.3335V73.3335H72.0002C72.7365 73.3335 73.3335 72.7365 73.3335 72.0001V61.3334H70.6669Z" fill="url(#paint4_linear_194_186)"/>
<path d="M9.33318 70.6668V61.3334H6.6665V72.0001C6.6665 72.7365 7.26351 73.3335 7.99984 73.3335H18.6666V70.6668H9.33318Z" fill="url(#paint5_linear_194_186)"/>
</g>
<defs>
<linearGradient id="paint0_linear_194_186" x1="0.820671" y1="39.491" x2="79.1792" y2="39.7404" gradientUnits="userSpaceOnUse">
<stop stop-color="#4D51AB"/>
<stop offset="1" stop-color="#55CEE3"/>
</linearGradient>
<linearGradient id="paint1_linear_194_186" x1="30.858" y1="39.8575" x2="49.1418" y2="39.906" gradientUnits="userSpaceOnUse">
<stop stop-color="#4D51AB"/>
<stop offset="1" stop-color="#55CEE3"/>
</linearGradient>
<linearGradient id="paint2_linear_194_186" x1="6.78961" y1="12.5749" x2="18.5435" y2="12.6061" gradientUnits="userSpaceOnUse">
<stop stop-color="#4D51AB"/>
<stop offset="1" stop-color="#55CEE3"/>
</linearGradient>
<linearGradient id="paint3_linear_194_186" x1="61.4566" y1="12.5749" x2="73.2105" y2="12.6061" gradientUnits="userSpaceOnUse">
<stop stop-color="#4D51AB"/>
<stop offset="1" stop-color="#55CEE3"/>
</linearGradient>
<linearGradient id="paint4_linear_194_186" x1="61.4566" y1="67.2418" x2="73.2105" y2="67.273" gradientUnits="userSpaceOnUse">
<stop stop-color="#4D51AB"/>
<stop offset="1" stop-color="#55CEE3"/>
</linearGradient>
<linearGradient id="paint5_linear_194_186" x1="6.78961" y1="67.2418" x2="18.5435" y2="67.273" gradientUnits="userSpaceOnUse">
<stop stop-color="#4D51AB"/>
<stop offset="1" stop-color="#55CEE3"/>
</linearGradient>
<clipPath id="clip0_194_186">
<rect width="80" height="80" fill="white"/>
</clipPath>
</defs>
</svg>
