<svg width="31" height="31" viewBox="0 0 31 31" fill="none" xmlns="http://www.w3.org/2000/svg">
<g clip-path="url(#clip0_209_12004)">
<path d="M24.3144 13.1607V6.87905C24.3144 5.50028 23.1932 4.37903 21.8144 4.37903H3.06441C1.68564 4.37903 0.564453 5.50022 0.564453 6.87905V19.379C0.564453 20.7578 1.68564 21.879 3.06447 21.879H17.081C17.8999 24.7603 20.5492 26.879 23.6895 26.879C24.898 26.879 26.0863 26.561 27.1276 25.9586C27.4261 25.7859 27.5286 25.4038 27.3552 25.1048C27.1825 24.8057 26.7998 24.7025 26.5013 24.8771C25.6505 25.3691 24.6782 25.629 23.6894 25.629C20.5876 25.629 18.0644 23.1058 18.0644 20.004C18.0644 16.9023 20.5876 14.379 23.6894 14.379C26.7912 14.379 29.3144 16.9023 29.3144 20.004V20.6291C29.3144 21.3181 28.7535 21.879 28.0644 21.879C27.3754 21.879 26.8145 21.3181 26.8145 20.6291V18.129C26.8145 17.7836 26.5349 17.504 26.1894 17.504C26.0213 17.504 25.8703 17.5721 25.7581 17.6798C25.2056 17.1876 24.4858 16.879 23.6894 16.879C21.9664 16.879 20.5644 18.281 20.5644 20.004C20.5644 21.727 21.9664 23.129 23.6895 23.129C24.6209 23.129 25.449 22.7112 26.0221 22.0625C26.4748 22.7057 27.2197 23.129 28.0645 23.129C29.4433 23.129 30.5645 22.0078 30.5645 20.629V20.004C30.5645 16.4241 27.8131 13.4779 24.3144 13.1607ZM3.06447 5.62901H21.8145C21.8405 5.62901 21.8623 5.64231 21.8879 5.64389L12.9534 12.9777C12.6354 13.1779 12.1746 13.1363 11.9677 13.0094L2.99176 5.64377C3.01713 5.64225 3.03869 5.62901 3.06447 5.62901ZM23.0645 13.1607C19.5658 13.4779 16.8144 16.4241 16.8144 20.004C16.8144 20.215 16.8274 20.4229 16.8461 20.6291H3.06447C2.37541 20.6291 1.81449 20.0681 1.81449 19.3791V6.87905C1.81449 6.70204 1.85357 6.53487 1.92025 6.38217L11.2298 14.0165C11.5936 14.254 12.0117 14.3791 12.4395 14.3791C12.8509 14.3791 13.2531 14.2631 13.6071 14.0434C13.6425 14.0245 13.6761 14.0019 13.7079 13.9757L22.9586 6.38206C23.0254 6.53487 23.0645 6.70204 23.0645 6.87911V13.1607H23.0645ZM23.6895 21.879C22.6555 21.879 21.8145 21.038 21.8145 20.004C21.8145 18.9701 22.6555 18.129 23.6895 18.129C24.7234 18.129 25.5645 18.9701 25.5645 20.004C25.5645 21.038 24.7234 21.879 23.6895 21.879Z" fill="url(#paint0_linear_209_12004)"/>
</g>
<defs>
<linearGradient id="paint0_linear_209_12004" x1="0.872205" y1="15.4572" x2="30.2566" y2="15.5612" gradientUnits="userSpaceOnUse">
<stop stop-color="#4D51AB"/>
<stop offset="1" stop-color="#55CEE3"/>
</linearGradient>
<clipPath id="clip0_209_12004">
<rect width="30" height="30" fill="white" transform="translate(0.564453 0.629028)"/>
</clipPath>
</defs>
</svg>
