<svg width="80" height="80" viewBox="0 0 80 80" fill="none" xmlns="http://www.w3.org/2000/svg">
<path fill-rule="evenodd" clip-rule="evenodd" d="M45.5397 24.3955L51.277 39.4892L57.0145 24.3955H45.5397ZM48.9573 38.208L35.8606 24.3955H43.7067L48.9567 38.208H48.9573ZM51.9147 42.4719C51.8343 42.561 51.7362 42.6324 51.6265 42.6812C51.5169 42.7301 51.3982 42.7554 51.2782 42.7556C51.1582 42.7557 51.0395 42.7307 50.9297 42.6821C50.82 42.6335 50.7216 42.5624 50.6411 42.4734L33.2865 24.1705C33.1882 24.0802 33.1123 23.9683 33.0647 23.8436C33.0171 23.7189 32.9992 23.5849 33.0123 23.4521C33.0255 23.3193 33.0693 23.1914 33.1404 23.0784C33.2115 22.9655 33.3079 22.8706 33.422 22.8014L42.075 16.6239C42.2199 16.5204 42.3935 16.4649 42.5715 16.4651L59.9826 16.4628C60.1836 16.4625 60.3782 16.533 60.5323 16.6619L69.1681 22.827C69.2711 22.8968 69.3577 22.9882 69.4218 23.0948C69.4859 23.2014 69.5261 23.3207 69.5395 23.4445C69.5528 23.5682 69.5391 23.6933 69.4993 23.8112C69.4594 23.929 69.3944 24.0368 69.3087 24.127L51.9147 42.472V42.4719ZM58.8475 24.3953H66.6934L53.5969 38.2078L58.8468 24.3953H58.8475ZM43.8342 22.6776L46.7856 18.1803H42.8425L36.5428 22.6776H43.8342ZM55.7686 18.1803L58.7198 22.6776H66.0114L59.7117 18.1803H55.7686ZM56.6678 22.6776L53.7164 18.1803H48.8376L45.8864 22.6776H56.6678ZM13.9828 50.3009C13.8449 50.1037 13.6346 49.9691 13.3977 49.9265C13.1609 49.8839 12.9168 49.9369 12.7189 50.0737L4.60373 55.6973C4.40655 55.8352 4.27199 56.0456 4.22944 56.2824C4.1869 56.5193 4.23984 56.7633 4.3767 56.9612L16.3053 74.1747C16.4432 74.3719 16.6535 74.5066 16.8904 74.5492C17.1273 74.5918 17.3714 74.5389 17.5694 74.402L25.6844 68.7783C25.8815 68.6404 26.0161 68.43 26.0586 68.1932C26.1012 67.9563 26.0482 67.7123 25.9114 67.5144C21.9373 61.7782 17.9611 56.0404 13.9828 50.3009ZM16.1419 50.4103C30.3111 42.9094 30.7153 43.0759 38.1098 46.1317C41.6682 47.6408 45.3085 48.949 49.0134 50.0503C50.0228 50.3559 50.9158 50.9604 51.5746 51.784C52.2334 52.6077 52.6269 53.6117 52.7033 54.6636L65.2537 47.3214C67.8201 45.8201 70.2358 45.9117 71.8934 46.8256C73.1773 47.5334 74.0837 48.787 74.1783 50.2703C74.2781 51.8381 73.4689 53.569 71.3765 54.9412C70.1578 55.7409 68.55 56.9298 66.7064 58.2934C59.7328 63.4517 49.4864 71.0309 44.3234 69.4314L28.6279 64.5698C28.4408 64.5086 28.2388 64.511 28.0532 64.5767C27.8676 64.6423 27.7089 64.7674 27.6019 64.9326L26.9189 65.962L27.3203 66.5414C27.7146 67.1132 27.8662 67.8179 27.7419 68.5013C27.6176 69.1846 27.2275 69.7908 26.6572 70.1872L18.5422 75.8109C17.9703 76.2052 17.2656 76.3567 16.5822 76.2324C15.8989 76.108 15.2927 75.7179 14.8964 75.1475L2.96779 57.9341C2.57357 57.3623 2.422 56.6576 2.54629 55.9743C2.67058 55.291 3.0606 54.6848 3.63092 54.2884L11.7459 48.6648C12.3177 48.2706 13.0225 48.119 13.7058 48.2433C14.3892 48.3676 14.9954 48.7577 15.3917 49.3281L16.1417 50.4106L16.1419 50.4103ZM32.8595 56.2472L46.0678 59.9898C47.3878 60.3653 48.8023 60.2098 50.0093 59.5567C51.108 58.9664 51.9545 57.9966 52.3908 56.8281L66.1187 48.7969C68.0931 47.6419 69.8808 47.6734 71.0676 48.3281C71.8382 48.7531 72.4097 49.4792 72.4668 50.3775C72.5293 51.3712 71.9418 52.5181 70.4369 53.5051C69.2265 54.2989 67.5775 55.5186 65.6868 56.9178C58.9964 61.8667 49.1658 69.1383 44.8275 67.7941L29.1312 62.933C28.5918 62.7619 28.0113 62.7719 27.4781 62.9615C26.945 63.151 26.4884 63.5098 26.1781 63.983L25.8675 64.4439L17.1251 51.829C30.405 44.8023 30.8001 44.9636 37.4592 47.7155C41.0702 49.2473 44.7641 50.5757 48.5237 51.6944C49.1802 51.8872 49.7647 52.2705 50.2031 52.7959C50.6415 53.3213 50.914 53.965 50.9862 54.6454C51.0583 55.3259 50.9268 56.0124 50.6083 56.618C50.2898 57.2236 49.7987 57.721 49.1972 58.0472C48.3804 58.4887 47.4233 58.5936 46.5303 58.3394L33.3219 54.5967C33.103 54.5353 32.8687 54.5634 32.6705 54.6748C32.4724 54.7861 32.3266 54.9717 32.2652 55.1905C32.2038 55.4094 32.2319 55.6437 32.3433 55.8418C32.4547 56.04 32.6402 56.1858 32.859 56.2472H32.8595ZM52.1358 9.56639C52.1402 9.68192 52.1212 9.79715 52.08 9.90519C52.0389 10.0132 51.9763 10.1118 51.8962 10.1951C51.816 10.2784 51.7198 10.3447 51.6134 10.3899C51.507 10.4352 51.3926 10.4585 51.277 10.4585C51.1614 10.4585 51.047 10.4352 50.9406 10.3899C50.8342 10.3447 50.738 10.2784 50.6579 10.1951C50.5777 10.1118 50.5151 10.0132 50.474 9.90519C50.4328 9.79715 50.4138 9.68192 50.4183 9.56639V4.58358C50.4138 4.46805 50.4328 4.35282 50.474 4.24479C50.5151 4.13675 50.5777 4.03814 50.6579 3.95484C50.738 3.87155 50.8342 3.80528 50.9406 3.76002C51.047 3.71476 51.1614 3.69144 51.277 3.69144C51.3926 3.69144 51.507 3.71476 51.6134 3.76002C51.7198 3.80528 51.816 3.87155 51.8962 3.95484C51.9763 4.03814 52.0389 4.13675 52.08 4.24479C52.1212 4.35282 52.1402 4.46805 52.1358 4.58358V9.56639ZM39.8656 12.3934C39.922 12.4908 39.9587 12.5983 39.9736 12.7098C39.9885 12.8214 39.9812 12.9347 39.9523 13.0435C39.9234 13.1522 39.8733 13.2542 39.8049 13.3436C39.7366 13.433 39.6513 13.508 39.554 13.5644C39.4566 13.6209 39.3491 13.6576 39.2376 13.6724C39.126 13.6873 39.0126 13.6801 38.9039 13.6511C38.7952 13.6222 38.6932 13.5721 38.6038 13.5038C38.5144 13.4354 38.4394 13.3502 38.3829 13.2528L35.8908 8.93749C35.7768 8.74085 35.7456 8.507 35.8041 8.28738C35.8625 8.06776 36.0058 7.88035 36.2025 7.76639C36.3991 7.65243 36.633 7.62125 36.8526 7.67971C37.0722 7.73817 37.2596 7.88148 37.3736 8.07811L39.865 12.3934H39.8656ZM30.6539 20.9778C30.8485 21.0918 30.9901 21.2781 31.048 21.4961C31.1059 21.7141 31.0753 21.9461 30.9629 22.1417C30.8505 22.3372 30.6654 22.4805 30.448 22.5402C30.2305 22.5999 29.9982 22.5713 29.8017 22.4606L25.4864 19.9687C25.2928 19.8542 25.1522 19.668 25.0949 19.4505C25.0376 19.233 25.0684 19.0017 25.1804 18.8067C25.2925 18.6117 25.4768 18.4687 25.6936 18.4087C25.9103 18.3486 26.142 18.3764 26.3384 18.4859L30.6539 20.9773V20.9778ZM72.7523 22.4606C72.5559 22.5702 72.3242 22.5979 72.1075 22.5379C71.8907 22.4778 71.7064 22.3348 71.5943 22.1398C71.4823 21.9448 71.4515 21.7135 71.5088 21.496C71.5661 21.2785 71.7067 21.0923 71.9003 20.9778L76.2156 18.4864C76.412 18.3768 76.6437 18.3491 76.8604 18.4091C77.0772 18.4692 77.2615 18.6122 77.3736 18.8072C77.4856 19.0022 77.5164 19.2335 77.4591 19.451C77.4018 19.6685 77.2612 19.8547 77.0676 19.9692L72.7523 22.4606ZM64.172 13.2522C64.058 13.4488 63.8706 13.5921 63.651 13.6506C63.4314 13.709 63.1975 13.6779 63.0009 13.5639C62.8043 13.4499 62.661 13.2625 62.6025 13.0429C62.5441 12.8233 62.5752 12.5894 62.6892 12.3928L65.18 8.07811C65.2939 7.8815 65.4813 7.73821 65.7009 7.67977C65.9205 7.62132 66.1544 7.65251 66.351 7.76647C66.5476 7.88043 66.6909 8.06783 66.7493 8.28744C66.8078 8.50704 66.7766 8.74087 66.6626 8.93749L64.172 13.2522ZM18.8658 66.9803C19.0885 66.9803 19.3063 67.0464 19.4916 67.1701C19.6768 67.2939 19.8212 67.4699 19.9064 67.6757C19.9917 67.8815 20.014 68.108 19.9705 68.3265C19.927 68.545 19.8197 68.7457 19.6622 68.9033C19.5046 69.0608 19.3039 69.168 19.0854 69.2115C18.8669 69.2549 18.6404 69.2326 18.4346 69.1473C18.2288 69.062 18.0529 68.9176 17.9291 68.7324C17.8054 68.5471 17.7393 68.3293 17.7394 68.1066C17.7393 67.9586 17.7685 67.8122 17.8251 67.6755C17.8817 67.5388 17.9646 67.4147 18.0692 67.3101C18.1738 67.2055 18.298 67.1225 18.4347 67.0659C18.5714 67.0094 18.7178 66.9803 18.8658 66.9803ZM18.8658 65.2626C19.5237 65.2626 20.1613 65.4906 20.6699 65.908C21.1785 66.3253 21.5267 66.9061 21.6551 67.5513C21.7835 68.1966 21.6842 68.8664 21.3741 69.4467C21.064 70.0269 20.5623 70.4817 19.9545 70.7336C19.3467 70.9854 18.6704 71.0187 18.0408 70.8278C17.4112 70.6369 16.8673 70.2335 16.5017 69.6865C16.1361 69.1395 15.9715 68.4827 16.0359 67.8279C16.1004 67.1732 16.3898 66.561 16.855 66.0958C17.1187 65.8313 17.4322 65.6215 17.7772 65.4786C18.1223 65.3356 18.4922 65.2622 18.8658 65.2626Z" fill="url(#paint0_linear_194_209)"/>
<defs>
<linearGradient id="paint0_linear_194_209" x1="3.27311" y1="39.4289" x2="76.7181" y2="39.6302" gradientUnits="userSpaceOnUse">
<stop stop-color="#4D51AB"/>
<stop offset="1" stop-color="#55CEE3"/>
</linearGradient>
</defs>
</svg>
