<svg width="30" height="31" viewBox="0 0 30 31" fill="none" xmlns="http://www.w3.org/2000/svg">
<g clip-path="url(#clip0_125_156)">
<path d="M5.02315 15.3586C4.62688 15.3589 4.25368 15.5443 4.01366 15.8596C3.68257 15.4255 3.1117 15.2509 2.59448 15.4255C2.07727 15.6003 1.729 16.0853 1.729 16.6312C1.729 17.1771 2.07727 17.6624 2.59448 17.837C3.1117 18.0116 3.68257 17.837 4.01366 17.403C4.37604 17.877 5.01938 18.0353 5.56037 17.7838C6.10159 17.532 6.39479 16.9381 6.26584 16.3554C6.13665 15.7728 5.6199 15.3582 5.02315 15.3586ZM3.00393 17.0604C2.76697 17.0604 2.57495 16.8679 2.57495 16.631C2.57519 16.394 2.76744 16.2018 3.0044 16.202C3.2416 16.202 3.43361 16.3943 3.43361 16.6312C3.43338 16.8684 3.24112 17.0604 3.00393 17.0604ZM5.02315 17.0604C4.78619 17.0604 4.59394 16.8682 4.59394 16.6312C4.59394 16.394 4.78619 16.202 5.02315 16.202C5.26034 16.202 5.45259 16.394 5.45259 16.6312C5.45212 16.8682 5.26011 17.0602 5.02315 17.0604Z" fill="white"/>
<path d="M30 10.1801C30 5.71127 26.3637 2.07263 21.8947 2.07263C18.7114 2.07263 15.9507 3.94102 14.6259 6.59158H4.454C3.87537 6.59464 3.32191 6.82783 2.91553 7.23987C2.50938 7.65166 2.28395 8.20865 2.28912 8.78705V9.54334H1.57636C1.16056 9.53958 0.760296 9.70171 0.464508 9.99397C0.168484 10.2862 0.00141188 10.6844 0 11.1002V17.8096C0.00164719 18.225 0.168955 18.6227 0.464743 18.9142C0.760766 19.2058 1.1608 19.3672 1.57636 19.3625H2.28912V22.9366C2.28912 24.1443 3.24661 25.1455 4.454 25.1455H10.8432V28.3382H8.86612C8.63316 28.3382 8.44444 28.527 8.44444 28.7599C8.44444 28.9929 8.63316 29.1816 8.86612 29.1816H21.7688C22.0018 29.1816 22.1905 28.9929 22.1905 28.7599C22.1905 28.527 22.0018 28.3382 21.7688 28.3382H19.7587V25.1455H26.1809C27.3883 25.1455 28.3731 24.1443 28.3731 22.9366V15.0468C29.432 13.6458 30.0033 11.9365 30 10.1801ZM21.8942 2.91882C25.9044 2.91882 29.1553 6.1699 29.1553 10.1801C29.1553 14.1903 25.9044 17.4414 21.8942 17.4414C17.8838 17.4414 14.6329 14.1903 14.6329 10.1801C14.6374 6.17178 17.8857 2.92352 21.8942 2.91882ZM1.57636 10.3867H12.1913C12.5949 10.3867 12.9516 10.6964 12.9516 11.1002V11.5313H0.843361V11.1002C0.844538 10.9079 0.922662 10.7241 1.06055 10.59C1.19821 10.4559 1.38411 10.3827 1.57636 10.3867ZM0.843361 12.3746H12.9516V13.6999H0.843361V12.3746ZM0.843361 17.8096V14.5433H12.9516V17.8096C12.9516 18.2132 12.5951 18.5191 12.1913 18.5191H1.57636C1.38458 18.5241 1.19868 18.4516 1.06103 18.3182C0.923132 18.1847 0.844773 18.0014 0.843361 17.8096ZM18.9154 28.3382H11.6866V25.1455H18.9154V28.3382ZM27.5297 22.9366C27.5293 23.6842 26.9283 24.2925 26.1809 24.3022H4.454C3.71159 24.3022 3.13248 23.6791 3.13248 22.9366V21.1697H27.5297V22.9366ZM3.13248 20.3263V19.3625H12.1913C13.0601 19.3625 13.795 18.6784 13.795 17.8096V11.1002C13.795 10.2314 13.0601 9.54334 12.1913 9.54334H3.13248V8.78705C3.12707 8.4322 3.26355 8.08982 3.51157 7.83591C3.75983 7.58201 4.09915 7.43776 4.454 7.43494H14.2665C13.9491 8.3143 13.7877 9.24238 13.7896 10.1773C13.7896 14.6461 17.4266 18.2833 21.8954 18.2833C23.9996 18.2878 26.0218 17.4687 27.5297 16.001V20.3263H3.13248Z" fill="white"/>
<path d="M17.8912 9.64526V10.9254C17.8319 10.9621 17.783 11.0138 17.7496 11.075C17.6653 11.2129 17.6672 11.3866 17.7543 11.5226L17.8912 11.7391V13.8444C17.8945 14.2527 18.1072 14.6308 18.4543 14.8454L21.3188 16.6512C21.707 16.8938 22.1996 16.8938 22.5876 16.6512L25.4593 14.8459C25.8067 14.6311 26.0199 14.2529 26.0236 13.8444V11.7391L26.1542 11.5226C26.2448 11.3889 26.2512 11.215 26.1707 11.075C26.1352 11.0134 26.0846 10.9618 26.0236 10.9251V9.65749C26.867 9.24475 27.0877 8.76095 27.0877 8.40163C27.0877 7.62651 26.1799 7.0154 24.5423 6.67984L24.4616 6.23016C24.3296 5.3668 23.759 4.63356 22.9542 4.29401C22.3118 4.02316 21.587 4.02387 20.9453 4.29636C20.1488 4.64227 19.5831 5.36986 19.4448 6.2271L19.3676 6.67231C19.3572 6.67467 19.3471 6.67655 19.3365 6.67914C17.7253 7.01681 16.8267 7.62439 16.8267 8.39033C16.8264 8.9092 17.2286 9.32876 17.8912 9.64526ZM21.9631 10.3606C23.1439 10.3606 24.2767 10.2211 25.1803 9.96622V10.9209L22.6271 11.1362C22.1784 10.847 21.7416 10.847 21.2929 11.1362L18.7346 10.9209V9.95893C19.6984 10.2248 20.823 10.3606 21.9631 10.3606ZM24.9595 11.7843L24.2585 12.8474L23.3907 11.9167L24.9595 11.7843ZM20.5227 11.9167L19.6544 12.8474L18.9537 11.7843L20.5227 11.9167ZM25.1803 13.8444C25.1758 13.9632 25.1113 14.0717 25.0094 14.1327L22.1445 15.938C22.0323 16.0079 21.8901 16.0079 21.7779 15.938L18.9061 14.1324C18.804 14.0717 18.7393 13.9635 18.7346 13.8444V13.0187L19.2339 13.759C19.3073 13.8672 19.4259 13.9364 19.5563 13.947C19.5683 13.948 19.5826 13.9484 19.5944 13.9484C19.7118 13.9484 19.8238 13.8999 19.9043 13.8145L21.7301 11.8581C21.9075 11.7306 22.0047 11.7306 22.1819 11.8581L24.0072 13.8145C24.087 13.8999 24.1985 13.9484 24.3155 13.9484C24.3275 13.9484 24.339 13.948 24.351 13.947C24.4833 13.9364 24.6037 13.8675 24.6798 13.759L25.1803 13.0187V13.8444ZM20.2761 6.36476C20.3571 5.84684 20.6731 5.39551 21.1322 5.14231C21.5913 4.88911 22.1417 4.86252 22.6231 5.0703C23.1599 5.29738 23.5397 5.78754 23.626 6.36382C23.6265 6.36617 23.6267 6.36829 23.6272 6.37064L23.8242 7.50956L23.4832 7.61568C22.4862 7.94136 21.4113 7.94089 20.4145 7.61427L20.078 7.50956L20.2761 6.36476ZM19.2111 7.57286L19.184 7.73028C19.1478 7.93877 19.272 8.14184 19.4742 8.20467L20.1582 8.41787C20.7359 8.60682 21.3397 8.7033 21.9475 8.70354C22.5554 8.70306 23.1596 8.60729 23.738 8.41951L24.4275 8.20467C24.6296 8.14184 24.7536 7.93877 24.7176 7.73028L24.6915 7.57968C25.8464 7.86464 26.2319 8.2475 26.2319 8.40186C26.2319 8.73554 24.7793 9.51748 21.9619 9.51748C19.1372 9.51748 17.6808 8.72754 17.6808 8.39033C17.6811 8.24444 18.0743 7.85711 19.2111 7.57286Z" fill="white"/>
</g>
<defs>
<clipPath id="clip0_125_156">
<rect width="30" height="30" fill="white" transform="translate(0 0.626465)"/>
</clipPath>
</defs>
</svg>
