<svg width="50" height="51" viewBox="0 0 50 51" fill="none" xmlns="http://www.w3.org/2000/svg">
<g clip-path="url(#clip0_196_280)">
<path d="M14.3913 12.1999C14.0808 10.7595 12.8327 9.71261 11.3599 9.65803C9.88703 9.60302 8.56472 10.5544 8.14811 11.9684C7.73192 13.3824 8.32763 14.8983 9.59494 15.6509C10.8622 16.4031 12.4788 16.2001 13.5205 15.1575C14.2966 14.3849 14.625 13.2698 14.3913 12.1999ZM12.4396 14.0766C12.037 14.4885 11.4494 14.662 10.8874 14.535C10.2508 14.3904 9.75357 13.8932 9.60901 13.2566C9.50283 12.7585 9.62564 12.2396 9.94375 11.8421C10.2619 11.4447 10.7416 11.2115 11.2503 11.2059C11.3744 11.2059 11.498 11.2196 11.6191 11.246C12.2558 11.3906 12.753 11.8873 12.898 12.524C13.025 13.086 12.8515 13.6736 12.4396 14.0766Z" fill="url(#paint0_linear_196_280)"/>
<path d="M30.3852 33.2206C30.8074 33.2206 31.1494 32.8782 31.1494 32.4565V29.13C31.1494 28.7078 30.8074 28.3658 30.3852 28.3658C29.9635 28.3658 29.6211 28.7078 29.6211 29.13V32.4565C29.6211 32.8782 29.9635 33.2206 30.3852 33.2206Z" fill="url(#paint1_linear_196_280)"/>
<path d="M10.5641 33.931C11.6335 34.1617 12.7473 33.8338 13.5213 33.0598C14.2948 32.2859 14.6231 31.1721 14.392 30.1026C14.0492 28.5437 12.6143 27.4729 11.0225 27.5881C9.43064 27.7032 8.16419 28.9692 8.04948 30.561C7.93435 32.1528 9.00508 33.5882 10.5641 33.931ZM10.0677 29.6063C10.3794 29.2882 10.8058 29.1087 11.251 29.1082C11.3751 29.1082 11.4988 29.1219 11.6199 29.1483C12.2569 29.2929 12.7541 29.7901 12.8987 30.4267C13.0189 30.9883 12.8467 31.5729 12.4403 31.9789C12.0343 32.3852 11.4497 32.5575 10.8881 32.4373C10.2515 32.2927 9.75429 31.7951 9.60974 31.1584C9.48267 30.5969 9.65622 30.0097 10.0677 29.6067V29.6063Z" fill="url(#paint2_linear_196_280)"/>
<path d="M27.1108 33.2206C27.533 33.2206 27.875 32.8782 27.875 32.4565V29.13C27.875 28.7078 27.533 28.3658 27.1108 28.3658C26.6891 28.3658 26.3467 28.7078 26.3467 29.13V32.4565C26.3467 32.8782 26.6891 33.2206 27.1108 33.2206Z" fill="url(#paint3_linear_196_280)"/>
<path d="M33.6596 33.2206C34.0818 33.2206 34.4238 32.8782 34.4238 32.4565V29.13C34.4238 28.7078 34.0818 28.3658 33.6596 28.3658C33.2379 28.3658 32.8955 28.7078 32.8955 29.13V32.4565C32.8955 32.8782 33.2379 33.2206 33.6596 33.2206Z" fill="url(#paint4_linear_196_280)"/>
<path d="M48.3698 9.27167L46.5784 9.09769C46.3737 8.36852 46.0786 7.66749 45.7004 7.01123L46.8389 5.63902C47.0901 5.33669 47.0709 4.89322 46.7941 4.61349L44.6019 2.39868C44.3235 2.11725 43.8762 2.0955 43.5717 2.34794L42.1944 3.48988C41.5369 3.11336 40.8363 2.81742 40.1079 2.60933L39.9344 0.832452C39.8951 0.44356 39.5647 0.149759 39.1741 0.155729H36.0297C35.6387 0.149759 35.3082 0.44356 35.269 0.832452L35.0954 2.6153C34.365 2.8187 33.6631 3.1125 33.0055 3.48988L31.632 2.35007C31.3289 2.09806 30.8837 2.11853 30.6048 2.39655L28.3853 4.61093C28.1056 4.88384 28.0847 5.32646 28.3367 5.62538L28.4297 5.72345H6.26707C4.44286 5.72303 2.9858 7.2351 2.9858 9.05931V16.7212C2.98111 17.5949 3.32437 18.4345 3.94012 19.0541C4.55586 19.6741 5.39335 20.0229 6.26707 20.0233H20.4518V23.6257H6.26707C4.44286 23.6257 2.9858 25.1378 2.9858 26.962V34.6239C2.98111 35.4976 3.32437 36.3372 3.94012 36.9568C4.55586 37.5768 5.39335 37.9256 6.26707 37.926H20.4518V41.7284C18.7133 42.0341 17.3509 43.3931 17.0413 45.1308H6.62484C6.24234 43.7462 4.89529 42.8571 3.47191 43.0498C2.04811 43.243 0.986328 44.4583 0.986328 45.8949C0.986328 47.3315 2.04811 48.5472 3.47191 48.74C4.89529 48.9327 6.24234 48.044 6.62484 46.659H17.0413C17.4098 48.6841 19.1739 50.1557 21.2317 50.1557C23.2901 50.1557 25.0541 48.6841 25.4226 46.659H35.8391C36.2211 48.0338 37.5597 48.9148 38.9732 48.722C40.3872 48.5289 41.4409 47.3217 41.4409 45.8949C41.4409 44.4681 40.3872 43.2609 38.9732 43.0682C37.5597 42.8754 36.2211 43.7564 35.8391 45.1308H25.4226C25.0989 43.3888 23.7259 42.0316 21.9801 41.7284V37.926H36.1968C38.021 37.926 39.5553 36.4481 39.5553 34.6239V26.962C39.5553 25.1378 38.021 23.6257 36.1968 23.6257H21.9801V20.0233H29.8245L30.6048 20.8054C30.8833 21.0843 31.328 21.1056 31.632 20.8544L33.0094 19.7133C33.6665 20.0899 34.3671 20.3858 35.0958 20.5943L35.269 22.387C35.3069 22.7788 35.6357 23.0786 36.0297 23.0799H39.1732C39.5672 23.079 39.8964 22.7793 39.934 22.387L40.1075 20.5969C40.838 20.3922 41.5403 20.0971 42.1978 19.7185L43.5709 20.8566C43.8745 21.1081 44.3197 21.0877 44.5985 20.8092L46.818 18.5944C47.0973 18.3155 47.1187 17.8695 46.8662 17.5655L45.726 16.1903C46.1021 15.5332 46.398 14.8338 46.6065 14.106L48.3702 13.9328C48.7604 13.894 49.0563 13.564 49.0525 13.1717V10.032C49.0563 9.64009 48.7599 9.31004 48.3698 9.27167ZM3.8672 47.2526C3.13078 47.2526 2.53337 46.6556 2.53337 45.9188C2.53337 45.1824 3.13078 44.5849 3.8672 44.5849C4.60362 44.5849 5.20103 45.1824 5.20103 45.9188C5.20018 46.6552 4.60362 47.2518 3.8672 47.2526ZM38.5967 44.5849C39.3331 44.5849 39.9305 45.1819 39.9305 45.9188C39.9305 46.6552 39.3336 47.2526 38.5967 47.2526C37.8603 47.2526 37.2629 46.6556 37.2629 45.9188C37.2637 45.1828 37.8603 44.5858 38.5967 44.5849ZM23.9642 45.9188C23.9642 47.4279 22.7408 48.6513 21.2317 48.6513C19.7231 48.6513 18.4997 47.4279 18.4997 45.9188C18.4997 44.4097 19.7231 43.1867 21.2317 43.1867C21.9588 43.1786 22.6585 43.4639 23.1728 43.9782C23.6866 44.4924 23.9723 45.1917 23.9642 45.9188ZM38.027 34.6175C38.027 35.6008 37.23 36.3977 36.2467 36.3977H6.29479C5.31147 36.3977 4.51407 35.6008 4.51407 34.6175V26.9343C4.51407 25.951 5.31147 25.154 6.29479 25.154H36.2467C37.23 25.154 38.027 25.951 38.027 26.9343V34.6175ZM4.51407 16.7212V9.05931C4.51407 8.0777 5.28546 7.2513 6.26707 7.2513H29.3315C29.036 7.84061 28.79 8.4538 28.5964 9.08362L26.8088 9.26484C26.4182 9.30663 26.1232 9.63924 26.1283 10.032V13.1717C26.124 13.5631 26.4191 13.8936 26.8088 13.9324L28.5994 14.106C28.8036 14.8356 29.0987 15.5366 29.4769 16.1928L28.338 17.5616C28.112 17.8345 28.1047 18.2767 28.3073 18.4951H6.26707C5.79844 18.4951 5.34942 18.3074 5.02023 17.974C4.69104 17.6409 4.50896 17.1898 4.51407 16.7212ZM47.5242 12.4787L45.9166 12.6369C45.5887 12.6694 45.3192 12.9094 45.2492 13.2314C45.042 14.1605 44.6689 15.0441 44.1482 15.8406C43.9657 16.1212 43.987 16.4879 44.2011 16.7455L45.2454 18.0043L44.0118 19.2357L42.7517 18.191C42.4925 17.9761 42.1236 17.9561 41.8426 18.142C41.0507 18.6665 40.1676 19.0375 39.2389 19.2362C38.9131 19.3074 38.6705 19.5803 38.6385 19.912L38.4803 21.5516H36.7235L36.5644 19.912C36.5324 19.5807 36.2898 19.3078 35.964 19.2375C35.0344 19.0315 34.1496 18.6588 33.3531 18.1369C33.0729 17.9569 32.7087 17.9791 32.4525 18.1915L31.1924 19.2362L29.9588 18.0047L31.0027 16.7455C31.218 16.4858 31.2376 16.1157 31.0508 15.8346C30.5255 15.0445 30.1528 14.1627 29.952 13.2352C29.8859 12.912 29.6172 12.6698 29.2893 12.6374L27.6566 12.4779V10.7257L29.2885 10.5671C29.6164 10.5351 29.8859 10.2946 29.9554 9.97227C30.1626 9.04353 30.5353 8.15957 31.0564 7.36345C31.2385 7.08244 31.2171 6.71572 31.0031 6.4586L30.746 6.14902C30.6986 6.06245 30.6351 5.9857 30.5588 5.92344L29.9584 5.19939L31.192 3.9679L32.452 5.01347C32.7113 5.22838 33.0806 5.24843 33.3612 5.06251C34.153 4.53801 35.0361 4.16661 35.9649 3.9679C36.2885 3.90436 36.532 3.63614 36.5653 3.30823L36.7235 1.68401H38.4803L38.6385 3.3078C38.6709 3.63785 38.9148 3.9082 39.2397 3.97472C40.1693 4.17897 41.0537 4.55081 41.8507 5.07104C42.1309 5.25056 42.4954 5.22796 42.7513 5.01475L44.0079 3.97173L45.2215 5.19683L44.1747 6.45902C43.9598 6.71871 43.9401 7.08884 44.1269 7.36985C44.6523 8.16 45.0249 9.04183 45.2254 9.96971C45.2923 10.2929 45.5618 10.5351 45.8906 10.5675L47.5242 10.7257V12.4787Z" fill="url(#paint5_linear_196_280)"/>
<path d="M37.59 5.22034C34.0665 5.22503 31.2138 8.08415 31.2168 11.6076C31.2198 15.1311 34.0776 17.9851 37.6011 17.9838C41.1246 17.9821 43.9803 15.1256 43.9803 11.6021C43.9739 8.0769 41.1152 5.22204 37.59 5.22034ZM37.59 16.4556C34.9108 16.4509 32.7421 14.2757 32.7451 11.5965C32.7481 8.91694 34.9219 6.74691 37.6011 6.74861C40.2807 6.74989 42.452 8.92249 42.452 11.6021C42.4465 14.2834 40.2718 16.4547 37.59 16.4556Z" fill="url(#paint6_linear_196_280)"/>
</g>
<defs>
<linearGradient id="paint0_linear_196_280" x1="8.08275" y1="12.8299" x2="14.3991" y2="12.8467" gradientUnits="userSpaceOnUse">
<stop stop-color="#4D51AB"/>
<stop offset="1" stop-color="#55CEE3"/>
</linearGradient>
<linearGradient id="paint1_linear_196_280" x1="29.6368" y1="30.7562" x2="31.1337" y2="30.7574" gradientUnits="userSpaceOnUse">
<stop stop-color="#4D51AB"/>
<stop offset="1" stop-color="#55CEE3"/>
</linearGradient>
<linearGradient id="paint2_linear_196_280" x1="8.10691" y1="30.7425" x2="14.3988" y2="30.7592" gradientUnits="userSpaceOnUse">
<stop stop-color="#4D51AB"/>
<stop offset="1" stop-color="#55CEE3"/>
</linearGradient>
<linearGradient id="paint3_linear_196_280" x1="26.3624" y1="30.7562" x2="27.8593" y2="30.7574" gradientUnits="userSpaceOnUse">
<stop stop-color="#4D51AB"/>
<stop offset="1" stop-color="#55CEE3"/>
</linearGradient>
<linearGradient id="paint4_linear_196_280" x1="32.9112" y1="30.7562" x2="34.4081" y2="30.7574" gradientUnits="userSpaceOnUse">
<stop stop-color="#4D51AB"/>
<stop offset="1" stop-color="#55CEE3"/>
</linearGradient>
<linearGradient id="paint5_linear_196_280" x1="1.47941" y1="24.7739" x2="48.5595" y2="24.8939" gradientUnits="userSpaceOnUse">
<stop stop-color="#4D51AB"/>
<stop offset="1" stop-color="#55CEE3"/>
</linearGradient>
<linearGradient id="paint6_linear_196_280" x1="31.3477" y1="11.5046" x2="43.8494" y2="11.5378" gradientUnits="userSpaceOnUse">
<stop stop-color="#4D51AB"/>
<stop offset="1" stop-color="#55CEE3"/>
</linearGradient>
<clipPath id="clip0_196_280">
<rect width="50" height="50" fill="white" transform="translate(0 0.155762)"/>
</clipPath>
</defs>
</svg>
