<svg width="30" height="31" viewBox="0 0 30 31" fill="none" xmlns="http://www.w3.org/2000/svg">
<g clip-path="url(#clip0_199_777)">
<path d="M5.02364 15.0411C4.62737 15.0414 4.25416 15.2268 4.01414 15.5421C3.68306 15.108 3.11219 14.9334 2.59497 15.108C2.07776 15.2828 1.72949 15.7678 1.72949 16.3137C1.72949 16.8596 2.07776 17.3448 2.59497 17.5195C3.11219 17.6941 3.68306 17.5195 4.01414 17.0855C4.37653 17.5595 5.01987 17.7178 5.56086 17.4663C6.10208 17.2145 6.39528 16.6206 6.26632 16.0379C6.13714 15.4553 5.62039 15.0407 5.02364 15.0411ZM3.00442 16.7429C2.76746 16.7429 2.57544 16.5504 2.57544 16.3135C2.57568 16.0765 2.76793 15.8843 3.00489 15.8845C3.24208 15.8845 3.4341 16.0767 3.4341 16.3137C3.43386 16.5509 3.24161 16.7429 3.00442 16.7429ZM5.02364 16.7429C4.78668 16.7429 4.59443 16.5507 4.59443 16.3137C4.59443 16.0765 4.78668 15.8845 5.02364 15.8845C5.26083 15.8845 5.45308 16.0765 5.45308 16.3137C5.45261 16.5507 5.2606 16.7427 5.02364 16.7429Z" fill="white"/>
<path d="M30 9.86284C30 5.39401 26.3637 1.75537 21.8947 1.75537C18.7114 1.75537 15.9507 3.62375 14.6259 6.27432H4.454C3.87537 6.27738 3.32191 6.51057 2.91553 6.92261C2.50938 7.3344 2.28395 7.89139 2.28912 8.46979V9.22608H1.57636C1.16056 9.22232 0.760296 9.38445 0.464508 9.67671C0.168484 9.96897 0.00141188 10.3671 0 10.7829V17.4924C0.00164719 17.9077 0.168955 18.3054 0.464743 18.5969C0.760766 18.8885 1.1608 19.0499 1.57636 19.0452H2.28912V22.6194C2.28912 23.827 3.24661 24.8283 4.454 24.8283H10.8432V28.021H8.86612C8.63316 28.021 8.44444 28.2097 8.44444 28.4427C8.44444 28.6756 8.63316 28.8643 8.86612 28.8643H21.7688C22.0018 28.8643 22.1905 28.6756 22.1905 28.4427C22.1905 28.2097 22.0018 28.021 21.7688 28.021H19.7587V24.8283H26.1809C27.3883 24.8283 28.3731 23.827 28.3731 22.6194V14.7296C29.432 13.3285 30.0033 11.6192 30 9.86284ZM21.8942 2.60156C25.9044 2.60156 29.1553 5.85264 29.1553 9.86284C29.1553 13.873 25.9044 17.1241 21.8942 17.1241C17.8838 17.1241 14.6329 13.873 14.6329 9.86284C14.6374 5.85452 17.8857 2.60626 21.8942 2.60156ZM1.57636 10.0694H12.1913C12.5949 10.0694 12.9516 10.3791 12.9516 10.7829V11.214H0.843361V10.7829C0.844538 10.5907 0.922662 10.4069 1.06055 10.2728C1.19821 10.1386 1.38411 10.0654 1.57636 10.0694ZM0.843361 12.0574H12.9516V13.3826H0.843361V12.0574ZM0.843361 17.4924V14.226H12.9516V17.4924C12.9516 17.8959 12.5951 18.2019 12.1913 18.2019H1.57636C1.38458 18.2068 1.19868 18.1343 1.06103 18.0009C0.923132 17.8675 0.844773 17.6842 0.843361 17.4924ZM18.9154 28.021H11.6866V24.8283H18.9154V28.021ZM27.5297 22.6194C27.5293 23.367 26.9283 23.9753 26.1809 23.9849H4.454C3.71159 23.9849 3.13248 23.3618 3.13248 22.6194V20.8524H27.5297V22.6194ZM3.13248 20.0091V19.0452H12.1913C13.0601 19.0452 13.795 18.3612 13.795 17.4924V10.7829C13.795 9.91414 13.0601 9.22608 12.1913 9.22608H3.13248V8.46979C3.12707 8.11494 3.26355 7.77256 3.51157 7.51865C3.75983 7.26475 4.09915 7.1205 4.454 7.11768H14.2665C13.9491 7.99704 13.7877 8.92512 13.7896 9.86001C13.7896 14.3288 17.4266 17.9661 21.8954 17.9661C23.9996 17.9705 26.0218 17.1514 27.5297 15.6838V20.0091H3.13248Z" fill="white"/>
<path d="M17.8917 9.32775V10.6079C17.8324 10.6446 17.7835 10.6963 17.75 10.7575C17.6658 10.8954 17.6677 11.0691 17.7548 11.2051L17.8917 11.4216V13.5269C17.895 13.9352 18.1077 14.3133 18.4548 14.5279L21.3193 16.3337C21.7075 16.5763 22.2 16.5763 22.5881 16.3337L25.4598 14.5284C25.8072 14.3136 26.0204 13.9354 26.0241 13.5269V11.4216L26.1547 11.2051C26.2453 11.0714 26.2517 10.8975 26.1712 10.7575C26.1357 10.6959 26.0851 10.6443 26.0241 10.6076V9.33999C26.8675 8.92725 27.0882 8.44345 27.0882 8.08412C27.0882 7.309 26.1804 6.6979 24.5428 6.36234L24.4621 5.91266C24.3301 5.04929 23.7595 4.31606 22.9547 3.9765C22.3123 3.70566 21.5875 3.70636 20.9458 3.97886C20.1493 4.32477 19.5836 5.05235 19.4452 5.9096L19.3681 6.35481C19.3577 6.35716 19.3476 6.35905 19.337 6.36163C17.7258 6.69931 16.8271 7.30689 16.8271 8.07283C16.8269 8.59169 17.2291 9.01126 17.8917 9.32775ZM21.9636 10.0431C23.1444 10.0431 24.2772 9.90356 25.1808 9.64872V10.6034L22.6276 10.8187C22.1789 10.5295 21.7421 10.5295 21.2934 10.8187L18.7351 10.6034V9.64142C19.6989 9.90733 20.8235 10.0431 21.9636 10.0431ZM24.96 11.4667L24.259 12.5299L23.3912 11.5992L24.96 11.4667ZM20.5232 11.5992L19.6549 12.5299L18.9541 11.4667L20.5232 11.5992ZM25.1808 13.5269C25.1763 13.6457 25.1118 13.7542 25.0099 13.8152L22.145 15.6205C22.0327 15.6904 21.8906 15.6904 21.7784 15.6205L18.9066 13.8149C18.8045 13.7542 18.7398 13.646 18.7351 13.5269V12.7012L19.2344 13.4415C19.3078 13.5497 19.4264 13.6189 19.5568 13.6295C19.5688 13.6304 19.5831 13.6309 19.5949 13.6309C19.7123 13.6309 19.8243 13.5824 19.9048 13.497L21.7306 11.5406C21.908 11.4131 22.0052 11.4131 22.1824 11.5406L24.0077 13.497C24.0875 13.5824 24.199 13.6309 24.316 13.6309C24.328 13.6309 24.3395 13.6304 24.3515 13.6295C24.4838 13.6189 24.6042 13.55 24.6802 13.4415L25.1808 12.7012V13.5269ZM20.2766 6.04726C20.3575 5.52933 20.6736 5.078 21.1327 4.82481C21.5918 4.57161 22.1422 4.54502 22.6236 4.7528C23.1604 4.97988 23.5402 5.47003 23.6265 6.04631C23.627 6.04867 23.6272 6.05079 23.6277 6.05314L23.8246 7.19205L23.4837 7.29818C22.4867 7.62385 21.4117 7.62338 20.415 7.29677L20.0785 7.19205L20.2766 6.04726ZM19.2116 7.25535L19.1845 7.41278C19.1483 7.62126 19.2725 7.82434 19.4747 7.88717L20.1587 8.10036C20.7364 8.28932 21.3402 8.38579 21.948 8.38603C22.5558 8.38556 23.1601 8.28979 23.7385 8.10201L24.428 7.88717C24.6301 7.82434 24.7541 7.62126 24.7181 7.41278L24.692 7.26218C25.8469 7.54714 26.2324 7.92999 26.2324 8.08436C26.2324 8.41803 24.7798 9.19998 21.9624 9.19998C19.1377 9.19998 17.6813 8.41003 17.6813 8.07283C17.6816 7.92693 18.0748 7.53961 19.2116 7.25535Z" fill="white"/>
</g>
<defs>
<clipPath id="clip0_199_777">
<rect width="30" height="30" fill="white" transform="translate(0 0.309082)"/>
</clipPath>
</defs>
</svg>
