<svg width="50" height="51" viewBox="0 0 50 51" fill="none" xmlns="http://www.w3.org/2000/svg">
<path d="M24.9695 21.7439C23.8044 21.7439 22.8071 22.5791 22.6029 23.7263C22.3987 24.8731 23.0462 26.0017 24.1395 26.4037V28.397C24.1395 28.7982 24.4645 29.1232 24.8657 29.1232C25.2669 29.1232 25.5919 28.7982 25.5919 28.397V26.4693C26.757 26.1569 27.5099 25.0295 27.3522 23.8337C27.195 22.6383 26.1754 21.7443 24.9695 21.7439ZM24.9695 25.0992C24.4439 25.0992 24.018 24.6733 24.018 24.1478C24.018 23.6222 24.4439 23.1963 24.9695 23.1963C25.4951 23.1963 25.921 23.6222 25.921 24.1478C25.9205 24.6729 25.4946 25.0988 24.9695 25.0992Z" fill="url(#paint0_linear_196_250)"/>
<path d="M5.37099 22.7951C5.26319 22.3235 5.01681 21.8947 4.66426 21.5636C3.59241 20.5023 1.86368 20.5076 0.798719 21.5762C-0.266239 22.6444 -0.266239 24.3731 0.798719 25.4417C1.86368 26.5099 3.59241 26.5156 4.66426 25.4539C4.99574 25.1163 5.23847 24.7018 5.37099 24.2475H13.5584V28.1896H9.1417C8.74052 28.1896 8.37135 28.4871 8.37135 28.8879V33.2729H5.82607C5.69274 32.8227 5.45001 32.4126 5.11934 32.0795C4.32953 31.2763 3.13287 31.0303 2.09101 31.457C1.04875 31.8834 0.367548 32.8977 0.367548 34.0238C0.367548 35.15 1.04875 36.1643 2.09101 36.591C3.13287 37.0177 4.32953 36.7717 5.11934 35.9685C5.4723 35.633 5.71827 35.2002 5.82607 34.7253H9.1417C9.32406 34.735 9.50236 34.6673 9.63244 34.5385C9.76211 34.41 9.83182 34.2325 9.82371 34.0497V29.642H13.5584V32.8312C13.5652 33.2413 13.8935 33.5732 14.3036 33.5841H19.1603V37.215H14.7692C14.5824 37.2114 14.4025 37.2847 14.2716 37.4181C14.1403 37.551 14.0702 37.7325 14.0771 37.9189V41.2346C13.6041 41.3424 13.1742 41.5883 12.8411 41.9413C11.7725 43.0148 11.7749 44.7504 12.8468 45.8206C13.9182 46.8908 15.6542 46.8908 16.7261 45.8206C17.7975 44.7504 17.8 43.0148 16.7313 41.9413C16.3954 41.6102 15.9825 41.3675 15.5294 41.2346V38.6674H19.9307C20.3319 38.6674 20.6127 38.3201 20.6127 37.9189V33.5841H24.5548V41.6876C24.1038 41.8234 23.6929 42.0665 23.3565 42.3964C22.5651 43.1837 22.3264 44.3707 22.7523 45.4028C23.1782 46.4349 24.1844 47.1084 25.3009 47.1084C26.4177 47.1084 27.4239 46.4349 27.8498 45.4028C28.2757 44.3707 28.037 43.1837 27.2456 42.3964C26.9105 42.0446 26.4801 41.7982 26.0072 41.6876V33.5841H29.4306V37.9189C29.418 38.3197 29.7329 38.6548 30.1341 38.6674H34.3064V41.2346C33.8538 41.3675 33.4408 41.6102 33.1045 41.9413C32.3062 42.7303 32.0634 43.9229 32.4897 44.9611C32.916 45.9993 33.9271 46.6769 35.0496 46.6769C36.1717 46.6769 37.1828 45.9993 37.6091 44.9611C38.0354 43.9229 37.7926 42.7303 36.9943 41.9413C36.6616 41.5883 36.2317 41.3424 35.7588 41.2346V37.9189C35.7657 37.7325 35.6955 37.551 35.5647 37.4181C35.4338 37.2847 35.2534 37.2114 35.067 37.215H30.883V33.5841H35.5322C35.9423 33.5732 36.2706 33.2413 36.2775 32.8312V29.642H40.1158V34.0497C40.1077 34.2325 40.1774 34.41 40.3071 34.5385C40.4372 34.6673 40.6155 34.735 40.7983 34.7253H44.1139C44.2213 35.2006 44.4673 35.6334 44.8202 35.9693C45.3333 36.4888 46.0319 36.7831 46.7617 36.7863C47.4915 36.7899 48.193 36.5026 48.7105 35.9884C49.2263 35.4733 49.5165 34.7747 49.5165 34.0457C49.5165 33.3167 49.2263 32.618 48.7105 32.103C47.6423 31.0238 45.9022 31.0129 44.8202 32.0787C44.4896 32.4118 44.2468 32.8223 44.1139 33.2729H41.5682V28.8879C41.5682 28.4871 41.199 28.1896 40.7983 28.1896H36.2775V24.2475H44.5686C44.7011 24.7018 44.9442 25.1163 45.2753 25.4539C46.0635 26.249 47.2537 26.4897 48.289 26.0634C49.3244 25.6371 49.9999 24.6284 49.9999 23.5088C49.9999 22.3891 49.3244 21.3805 48.289 20.9542C47.2537 20.5279 46.0635 20.7686 45.2753 21.5636C44.9227 21.8947 44.6764 22.3235 44.5686 22.7951H36.2775V19.3717H40.7983C41.199 19.3717 41.5682 19.086 41.5682 18.6848V14.4959H44.1139C44.2464 14.9514 44.4891 15.3668 44.8202 15.706C45.8953 16.7831 47.6399 16.7843 48.7162 15.7084C49.7925 14.6329 49.7925 12.8884 48.7162 11.8129C47.6399 10.7374 45.8953 10.7386 44.8202 11.8157C44.4883 12.1614 44.2456 12.5828 44.1139 13.0436H40.7983C40.6119 13.0411 40.4327 13.1161 40.3035 13.2502C40.1746 13.3844 40.1065 13.5659 40.1158 13.7519V17.9194H36.2775V15.2472C36.2706 14.8375 35.9419 14.5061 35.5322 14.4959H32.5428V10.987C32.5428 6.73203 29.1307 3.27051 24.9179 3.27051C20.7051 3.27051 17.293 6.73203 17.293 10.987V14.4959H14.3036C13.8939 14.5061 13.5652 14.8375 13.5584 15.2472V17.9194H9.82371V13.7519C9.83303 13.5659 9.76536 13.3844 9.63609 13.2502C9.50682 13.1161 9.3277 13.0411 9.1417 13.0436H5.82607C5.69396 12.5828 5.45122 12.1614 5.11934 11.8157C4.04668 10.7511 2.31511 10.7552 1.24772 11.825C0.18033 12.8948 0.18033 14.6268 1.24772 15.6966C2.31511 16.7665 4.04668 16.7705 5.11934 15.706C5.45082 15.3668 5.69355 14.9514 5.82607 14.4959H8.37135V18.6848C8.37135 19.086 8.74052 19.3717 9.1417 19.3717H13.5584V22.7951H5.37099ZM3.63739 24.4145C3.13044 24.9218 2.30822 24.9218 1.80087 24.4145C1.29392 23.9075 1.29392 23.0853 1.80087 22.5783C2.30822 22.0714 3.13044 22.0714 3.63739 22.5783C4.14353 23.0857 4.14353 23.9071 3.63739 24.4145ZM4.09206 34.9676C3.58512 35.4741 2.7637 35.4741 2.25716 34.9672C1.75062 34.4602 1.75062 33.6388 2.25716 33.1323C2.7637 32.6253 3.58512 32.6249 4.09206 33.1315C4.59861 33.6388 4.59861 34.4602 4.09206 34.9676ZM15.6871 44.8047C15.1801 45.3108 14.3587 45.3108 13.8522 44.8039C13.3456 44.2973 13.3456 43.4755 13.8522 42.969C14.3587 42.462 15.1801 42.462 15.6871 42.9682C15.9326 43.2109 16.0708 43.5416 16.0708 43.8864C16.0708 44.2313 15.9326 44.5619 15.6871 44.8047ZM26.2406 45.2594C25.7332 45.7667 24.9114 45.7667 24.4041 45.2594C23.8971 44.7524 23.8971 43.9302 24.4041 43.4232C24.9114 42.9163 25.7332 42.9163 26.2406 43.4232C26.7467 43.9306 26.7467 44.752 26.2406 45.2594ZM36.3654 43.8864C36.3654 44.5052 35.9282 45.0377 35.3211 45.1585C34.7141 45.2792 34.1062 44.9542 33.8696 44.3824C33.6325 43.8106 33.8327 43.1513 34.3469 42.8073C34.8616 42.4636 35.5472 42.5309 35.9853 42.9682C36.2292 43.2113 36.3662 43.542 36.3654 43.8864ZM45.8475 33.1315C46.3544 32.6245 47.1767 32.6245 47.6836 33.1315C48.1906 33.6384 48.1906 34.4606 47.6836 34.9676C47.1767 35.475 46.3544 35.475 45.8475 34.9676C45.6027 34.7249 45.4654 34.3942 45.4654 34.0497C45.4654 33.7049 45.6027 33.3746 45.8475 33.1315ZM46.3022 22.5783C46.8091 22.0714 47.6313 22.0714 48.1383 22.5783C48.6456 23.0853 48.6456 23.9075 48.1383 24.4145C47.6313 24.9218 46.8091 24.9218 46.3022 24.4145C46.0566 24.1721 45.9184 23.8415 45.9184 23.4966C45.9184 23.1513 46.0566 22.8207 46.3022 22.5783ZM45.8475 12.8337C46.3544 12.3267 47.1767 12.3267 47.6836 12.8337C48.1906 13.341 48.1906 14.1628 47.6836 14.6702C47.1767 15.1771 46.3544 15.1771 45.8475 14.6702C45.6027 14.427 45.4654 14.0968 45.4654 13.7519C45.4654 13.4071 45.6027 13.0768 45.8475 12.8337ZM4.09206 14.6702C3.58471 15.1771 2.76289 15.1771 2.25554 14.6702C1.74859 14.1628 1.74859 13.341 2.25554 12.8337C2.76289 12.3267 3.58471 12.3267 4.09206 12.8337C4.5982 13.341 4.5982 14.1624 4.09206 14.6702ZM18.7454 10.987C18.7454 7.53237 21.5062 4.72287 24.9179 4.72287C28.3296 4.72287 31.0905 7.53277 31.0905 10.987V14.4959H18.7454V10.987ZM15.0107 15.9483H34.8251V32.1318H15.0107V15.9483Z" fill="url(#paint1_linear_196_250)"/>
<defs>
<linearGradient id="paint0_linear_196_250" x1="22.6147" y1="25.3772" x2="27.3238" y2="25.3854" gradientUnits="userSpaceOnUse">
<stop stop-color="#4D51AB"/>
<stop offset="1" stop-color="#55CEE3"/>
</linearGradient>
<linearGradient id="paint1_linear_196_250" x1="0.512919" y1="24.8547" x2="49.487" y2="25.0029" gradientUnits="userSpaceOnUse">
<stop stop-color="#4D51AB"/>
<stop offset="1" stop-color="#55CEE3"/>
</linearGradient>
</defs>
</svg>
