<svg width="80" height="81" viewBox="0 0 80 81" fill="none" xmlns="http://www.w3.org/2000/svg">
<g clip-path="url(#clip0_642_6)">
<path d="M40.7595 23.5418L32.8742 13.8263C31.3495 11.9309 29.0527 10.8218 26.62 10.8064H8.11869C3.6463 10.8246 0.0245236 14.4421 0 18.9138V70.0454C0 74.4961 3.66732 78.0709 8.11869 78.0709H71.8813C76.3327 78.0709 80 74.4961 80 70.0454V31.547C80 27.0963 76.3327 23.5418 71.8813 23.5418H64.574V19.5956H70.1534C70.4814 19.6019 70.7981 19.4751 71.0307 19.2439C71.2633 19.0133 71.3936 18.698 71.3901 18.3701V13.5376C72.2008 13.3456 72.9365 12.9196 73.5069 12.3121C75.3608 10.4553 75.3594 7.44663 73.5034 5.59195C71.6473 3.73657 68.6386 3.73657 66.7825 5.59195C64.9264 7.44663 64.925 10.4553 66.779 12.3121C67.3704 12.8831 68.09 13.3029 68.8775 13.5376V17.0844H63.3814C62.6696 17.0935 62.0901 17.6589 62.0628 18.3701V23.5418H57.3991V12.7472C58.2154 12.5608 58.9574 12.1355 59.5312 11.5252C61.381 9.66986 61.3775 6.66678 59.5235 4.8149C57.6696 2.96303 54.6665 2.96303 52.8125 4.8149C50.9592 6.66678 50.9557 9.66986 52.8048 11.5252C53.3878 12.0984 54.1031 12.5181 54.8879 12.7472V23.5418H49.8655V18.3701C49.8676 17.6708 49.3091 17.0991 48.6099 17.0844H43.4081V13.5376C44.2279 13.3456 44.9741 12.9203 45.5556 12.3121C47.4159 10.4588 47.425 7.45013 45.576 5.58564H45.5858C44.2265 4.22564 42.1819 3.81925 40.4057 4.55565C38.6295 5.29206 37.472 7.02623 37.4741 8.94887C37.4559 10.2059 37.9442 11.418 38.8285 12.3121C39.4079 12.8817 40.1184 13.3022 40.8969 13.5376V18.3701C40.8969 19.0638 41.5394 19.5956 42.2323 19.5956H47.3543V23.5418H40.7595ZM68.5664 7.36115C69.443 6.48461 70.8646 6.48461 71.7419 7.36115C72.6184 8.23839 72.6184 9.66005 71.7419 10.5366C70.8646 11.4131 69.443 11.4131 68.5664 10.5366C68.1432 10.1162 67.9057 9.54514 67.9057 8.94887C67.9057 8.3526 68.1432 7.78155 68.5664 7.36115ZM54.6055 6.57499C55.1717 6.00254 56.0013 5.77693 56.779 5.98362C57.5575 6.19032 58.1649 6.79781 58.3716 7.57625C58.579 8.3547 58.3534 9.1836 57.7803 9.74974C56.9023 10.6179 55.4877 10.6137 54.6146 9.74063C53.7416 8.86759 53.7374 7.45294 54.6055 6.57499ZM39.9874 8.94887C39.9874 7.87824 40.7441 6.95616 41.7951 6.74736C42.8454 6.53856 43.8971 7.1005 44.307 8.08985C44.7169 9.0792 44.3708 10.2206 43.4809 10.8162C42.5904 11.411 41.4034 11.2947 40.646 10.5373C40.2228 10.1169 39.986 9.54514 39.9874 8.94887ZM2.51121 70.0454V18.9138C2.53363 15.8288 5.03293 13.3344 8.11869 13.3176H26.62C28.2981 13.3344 29.8802 14.1037 30.9284 15.414L37.5182 23.5418H17.2975C12.8461 23.5418 9.14798 27.0963 9.14798 31.547V75.5597H8.11869C5.05185 75.5597 2.51121 73.1116 2.51121 70.0454ZM77.4888 31.547V70.0454C77.4888 73.1116 74.9481 75.5597 71.8813 75.5597H11.6592V31.547C11.6592 28.4815 14.2314 26.053 17.2975 26.053H71.8813C74.9481 26.053 77.4888 28.4815 77.4888 31.547Z" fill="url(#paint0_linear_642_6)"/>
<path d="M38.0257 66.4117H52.0196C53.2962 66.4257 54.5259 65.9297 55.4353 65.0328C56.3441 64.1359 56.8577 62.9133 56.8612 61.6366V51.2779C56.8395 49.0294 55.284 47.0865 53.0944 46.5743V43.9804C53.0944 39.4442 49.5168 35.7538 45.0226 35.7538C40.5285 35.7538 36.9509 39.4442 36.9509 43.9804V46.5743C34.7613 47.0865 33.2058 49.0294 33.1841 51.2779V61.6366C33.1876 62.9133 33.7012 64.1359 34.61 65.0328C35.5194 65.9297 36.7491 66.4257 38.0257 66.4117ZM45.0226 38.265C48.1315 38.265 50.5832 40.8288 50.5832 43.9804V46.5014H39.4621V43.9804C39.4621 40.8288 41.9138 38.265 45.0226 38.265ZM54.35 61.748C54.35 63.0359 53.306 64.0799 52.0182 64.0799H38.0271C36.7393 64.0799 35.6953 63.0359 35.6953 61.748V51.3445C35.6953 50.0566 36.7393 49.0126 38.0271 49.0126H52.0182C53.306 49.0126 54.35 50.0566 54.35 51.3445V61.748Z" fill="url(#paint1_linear_642_6)"/>
<path d="M43.5872 59.1843V60.8512C43.5872 61.5449 44.1492 62.1068 44.8428 62.1068C45.5365 62.1068 46.0984 61.5449 46.0984 60.8512V59.3181C47.3638 58.7975 48.0995 57.4691 47.8697 56.1196C47.6399 54.7708 46.5062 53.7604 45.1392 53.6875C43.7729 53.6147 42.5376 54.4989 42.1662 55.8155C41.7942 57.1327 42.3842 58.532 43.5872 59.1843ZM44.9844 56.1945C45.1686 56.1938 45.3319 56.3151 45.3844 56.4923C45.437 56.6696 45.3669 56.8595 45.2121 56.9604C45.0923 56.9239 44.9675 56.905 44.8428 56.905C44.7952 56.905 44.7468 56.9085 44.6992 56.9141C44.5745 56.7971 44.5338 56.6157 44.5969 56.4573C44.6599 56.2982 44.8134 56.1938 44.9844 56.1945Z" fill="url(#paint2_linear_642_6)"/>
</g>
<defs>
<linearGradient id="paint0_linear_642_6" x1="0.820671" y1="40.1785" x2="79.1793" y2="40.4013" gradientUnits="userSpaceOnUse">
<stop stop-color="#4D51AB"/>
<stop offset="1" stop-color="#55CEE3"/>
</linearGradient>
<linearGradient id="paint1_linear_642_6" x1="33.427" y1="50.8488" x2="56.6184" y2="50.8963" gradientUnits="userSpaceOnUse">
<stop stop-color="#4D51AB"/>
<stop offset="1" stop-color="#55CEE3"/>
</linearGradient>
<linearGradient id="paint2_linear_642_6" x1="42.1157" y1="57.8308" x2="47.8515" y2="57.8413" gradientUnits="userSpaceOnUse">
<stop stop-color="#4D51AB"/>
<stop offset="1" stop-color="#55CEE3"/>
</linearGradient>
<clipPath id="clip0_642_6">
<rect width="80" height="80" fill="white" transform="translate(0 0.735596)"/>
</clipPath>
</defs>
</svg>
