<svg width="80" height="80" viewBox="0 0 80 80" fill="none" xmlns="http://www.w3.org/2000/svg">
<path d="M76.4485 51.6903C78.7833 49.3506 79.7698 46.1817 79.2263 42.7672L76.7637 27.2952C76.4341 25.2392 74.6073 24.3273 72.9702 24.4914C71.3598 24.6517 69.7721 25.8867 69.8533 27.9355L70.2354 37.9127C69.979 37.7488 69.7024 37.6088 69.4077 37.4959C67.7484 36.8611 65.9416 37.2425 64.6924 38.4917L56.3969 46.787L54.9524 47.1737C53.2527 47.628 51.8793 48.4214 50.6298 49.6708L47.1485 53.152C45.3062 54.9942 44.3571 57.2834 44.3274 59.9553L44.2234 68.6409H42.1062C41.5888 68.6409 41.1694 69.0603 41.1694 69.5777V76.8459C41.1694 77.3633 41.5888 77.7827 42.1062 77.7827H64.9427C65.4601 77.7827 65.8794 77.3633 65.8794 76.8459V69.5777C65.8794 69.0603 65.4601 68.6409 64.9427 68.6409H62.7782L62.6924 67.4072C62.6057 66.1927 62.9999 65.1384 63.8643 64.2741L76.4482 51.6902L76.4485 51.6903ZM64.0062 75.9092H43.043V70.5145H61.9027C61.9027 70.5145 61.9032 70.5145 61.9035 70.5145H61.9057H64.0062V75.9092ZM62.5399 62.9494C61.2919 64.1973 60.6985 65.785 60.8238 67.5389L60.9004 68.6411H46.0971L46.201 59.977C46.2254 57.7808 46.9687 55.9817 48.4733 54.477L51.9546 50.9958C52.9754 49.975 54.0491 49.3547 55.4365 48.9839L57.124 48.5322C57.2829 48.4897 57.4277 48.4059 57.5441 48.2897L66.0171 39.8167C66.8766 38.957 67.9865 38.9581 68.7379 39.2459C69.7052 39.6163 70.3162 40.452 70.3721 41.4817V41.4825V41.4828C70.4124 42.2112 70.1427 42.922 69.6319 43.4336L69.6307 43.4348L62.4068 50.6588C62.041 51.0245 62.041 51.6177 62.4068 51.9836C62.5896 52.1666 62.8294 52.258 63.0691 52.258C63.3088 52.258 63.5487 52.1666 63.7315 51.9836L70.954 44.7611C70.954 44.7611 70.9549 44.7602 70.9555 44.7597C71.8379 43.8772 72.3062 42.6545 72.2433 41.4025C72.2433 41.4 72.2435 41.3977 72.2433 41.3952L71.7252 27.8628C71.6854 26.8598 72.4708 26.4242 73.1557 26.3559C73.8638 26.2856 74.7491 26.5669 74.9133 27.5909L77.3758 43.0619C77.8291 45.9094 77.0499 48.4355 75.1229 50.3664L62.5398 62.9495L62.5399 62.9494ZM37.8943 68.6411H35.7771L35.6732 59.9563C35.6435 57.2836 34.6943 54.9944 32.8521 53.1522L29.3708 49.6709C28.1215 48.4216 26.7479 47.6281 25.0487 47.1739L23.6037 46.7872L15.3083 38.4917C14.059 37.2422 12.2523 36.8609 10.593 37.4959C10.2983 37.6088 10.0216 37.7488 9.76538 37.9127L10.1474 27.9367C10.2287 25.8867 8.641 24.6517 7.03053 24.4914C5.3946 24.3283 3.56663 25.2392 3.23694 27.2962L0.774285 42.7672C0.230691 46.1817 1.21725 49.3508 3.55288 51.6909L16.136 64.2741C17.0004 65.1384 17.3948 66.1925 17.3077 67.4089L17.2221 68.6409H15.0577C14.5404 68.6409 14.121 69.0603 14.121 69.5777V76.8459C14.121 77.3633 14.5404 77.7827 15.0577 77.7827H37.8943C38.4116 77.7827 38.831 77.3633 38.831 76.8459V69.5777C38.831 69.0603 38.4116 68.6409 37.8943 68.6409V68.6411ZM17.4607 62.9494L4.87819 50.3669C2.95053 48.4353 2.17116 45.9092 2.62444 43.0617L5.08694 27.5917C5.25116 26.5666 6.13647 26.2852 6.84475 26.3556C7.52944 26.4239 8.31507 26.8594 8.27522 27.8638L7.7571 41.3948C7.7571 41.3973 7.75725 41.3997 7.7571 41.402C7.69397 42.6542 8.16241 43.8769 9.04491 44.7594L16.2688 51.9833C16.4518 52.1663 16.6915 52.2577 16.9312 52.2577C17.1708 52.2577 17.4107 52.1663 17.5935 51.9833C17.9593 51.6175 17.9593 51.0244 17.5935 50.6584L10.3696 43.4345C9.85803 42.923 9.58772 42.2114 9.62819 41.4825C9.62819 41.4825 9.62819 41.4822 9.62819 41.482C9.62819 41.4817 9.62819 41.4816 9.62819 41.4813C9.68413 40.4516 10.2951 39.6158 11.2624 39.2455C12.0141 38.9578 13.1237 38.9566 13.9832 39.8163L22.4562 48.2892C22.5726 48.4056 22.7174 48.4892 22.8763 48.5317L24.5643 48.9836C25.9513 49.3544 27.0252 49.9748 28.0458 50.9955L31.5271 54.4767C33.0318 55.9814 33.7752 57.7806 33.7996 59.9777L33.9033 68.6409H19.1001L19.1765 67.5406C19.3019 65.785 18.7087 64.1973 17.4607 62.9492V62.9494ZM36.9576 75.9092H15.9943V70.5145H18.0948C18.0948 70.5145 18.0962 70.5145 18.0969 70.5145H18.0977H36.9574L36.9576 75.9092ZM61.5043 28.8762H64.788C65.3054 28.8762 65.7248 28.4569 65.7248 27.9395C65.7248 27.4222 65.3054 27.0028 64.788 27.0028H61.5043C61.2791 21.7734 59.1801 17.022 55.8621 13.4047L56.7605 12.5063H59.783C60.0315 12.5063 60.2698 12.4077 60.4454 12.2319L65.3838 7.29344C65.6518 7.02547 65.7319 6.62266 65.5869 6.2725C65.4419 5.9225 65.1004 5.69422 64.7215 5.69422H62.2433V3.21609C62.2433 2.83719 62.0151 2.49547 61.6649 2.35047C61.3149 2.20578 60.9118 2.28594 60.644 2.55391L55.7055 7.49688C55.5301 7.6725 55.4315 7.91063 55.4315 8.15891V11.1858L54.5374 12.0798C50.9201 8.76203 46.1687 6.66281 40.9393 6.43766V3.15391C40.9393 2.63656 40.5199 2.21719 40.0026 2.21719C39.4852 2.21719 39.0658 2.63656 39.0658 3.15391V6.43766C27.9391 6.91641 18.9754 15.8783 18.4965 27.0027H15.2173C14.6999 27.0027 14.2805 27.422 14.2805 27.9394C14.2805 28.4567 14.6999 28.8761 15.2173 28.8761H18.4965C18.9754 40.0005 27.9393 48.9623 39.0658 49.4411V52.7248C39.0658 53.2422 39.4852 53.6616 40.0026 53.6616C40.5199 53.6616 40.9393 53.2422 40.9393 52.7248V49.4411C52.0637 48.9622 61.0254 40.0006 61.5043 28.8762ZM57.3049 8.54688L60.3699 5.47906V6.63094C60.3699 7.14828 60.7893 7.56766 61.3066 7.56766H62.4599L59.3949 10.6327H57.3048V8.54672L57.3049 8.54688ZM20.371 28.8762H23.6102C24.1276 28.8762 24.5469 28.4569 24.5469 27.9395C24.5469 27.4222 24.1276 27.0028 23.6102 27.0028H20.371C20.8471 16.9116 28.9723 8.78844 39.0657 8.3125V11.5517C39.0657 12.0691 39.4851 12.4884 40.0024 12.4884C40.5198 12.4884 40.9391 12.0691 40.9391 11.5517V8.3125C45.6523 8.53484 49.9363 10.4247 53.2124 13.4048L48.213 18.4042C46.0068 16.5005 43.1379 15.3453 40.0024 15.3453C33.0579 15.3453 27.4082 20.995 27.4082 27.9395C27.4082 34.8841 33.0579 40.5294 40.0024 40.5294C46.9469 40.5294 52.5923 34.8816 52.5923 27.9395C52.5923 24.8047 51.4387 21.9359 49.5374 19.7294L54.5373 14.7295C57.5174 18.0056 59.4073 22.2897 59.6296 27.0028H56.3904C55.873 27.0028 55.4537 27.4222 55.4537 27.9395C55.4537 28.4569 55.873 28.8762 56.3904 28.8762H59.6296C59.1537 38.9673 51.0304 47.0906 40.9393 47.5666V44.3273C40.9393 43.81 40.5199 43.3906 40.0026 43.3906C39.4852 43.3906 39.0658 43.81 39.0658 44.3273V47.5666C28.9724 47.0906 20.8471 38.9675 20.371 28.8762ZM44.4294 27.9395C44.4294 30.3806 42.4435 32.3666 40.0024 32.3666C37.5613 32.3666 35.571 30.3806 35.571 27.9395C35.571 25.4984 37.559 23.5125 40.0024 23.5125C40.8846 23.5125 41.7066 23.773 42.3977 24.2194L39.3401 27.277C38.9743 27.6428 38.9743 28.2359 39.3401 28.6019C39.5229 28.7848 39.7627 28.8762 40.0024 28.8762C40.2421 28.8762 40.4819 28.7848 40.6648 28.6019L43.7224 25.5442C44.169 26.2353 44.4294 27.0573 44.4294 27.9395ZM43.7435 22.8738C42.6965 22.0986 41.4023 21.6391 40.0024 21.6391C36.5258 21.6391 33.6976 24.4655 33.6976 27.9395C33.6976 31.4136 36.526 34.24 40.0024 34.24C43.4788 34.24 46.3029 31.4136 46.3029 27.9395C46.3029 26.5397 45.8435 25.2455 45.0682 24.1984L48.2101 21.0566C49.7743 22.9203 50.7187 25.3213 50.7187 27.9395C50.7187 33.8484 45.9113 38.6558 40.0024 38.6558C34.0935 38.6558 29.2816 33.8484 29.2816 27.9395C29.2816 22.0306 34.091 17.2188 40.0024 17.2188C42.6212 17.2188 45.0224 18.1647 46.8858 19.7312L43.7433 22.8738H43.7435Z" fill="url(#paint0_linear_194_163)"/>
<defs>
<linearGradient id="paint0_linear_194_163" x1="1.4362" y1="39.4229" x2="78.5644" y2="39.6361" gradientUnits="userSpaceOnUse">
<stop stop-color="#4D51AB"/>
<stop offset="1" stop-color="#55CEE3"/>
</linearGradient>
</defs>
</svg>
