<svg width="81" height="81" viewBox="0 0 81 81" fill="none" xmlns="http://www.w3.org/2000/svg">
<g clip-path="url(#clip0_112_396)">
<path d="M23.9505 20.0062C23.4538 17.7015 21.4568 16.0266 19.1002 15.9392C16.7437 15.8512 14.628 17.3734 13.9614 19.6358C13.2955 21.8982 14.2486 24.3236 16.2763 25.5278C18.304 26.7313 20.8905 26.4066 22.5573 24.7384C23.799 23.5022 24.3243 21.718 23.9505 20.0062ZM20.8277 23.0089C20.1837 23.668 19.2435 23.9456 18.3443 23.7423C17.3256 23.511 16.5301 22.7155 16.2988 21.6969C16.1289 20.9 16.3254 20.0697 16.8344 19.4338C17.3434 18.7979 18.1109 18.4247 18.9249 18.4159C19.1234 18.4159 19.3213 18.4377 19.515 18.48C20.5337 18.7113 21.3292 19.5061 21.5612 20.5247C21.7645 21.424 21.4868 22.3641 20.8277 23.0089Z" fill="url(#paint0_linear_112_396)"/>
<path d="M49.54 53.6393C50.2154 53.6393 50.7626 53.0914 50.7626 52.4166V47.0943C50.7626 46.4188 50.2154 45.8716 49.54 45.8716C48.8652 45.8716 48.3174 46.4188 48.3174 47.0943V52.4166C48.3174 53.0914 48.8652 53.6393 49.54 53.6393Z" fill="url(#paint1_linear_112_396)"/>
<path d="M17.8254 54.7759C19.5366 55.145 21.3187 54.6204 22.557 53.382C23.7946 52.1437 24.3199 50.3616 23.9502 48.6505C23.4016 46.1562 21.1058 44.443 18.5589 44.6272C16.012 44.8114 13.9856 46.8371 13.8021 49.384C13.6179 51.9309 15.3311 54.2274 17.8254 54.7759ZM17.0313 47.8564C17.53 47.3474 18.2123 47.0602 18.9246 47.0595C19.1231 47.0595 19.321 47.0813 19.5147 47.1236C20.534 47.3549 21.3296 48.1504 21.5609 49.169C21.7533 50.0676 21.4776 51.003 20.8274 51.6525C20.1779 52.3027 19.2425 52.5783 18.344 52.3859C17.3253 52.1546 16.5298 51.3584 16.2985 50.3398C16.0952 49.4413 16.3729 48.5018 17.0313 47.857V47.8564Z" fill="url(#paint2_linear_112_396)"/>
<path d="M44.3003 53.6393C44.9757 53.6393 45.5229 53.0914 45.5229 52.4166V47.0943C45.5229 46.4188 44.9757 45.8716 44.3003 45.8716C43.6255 45.8716 43.0776 46.4188 43.0776 47.0943V52.4166C43.0776 53.0914 43.6255 53.6393 44.3003 53.6393Z" fill="url(#paint3_linear_112_396)"/>
<path d="M54.7798 53.6393C55.4552 53.6393 56.0024 53.0914 56.0024 52.4166V47.0943C56.0024 46.4188 55.4552 45.8716 54.7798 45.8716C54.105 45.8716 53.5571 46.4188 53.5571 47.0943V52.4166C53.5571 53.0914 54.105 53.6393 54.7798 53.6393Z" fill="url(#paint4_linear_112_396)"/>
<path d="M78.3149 15.3211L75.4487 15.0428C75.1213 13.8761 74.6491 12.7544 74.044 11.7044L75.8656 9.50889C76.2675 9.02516 76.2368 8.3156 75.794 7.86803L72.2864 4.32434C71.8409 3.87404 71.1252 3.83925 70.6381 4.24315L68.4344 6.07026C67.3823 5.46782 66.2613 4.99433 65.096 4.66138L64.8183 1.81837C64.7556 1.19615 64.2268 0.726065 63.6019 0.735617H58.5708C57.9452 0.726065 57.4164 1.19615 57.3537 1.81837L57.076 4.67093C55.9073 4.99637 54.7843 5.46645 53.7322 6.07026L51.5346 4.24656C51.0495 3.84334 50.3372 3.87609 49.891 4.32093L46.3398 7.86394C45.8923 8.30059 45.8588 9.00878 46.2621 9.48705L46.4108 9.64398H10.9507C8.03192 9.64329 5.70061 12.0626 5.70061 14.9813V27.2403C5.69311 28.6383 6.24233 29.9817 7.22753 30.973C8.21272 31.965 9.55269 32.5231 10.9507 32.5238H33.6463V38.2876H10.9507C8.03192 38.2876 5.70061 40.7069 5.70061 43.6256V55.8846C5.69311 57.2826 6.24233 58.626 7.22753 59.6173C8.21272 60.6093 9.55269 61.1674 10.9507 61.1681H33.6463V67.2519C30.8647 67.741 28.6848 69.9154 28.1895 72.6957H11.5231C10.9111 70.4803 8.7558 69.0578 6.4784 69.3662C4.20031 69.6753 2.50146 71.6197 2.50146 73.9183C2.50146 76.2168 4.20031 78.162 6.4784 78.4704C8.7558 78.7788 10.9111 77.3569 11.5231 75.1409H28.1895C28.779 78.381 31.6015 80.7355 34.8941 80.7355C38.1874 80.7355 41.01 78.381 41.5994 75.1409H58.2659C58.8772 77.3405 61.0188 78.7501 63.2805 78.4417C65.5429 78.1327 67.2288 76.2011 67.2288 73.9183C67.2288 71.6354 65.5429 69.7039 63.2805 69.3955C61.0188 69.0872 58.8772 70.4967 58.2659 72.6957H41.5994C41.0816 69.9086 38.8847 67.737 36.0915 67.2519V61.1681H58.8383C61.757 61.1681 64.2118 58.8033 64.2118 55.8846V43.6256C64.2118 40.7069 61.757 38.2876 58.8383 38.2876H36.0915V32.5238H48.6425L49.891 33.7751C50.3366 34.2213 51.0482 34.2554 51.5346 33.8535L53.7383 32.0278C54.7897 32.6302 55.9107 33.1037 57.0767 33.4373L57.3537 36.3056C57.4144 36.9326 57.9404 37.4122 58.5708 37.4143H63.6005C64.2309 37.4129 64.7576 36.9333 64.8177 36.3056L65.0953 33.4414C66.2641 33.114 67.3878 32.6418 68.4398 32.036L70.6367 33.8569C71.1225 34.2595 71.8348 34.2267 72.281 33.7812L75.8322 30.2375C76.2791 29.7913 76.3132 29.0777 75.9093 28.5912L74.0849 26.3909C74.6867 25.3395 75.1601 24.2206 75.4938 23.056L78.3156 22.779C78.9399 22.7169 79.4134 22.1888 79.4073 21.5611V16.5376C79.4134 15.9106 78.9392 15.3825 78.3149 15.3211ZM7.11086 76.0906C5.93258 76.0906 4.97673 75.1355 4.97673 73.9565C4.97673 72.7782 5.93258 71.8224 7.11086 71.8224C8.28913 71.8224 9.24499 72.7782 9.24499 73.9565C9.24363 75.1348 8.28913 76.0893 7.11086 76.0906ZM62.6781 71.8224C63.8563 71.8224 64.8122 72.7775 64.8122 73.9565C64.8122 75.1348 63.857 76.0906 62.6781 76.0906C61.4998 76.0906 60.5439 75.1355 60.5439 73.9565C60.5453 72.7789 61.4998 71.8237 62.6781 71.8224ZM39.2661 73.9565C39.2661 76.371 37.3087 78.3285 34.8941 78.3285C32.4803 78.3285 30.5228 76.371 30.5228 73.9565C30.5228 71.542 32.4803 69.5852 34.8941 69.5852C36.0574 69.5723 37.177 70.0287 37.9998 70.8515C38.8219 71.6743 39.2791 72.7932 39.2661 73.9565ZM61.7666 55.8744C61.7666 57.4477 60.4914 58.7228 58.9181 58.7228H10.995C9.4217 58.7228 8.14586 57.4477 8.14586 55.8744V43.5813C8.14586 42.008 9.4217 40.7328 10.995 40.7328H58.9181C60.4914 40.7328 61.7666 42.008 61.7666 43.5813V55.8744ZM8.14586 27.2403V14.9813C8.14586 13.4108 9.38008 12.0885 10.9507 12.0885H47.8538C47.381 13.0314 46.9873 14.0125 46.6776 15.0202L43.8175 15.3102C43.1925 15.3771 42.7204 15.9092 42.7286 16.5376V21.5611C42.7218 22.1875 43.1939 22.7162 43.8175 22.7783L46.6823 23.056C47.0091 24.2233 47.4813 25.345 48.0864 26.395L46.2641 28.5851C45.9025 29.0217 45.8909 29.7292 46.215 30.0786H10.9507C10.2008 30.0786 9.48242 29.7784 8.95571 29.2448C8.429 28.712 8.13767 27.9901 8.14586 27.2403ZM76.962 20.4524L74.3899 20.7056C73.8652 20.7574 73.434 21.1415 73.3221 21.6566C72.9905 23.1433 72.3936 24.557 71.5605 25.8314C71.2685 26.2804 71.3026 26.8671 71.6451 27.2792L73.316 29.2933L71.3422 31.2636L69.3261 29.5921C68.9113 29.2482 68.3211 29.2162 67.8715 29.5136C66.6045 30.3528 65.1915 30.9464 63.7056 31.2643C63.1843 31.3783 62.7961 31.8149 62.7449 32.3457L62.4918 34.969H59.6809L59.4264 32.3457C59.3752 31.8156 58.987 31.379 58.4658 31.2664C56.9784 30.9368 55.5627 30.3405 54.2882 29.5054C53.84 29.2175 53.2573 29.253 52.8473 29.5928L50.8312 31.2643L48.8574 29.2939L50.5276 27.2792C50.8721 26.8637 50.9035 26.2715 50.6047 25.8219C49.7641 24.5576 49.1678 23.1467 48.8465 21.6628C48.7407 21.1456 48.3109 20.7581 47.7862 20.7062L45.1738 20.4511V17.6476L47.7849 17.3938C48.3095 17.3427 48.7407 16.9579 48.8519 16.4421C49.1835 14.9561 49.7798 13.5418 50.6136 12.268C50.9049 11.8184 50.8708 11.2316 50.5283 10.8202L50.1169 10.3249C50.0411 10.1864 49.9395 10.0636 49.8173 9.96396L48.8567 8.80547L50.8305 6.83508L52.8466 8.508C53.2614 8.85186 53.8523 8.88393 54.3012 8.58646C55.5682 7.74727 56.9811 7.15302 58.4671 6.83508C58.985 6.73342 59.3745 6.30428 59.4278 5.77962L59.6809 3.18086H62.4918L62.7449 5.77893C62.7968 6.30701 63.187 6.73956 63.7069 6.846C65.1943 7.1728 66.6093 7.76774 67.8845 8.60011C68.3327 8.88734 68.916 8.85118 69.3254 8.51005L71.336 6.84122L73.2778 8.80138L71.6028 10.8209C71.2589 11.2364 71.2276 11.8286 71.5264 12.2782C72.367 13.5424 72.9632 14.9534 73.2839 16.438C73.391 16.9551 73.8222 17.3427 74.3483 17.3945L76.962 17.6476V20.4524Z" fill="url(#paint5_linear_112_396)"/>
<path d="M61.0678 8.83887C55.4302 8.84637 50.8658 13.421 50.8706 19.0585C50.8754 24.6961 55.4479 29.2625 61.0855 29.2605C66.7231 29.2577 71.2922 24.6872 71.2922 19.0497C71.282 13.4094 66.7081 8.8416 61.0678 8.83887ZM61.0678 26.8152C56.7811 26.8077 53.3111 23.3275 53.3159 19.0408C53.3206 14.7534 56.7988 11.2814 61.0855 11.2841C65.3729 11.2862 68.847 14.7623 68.847 19.0497C68.8381 23.3398 65.3585 26.8139 61.0678 26.8152Z" fill="url(#paint6_linear_112_396)"/>
</g>
<defs>
<linearGradient id="paint0_linear_112_396" x1="13.8568" y1="21.0142" x2="23.9629" y2="21.041" gradientUnits="userSpaceOnUse">
<stop stop-color="#4D51AB"/>
<stop offset="1" stop-color="#55CEE3"/>
</linearGradient>
<linearGradient id="paint1_linear_112_396" x1="48.3425" y1="49.6961" x2="50.7376" y2="49.6981" gradientUnits="userSpaceOnUse">
<stop stop-color="#4D51AB"/>
<stop offset="1" stop-color="#55CEE3"/>
</linearGradient>
<linearGradient id="paint2_linear_112_396" x1="13.894" y1="49.6743" x2="23.961" y2="49.701" gradientUnits="userSpaceOnUse">
<stop stop-color="#4D51AB"/>
<stop offset="1" stop-color="#55CEE3"/>
</linearGradient>
<linearGradient id="paint3_linear_112_396" x1="43.1027" y1="49.6961" x2="45.4978" y2="49.6981" gradientUnits="userSpaceOnUse">
<stop stop-color="#4D51AB"/>
<stop offset="1" stop-color="#55CEE3"/>
</linearGradient>
<linearGradient id="paint4_linear_112_396" x1="53.5822" y1="49.6961" x2="55.9773" y2="49.6981" gradientUnits="userSpaceOnUse">
<stop stop-color="#4D51AB"/>
<stop offset="1" stop-color="#55CEE3"/>
</linearGradient>
<linearGradient id="paint5_linear_112_396" x1="3.29039" y1="40.1246" x2="78.6185" y2="40.3167" gradientUnits="userSpaceOnUse">
<stop stop-color="#4D51AB"/>
<stop offset="1" stop-color="#55CEE3"/>
</linearGradient>
<linearGradient id="paint6_linear_112_396" x1="51.0801" y1="18.8937" x2="71.0827" y2="18.9468" gradientUnits="userSpaceOnUse">
<stop stop-color="#4D51AB"/>
<stop offset="1" stop-color="#55CEE3"/>
</linearGradient>
<clipPath id="clip0_112_396">
<rect width="80" height="80" fill="white" transform="translate(0.923828 0.735596)"/>
</clipPath>
</defs>
</svg>
