<svg width="81" height="81" viewBox="0 0 81 81" fill="none" xmlns="http://www.w3.org/2000/svg">
<g clip-path="url(#clip0_112_356)">
<path d="M49.851 50.308H15.094C14.433 50.308 13.8975 50.8435 13.8975 51.5045C13.8975 52.1649 14.433 52.7011 15.094 52.7011H49.851C50.512 52.7011 51.0476 52.1649 51.0476 51.5045C51.0476 50.8435 50.512 50.308 49.851 50.308Z" fill="url(#paint0_linear_112_356)"/>
<path d="M15.094 42.4449H35.135C35.7961 42.4449 36.3316 41.9087 36.3316 41.2483C36.3316 40.5873 35.7961 40.0518 35.135 40.0518H15.094C14.433 40.0518 13.8975 40.5873 13.8975 41.2483C13.8975 41.9087 14.433 42.4449 15.094 42.4449Z" fill="url(#paint1_linear_112_356)"/>
<path d="M57.1489 29.5912C62.8506 29.5839 67.4673 24.9572 67.4626 19.2555C67.4573 13.5539 62.8326 8.93523 57.1309 8.9379C51.4292 8.94057 46.8086 13.5632 46.8086 19.2649C46.8186 24.9693 51.4446 29.5886 57.1489 29.5912ZM57.1489 11.331C61.5285 11.3384 65.0742 14.894 65.0695 19.2736C65.0641 23.6538 61.5112 27.2008 57.1309 27.1988C52.7513 27.1961 49.2017 23.6445 49.2017 19.2649C49.2104 14.8813 52.7653 11.3317 57.1489 11.331Z" fill="url(#paint2_linear_112_356)"/>
<path d="M70.2748 60.5642C70.4932 61.3201 70.8925 62.0105 71.4393 62.5761V62.5781C73.2095 64.3449 76.076 64.3435 77.8435 62.5747C79.6116 60.8059 79.6116 57.9387 77.8435 56.1699C76.076 54.4011 73.2095 54.3998 71.4393 56.1666C70.8931 56.7288 70.4932 57.4172 70.2748 58.1711H60.2984V53.3849H64.917C65.5847 53.3655 66.1149 52.816 66.1102 52.1482V47.2311H69.5256C69.7032 48.007 70.1086 48.7128 70.6901 49.2577C71.5375 50.111 72.6893 50.5924 73.8919 50.5944C75.0944 50.5971 76.2489 50.121 77.1003 49.2717V49.2737C78.8544 47.5002 78.8484 44.643 77.0863 42.8769C75.3248 41.1108 72.4676 41.0981 70.6901 42.8475C70.1439 43.4051 69.744 44.0888 69.5256 44.838H64.917C64.2479 44.8547 63.7151 45.4022 63.7171 46.0713V50.9917H60.2984V37.7561C60.6663 37.5638 60.912 37.1986 60.9521 36.7853L61.2172 33.8453C62.4191 33.5114 63.5735 33.0253 64.6519 32.399L66.9035 34.2693C67.3776 34.6632 68.074 34.6312 68.51 34.1952L72.1157 30.5955C72.5537 30.1588 72.5865 29.4604 72.1912 28.9843L70.3176 26.7254C70.9392 25.6443 71.4266 24.4912 71.7685 23.2913L74.6404 23.0068C75.246 22.9434 75.7001 22.4239 75.6827 21.8156V16.7129C75.7001 16.1046 75.2453 15.5851 74.6391 15.5223L71.7091 15.2372C71.3766 14.0346 70.8925 12.8788 70.2681 11.7984L72.1418 9.54419C72.5351 9.07077 72.5057 8.37634 72.0737 7.93832L68.5114 4.33862C68.0753 3.89793 67.3749 3.86387 66.8981 4.25983L64.6359 6.13547C63.5535 5.51248 62.399 5.02571 61.1978 4.6845L60.9133 1.78058C60.8506 1.17428 60.3311 0.718898 59.7221 0.736259H54.6114C54.0017 0.719566 53.4829 1.17495 53.4202 1.78058L53.1357 4.70186C51.9318 5.03305 50.774 5.51582 49.6916 6.13947L47.4354 4.26384C46.9606 3.86921 46.2635 3.9006 45.8261 4.33595L42.2198 7.90359C41.9447 8.17335 41.8211 8.56197 41.8899 8.94124H3.98463C3.32358 8.94124 2.86352 9.53818 2.86352 10.1992V63.6805C2.8495 63.9863 2.957 64.2854 3.16266 64.5125L18.5604 80.4069C18.7827 80.6293 19.0879 80.7481 19.4017 80.7348H59.025C59.6854 80.7348 60.2984 80.272 60.2984 79.611V67.4017H63.7171V72.6794C63.7171 73.3451 64.2513 73.8873 64.917 73.8973H69.5256C69.7433 74.6485 70.1433 75.3349 70.6901 75.8951C72.4623 77.6639 75.3328 77.6626 77.103 75.8911C78.8737 74.1203 78.8737 71.2491 77.103 69.4776C75.3328 67.7068 72.4623 67.7048 70.6901 69.4743V69.485C70.1426 70.0532 69.7433 70.7463 69.5256 71.5042H66.1102V66.2252C66.1136 65.5615 65.5814 65.0186 64.917 65.0086H60.2984V60.5642H70.2748ZM73.1313 57.8633C73.9673 57.028 75.3215 57.028 76.1575 57.8633C76.9928 58.6986 76.9928 60.0534 76.1575 60.8887C75.3215 61.724 73.9673 61.724 73.1313 60.8887C72.2973 60.0527 72.2973 58.6993 73.1313 57.8633ZM72.3821 44.5596C72.921 44.0134 73.7116 43.7984 74.4534 43.996C75.1946 44.193 75.7735 44.7719 75.9712 45.5137C76.1681 46.2549 75.9531 47.0455 75.4076 47.585C74.5703 48.4123 73.2228 48.4083 72.3908 47.5763C71.5582 46.7444 71.5548 45.3962 72.3821 44.5596ZM72.3821 71.167C73.2175 70.3317 74.5723 70.3317 75.4076 71.167C76.2436 72.0023 76.2436 73.3571 75.4076 74.1931C74.5723 75.0284 73.2175 75.0284 72.3821 74.1931C71.5482 73.3564 71.5482 72.0036 72.3821 71.167ZM46.4051 10.9344L44.6823 8.85643L46.7463 6.79651L48.8262 8.52124C49.2315 8.85777 49.8098 8.88915 50.2498 8.59803C51.5412 7.74267 52.9821 7.13638 54.4965 6.81254C55.0013 6.71905 55.3839 6.30507 55.4367 5.79426L55.6984 3.12938H58.6357L58.8975 5.79426C58.9489 6.30974 59.3315 6.73041 59.839 6.83123C61.3547 7.16376 62.7977 7.76805 64.0977 8.61605C64.5371 8.8965 65.108 8.86044 65.5079 8.52591L67.5826 6.80385L69.6118 8.8531L67.8857 10.9357C67.5485 11.3424 67.5178 11.9213 67.8102 12.3613C68.6669 13.6507 69.2752 15.089 69.6024 16.602C69.6959 17.1048 70.1099 17.4854 70.6187 17.5382L73.2896 17.7999V20.7312L70.6608 20.9923C70.1499 21.0437 69.732 21.421 69.6278 21.9231C69.2919 23.4375 68.6856 24.8791 67.8376 26.1778C67.5532 26.6179 67.5872 27.1921 67.9231 27.5947L69.6485 29.6727L67.5859 31.7326L65.5066 30.0086C65.1006 29.672 64.523 29.6406 64.083 29.9318C62.7916 30.7871 61.3514 31.3927 59.837 31.7166C59.3295 31.8181 58.9482 32.2381 58.8968 32.7529L58.6357 35.4365H55.6984L55.436 32.7522C55.3853 32.2354 55.004 31.8114 54.4945 31.7072C52.9788 31.3734 51.5358 30.7671 50.2365 29.9177C49.7971 29.6366 49.2269 29.672 48.8262 30.0052L46.7463 31.7313L44.6823 29.6714L46.4051 27.5941C46.7423 27.1874 46.773 26.6078 46.4805 26.1678C45.6232 24.8791 45.0155 23.4408 44.6883 21.9278C44.5909 21.4236 44.1735 21.043 43.6627 20.991L40.9825 20.7299V17.7999L43.6627 17.5375C44.1755 17.4868 44.5955 17.1102 44.7017 16.606C45.0382 15.0916 45.6452 13.65 46.4939 12.3513C46.7776 11.9106 46.7416 11.3364 46.4051 10.9344ZM18.2479 76.6543L6.80776 64.8376H18.2479V76.6543ZM20.641 78.3417V63.6805C20.6243 63.0034 20.0781 62.4592 19.4017 62.4445H5.25664V11.3344H43.6787L44.0173 11.773C43.395 12.8594 42.9075 14.0173 42.5663 15.2212L39.6424 15.5143C39.0334 15.5804 38.576 16.1012 38.5894 16.7129V21.8163C38.576 22.4266 39.0341 22.9447 39.6424 23.0068L42.577 23.2919C42.9102 24.4952 43.395 25.6503 44.02 26.7307L42.147 28.9849C41.7517 29.4604 41.7844 30.1588 42.2211 30.5955L45.8281 34.1958C46.2648 34.6312 46.9613 34.6632 47.4367 34.27L49.6983 32.3937C50.78 33.0166 51.9351 33.5041 53.1357 33.8446L53.4208 36.7666C53.4823 37.3762 53.9991 37.8376 54.612 37.8296H57.9053V78.3417H20.641Z" fill="url(#paint3_linear_112_356)"/>
</g>
<defs>
<linearGradient id="paint0_linear_112_356" x1="14.2786" y1="51.4863" x2="50.6051" y2="52.9824" gradientUnits="userSpaceOnUse">
<stop stop-color="#4D51AB"/>
<stop offset="1" stop-color="#55CEE3"/>
</linearGradient>
<linearGradient id="paint1_linear_112_356" x1="14.1276" y1="41.23" x2="36.0881" y2="41.7762" gradientUnits="userSpaceOnUse">
<stop stop-color="#4D51AB"/>
<stop offset="1" stop-color="#55CEE3"/>
</linearGradient>
<linearGradient id="paint2_linear_112_356" x1="47.0205" y1="19.1069" x2="67.2507" y2="19.1605" gradientUnits="userSpaceOnUse">
<stop stop-color="#4D51AB"/>
<stop offset="1" stop-color="#55CEE3"/>
</linearGradient>
<linearGradient id="paint3_linear_112_356" x1="3.64509" y1="40.1249" x2="78.3869" y2="40.3141" gradientUnits="userSpaceOnUse">
<stop stop-color="#4D51AB"/>
<stop offset="1" stop-color="#55CEE3"/>
</linearGradient>
<clipPath id="clip0_112_356">
<rect width="80" height="80" fill="white" transform="translate(0.980469 0.735596)"/>
</clipPath>
</defs>
</svg>
