<svg width="31" height="31" viewBox="0 0 31 31" fill="none" xmlns="http://www.w3.org/2000/svg">
<path fill-rule="evenodd" clip-rule="evenodd" d="M0.875 2.79082C0.875 1.30389 2.08038 0.0985107 3.5673 0.0985107H11.2596C12.7466 0.0985107 13.9519 1.30391 13.9519 2.79082V10.4831C13.9519 11.97 12.7465 13.1754 11.2596 13.1754H3.5673C2.0804 13.1754 0.875 11.9701 0.875 10.4831V2.79082ZM3.5673 2.4062C3.35489 2.4062 3.18269 2.5784 3.18269 2.79082V10.4831C3.18269 10.6955 3.35487 10.8677 3.5673 10.8677H11.2596C11.472 10.8677 11.6442 10.6956 11.6442 10.4831V2.79082C11.6442 2.57838 11.472 2.4062 11.2596 2.4062H3.5673Z" fill="white"/>
<path fill-rule="evenodd" clip-rule="evenodd" d="M0.875 19.7139C0.875 18.227 2.0804 17.0216 3.5673 17.0216H11.2596C12.7465 17.0216 13.9519 18.227 13.9519 19.7139V27.4062C13.9519 28.8931 12.7465 30.0985 11.2596 30.0985H3.5673C2.0804 30.0985 0.875 28.8931 0.875 27.4062V19.7139ZM3.5673 19.3293C3.35487 19.3293 3.18269 19.5014 3.18269 19.7139V27.4062C3.18269 27.6187 3.35487 27.7908 3.5673 27.7908H11.2596C11.472 27.7908 11.6442 27.6187 11.6442 27.4062V19.7139C11.6442 19.5014 11.472 19.3293 11.2596 19.3293H3.5673Z" fill="white"/>
<path fill-rule="evenodd" clip-rule="evenodd" d="M17.7969 2.79082C17.7969 1.30391 19.0023 0.0985107 20.4892 0.0985107H28.1815C29.6684 0.0985107 30.8738 1.30391 30.8738 2.79082V10.4831C30.8738 11.97 29.6684 13.1754 28.1815 13.1754H20.4892C19.0023 13.1754 17.7969 11.97 17.7969 10.4831V2.79082ZM20.4892 2.4062C20.2767 2.4062 20.1046 2.57838 20.1046 2.79082V10.4831C20.1046 10.6956 20.2767 10.8677 20.4892 10.8677H28.1815C28.3939 10.8677 28.5661 10.6956 28.5661 10.4831V2.79082C28.5661 2.57838 28.3939 2.4062 28.1815 2.4062H20.4892Z" fill="white"/>
<path fill-rule="evenodd" clip-rule="evenodd" d="M17.7969 19.7139C17.7969 18.227 19.0023 17.0216 20.4892 17.0216H28.1815C29.6684 17.0216 30.8738 18.227 30.8738 19.7139V27.4062C30.8738 28.8931 29.6684 30.0985 28.1815 30.0985H20.4892C19.0023 30.0985 17.7969 28.8931 17.7969 27.4062V19.7139ZM20.4892 19.3293C20.2767 19.3293 20.1046 19.5014 20.1046 19.7139V27.4062C20.1046 27.6187 20.2767 27.7908 20.4892 27.7908H28.1815C28.3939 27.7908 28.5661 27.6187 28.5661 27.4062V19.7139C28.5661 19.5014 28.3939 19.3293 28.1815 19.3293H20.4892Z" fill="white"/>
</svg>
