<svg width="30" height="30" viewBox="0 0 30 30" fill="none" xmlns="http://www.w3.org/2000/svg">
<g clip-path="url(#clip0_205_6473)">
<path d="M8.63535 7.22648C8.44909 6.36222 7.70022 5.7341 6.81651 5.70135C5.93281 5.66835 5.13942 6.23915 4.88945 7.08755C4.63974 7.93595 4.99716 8.8455 5.75755 9.29707C6.51794 9.74839 7.48786 9.62661 8.1129 9.00105C8.57855 8.53745 8.77556 7.8684 8.63535 7.22648ZM7.46432 8.35247C7.2228 8.59962 6.87024 8.70376 6.53303 8.62751C6.15105 8.54078 5.85273 8.24246 5.76599 7.86047C5.70229 7.56164 5.77597 7.25027 5.96683 7.01182C6.1577 6.77337 6.44553 6.63342 6.75076 6.63009C6.82521 6.63009 6.89941 6.63828 6.97207 6.65414C7.35405 6.74087 7.65237 7.03894 7.73936 7.42092C7.81561 7.75813 7.71148 8.11069 7.46432 8.35247Z" fill="white"/>
<path d="M18.2309 19.8389C18.4842 19.8389 18.6894 19.6334 18.6894 19.3804V17.3845C18.6894 17.1312 18.4842 16.926 18.2309 16.926C17.9779 16.926 17.7725 17.1312 17.7725 17.3845V19.3804C17.7725 19.6334 17.9779 19.8389 18.2309 19.8389Z" fill="white"/>
<path d="M6.33805 20.2651C6.97972 20.4035 7.648 20.2068 8.11237 19.7424C8.57648 19.278 8.77348 18.6098 8.63481 17.9681C8.42911 17.0327 7.56817 16.3903 6.61308 16.4593C5.658 16.5284 4.89812 17.288 4.8293 18.2431C4.76022 19.1982 5.40266 20.0594 6.33805 20.2651ZM6.04024 17.6703C6.22726 17.4794 6.48311 17.3717 6.75022 17.3714C6.82467 17.3714 6.89887 17.3796 6.97153 17.3955C7.35377 17.4822 7.65209 17.7806 7.73882 18.1625C7.81097 18.4995 7.70761 18.8503 7.46379 19.0938C7.22022 19.3377 6.86945 19.441 6.53249 19.3689C6.15051 19.2821 5.85219 18.9836 5.76545 18.6016C5.68921 18.2646 5.79334 17.9123 6.04024 17.6705V17.6703Z" fill="white"/>
<path d="M16.2661 19.8389C16.5194 19.8389 16.7246 19.6334 16.7246 19.3804V17.3845C16.7246 17.1312 16.5194 16.926 16.2661 16.926C16.0131 16.926 15.8076 17.1312 15.8076 17.3845V19.3804C15.8076 19.6334 16.0131 19.8389 16.2661 19.8389Z" fill="white"/>
<path d="M20.1958 19.8389C20.4491 19.8389 20.6543 19.6334 20.6543 19.3804V17.3845C20.6543 17.1312 20.4491 16.926 20.1958 16.926C19.9428 16.926 19.7373 17.1312 19.7373 17.3845V19.3804C19.7373 19.6334 19.9428 19.8389 20.1958 19.8389Z" fill="white"/>
<path d="M29.0219 5.46956L27.947 5.36518C27.8242 4.92767 27.6472 4.50705 27.4202 4.1133L28.1034 3.28998C28.254 3.10858 28.2425 2.84249 28.0765 2.67466L26.7612 1.34577C26.5941 1.17691 26.3257 1.16386 26.143 1.31533L25.3166 2.00049C24.9221 1.77458 24.5018 1.59702 24.0648 1.47216L23.9606 0.406034C23.9371 0.172699 23.7388 -0.00358169 23.5044 2.15325e-07H21.6178C21.3832 -0.00358169 21.1849 0.172699 21.1614 0.406034L21.0572 1.47574C20.619 1.59778 20.1978 1.77406 19.8033 2.00049L18.9792 1.3166C18.7973 1.1654 18.5302 1.17768 18.3629 1.34449L17.0312 2.67312C16.8633 2.83687 16.8508 3.10244 17.002 3.28179L17.0578 3.34063H3.76024C2.66572 3.34038 1.79148 4.24762 1.79148 5.34215V9.93926C1.78866 10.4635 1.99462 10.9673 2.36407 11.339C2.73352 11.711 3.23601 11.9203 3.76024 11.9206H12.2711V14.082H3.76024C2.66572 14.082 1.79148 14.9892 1.79148 16.0838V20.6809C1.78866 21.2051 1.99462 21.7089 2.36407 22.0806C2.73352 22.4526 3.23601 22.6619 3.76024 22.6622H12.2711V24.9436C11.228 25.127 10.4106 25.9424 10.2248 26.985H3.9749C3.7454 26.1543 2.93717 25.6208 2.08315 25.7365C1.22886 25.8524 0.591797 26.5815 0.591797 27.4435C0.591797 28.3055 1.22886 29.0349 2.08315 29.1505C2.93717 29.2662 3.7454 28.733 3.9749 27.902H10.2248C10.4459 29.117 11.5043 30 12.739 30C13.974 30 15.0325 29.117 15.2535 27.902H21.5034C21.7327 28.7268 22.5358 29.2554 23.3839 29.1398C24.2323 29.0239 24.8645 28.2996 24.8645 27.4435C24.8645 26.5874 24.2323 25.8631 23.3839 25.7475C22.5358 25.6318 21.7327 26.1604 21.5034 26.985H15.2535C15.0594 25.9399 14.2355 25.1255 13.1881 24.9436V22.6622H21.7181C22.8126 22.6622 23.7332 21.7754 23.7332 20.6809V16.0838C23.7332 14.9892 22.8126 14.082 21.7181 14.082H13.1881V11.9206H17.8947L18.3629 12.3898C18.53 12.5571 18.7968 12.5699 18.9792 12.4192L19.8056 11.7346C20.1999 11.9605 20.6203 12.138 21.0575 12.2631L21.1614 13.3387C21.1841 13.5739 21.3814 13.7537 21.6178 13.7545H23.5039C23.7403 13.754 23.9379 13.5741 23.9604 13.3387L24.0645 12.2647C24.5028 12.1419 24.9242 11.9648 25.3187 11.7376L26.1425 12.4205C26.3247 12.5714 26.5918 12.5592 26.7591 12.3921L28.0908 11.0632C28.2584 10.8959 28.2712 10.6283 28.1197 10.4458L27.4356 9.62073C27.6612 9.22647 27.8388 8.80687 27.9639 8.37013L29.0221 8.26626C29.2562 8.24298 29.4338 8.04495 29.4315 7.80957V5.92574C29.4338 5.69062 29.256 5.49259 29.0219 5.46956ZM2.32032 28.2581C1.87847 28.2581 1.52002 27.8999 1.52002 27.4578C1.52002 27.016 1.87847 26.6575 2.32032 26.6575C2.76217 26.6575 3.12062 27.016 3.12062 27.4578C3.12011 27.8997 2.76217 28.2576 2.32032 28.2581ZM23.158 26.6575C23.5999 26.6575 23.9583 27.0157 23.9583 27.4578C23.9583 27.8997 23.6001 28.2581 23.158 28.2581C22.7162 28.2581 22.3577 27.8999 22.3577 27.4578C22.3582 27.0162 22.7162 26.658 23.158 26.6575ZM14.3785 27.4578C14.3785 28.3633 13.6445 29.0973 12.739 29.0973C11.8338 29.0973 11.0998 28.3633 11.0998 27.4578C11.0998 26.5524 11.8338 25.8186 12.739 25.8186C13.1753 25.8137 13.5951 25.9849 13.9037 26.2935C14.212 26.602 14.3834 27.0216 14.3785 27.4578ZM22.8162 20.677C22.8162 21.267 22.338 21.7452 21.748 21.7452H3.77687C3.18688 21.7452 2.70844 21.267 2.70844 20.677V16.0671C2.70844 15.4771 3.18688 14.999 3.77687 14.999H21.748C22.338 14.999 22.8162 15.4771 22.8162 16.0671V20.677ZM2.70844 9.93926V5.34215C2.70844 4.75318 3.17128 4.25735 3.76024 4.25735H17.5989C17.4216 4.61093 17.274 4.97884 17.1578 5.35673L16.0853 5.46547C15.851 5.49054 15.6739 5.69011 15.677 5.92574V7.80957C15.6744 8.04444 15.8515 8.24272 16.0853 8.266L17.1596 8.37013C17.2822 8.80789 17.4592 9.22851 17.6862 9.62226L17.0028 10.4435C16.8672 10.6073 16.8628 10.8726 16.9844 11.0036H3.76024C3.47906 11.0036 3.20965 10.891 3.01214 10.691C2.81462 10.4911 2.70537 10.2204 2.70844 9.93926ZM28.5145 7.39381L27.5499 7.48873C27.3532 7.50818 27.1915 7.65222 27.1495 7.84539C27.0252 8.40288 26.8013 8.93301 26.4889 9.41093C26.3794 9.57928 26.3922 9.79931 26.5207 9.95385L27.1472 10.7091L26.4071 11.448L25.651 10.8212C25.4955 10.6922 25.2742 10.6802 25.1056 10.7918C24.6304 11.1065 24.1006 11.329 23.5433 11.4483C23.3479 11.491 23.2023 11.6547 23.1831 11.8538L23.0882 12.8375H22.0341L21.9386 11.8538C21.9195 11.655 21.7739 11.4913 21.5784 11.449C21.0207 11.3255 20.4898 11.1018 20.0118 10.7887C19.8437 10.6807 19.6252 10.694 19.4715 10.8214L18.7154 11.4483L17.9753 10.7094L18.6016 9.95385C18.7308 9.79803 18.7426 9.57596 18.6305 9.40735C18.3153 8.93326 18.0917 8.40416 17.9712 7.84769C17.9315 7.65375 17.7703 7.50843 17.5736 7.48899L16.5939 7.3933V6.34201L17.5731 6.24684C17.7698 6.22765 17.9315 6.08335 17.9732 5.88992C18.0976 5.33268 18.3212 4.80231 18.6338 4.32463C18.7431 4.15603 18.7303 3.936 18.6019 3.78172L18.4476 3.59597C18.4192 3.54404 18.3811 3.49798 18.3353 3.46063L17.975 3.02619L18.7152 2.2873L19.4712 2.91464C19.6268 3.04359 19.8484 3.05562 20.0167 2.94407C20.4918 2.62937 21.0217 2.40653 21.5789 2.2873C21.7731 2.24918 21.9192 2.08825 21.9392 1.8915L22.0341 0.916967H23.0882L23.1831 1.89124C23.2025 2.08927 23.3489 2.25148 23.5438 2.29139C24.1016 2.41395 24.6322 2.63705 25.1104 2.94918C25.2785 3.0569 25.4973 3.04334 25.6508 2.91541L26.4048 2.2896L27.1329 3.02466L26.5048 3.78198C26.3759 3.93779 26.3641 4.15987 26.4761 4.32847C26.7914 4.80256 27.015 5.33166 27.1352 5.88839C27.1754 6.08232 27.3371 6.22765 27.5343 6.24709L28.5145 6.34201V7.39381Z" fill="white"/>
<path d="M22.5534 3.03872C20.4393 3.04153 18.7277 4.75701 18.7295 6.8711C18.7313 8.98519 20.446 10.6976 22.5601 10.6968C24.6742 10.6958 26.3876 8.98186 26.3876 6.86777C26.3838 4.75266 24.6685 3.03974 22.5534 3.03872ZM22.5534 9.77986C20.9459 9.77704 19.6447 8.47195 19.6465 6.86444C19.6483 5.25668 20.9526 3.95466 22.5601 3.95569C24.1678 3.95645 25.4706 5.26001 25.4706 6.86777C25.4673 8.47656 24.1625 9.77934 22.5534 9.77986Z" fill="white"/>
</g>
<defs>
<clipPath id="clip0_205_6473">
<rect width="30" height="30" fill="white"/>
</clipPath>
</defs>
</svg>
