<svg width="31" height="31" viewBox="0 0 31 31" fill="none" xmlns="http://www.w3.org/2000/svg">
<g clip-path="url(#clip0_209_10492)">
<path d="M21.2196 17.9217L17.0367 14.7846V8.39421C17.0367 7.75167 16.5173 7.2323 15.8748 7.2323C15.2323 7.2323 14.7129 7.75167 14.7129 8.39421V15.3656C14.7129 15.7316 14.8849 16.0767 15.1777 16.2951L19.8252 19.7808C20.0343 19.9377 20.2784 20.0132 20.5212 20.0132C20.8755 20.0132 21.2241 19.854 21.4519 19.5472C21.8377 19.0348 21.7331 18.3063 21.2196 17.9217Z" fill="white"/>
<path d="M15.875 0.272583C7.6035 0.272583 0.875 7.00108 0.875 15.2726C0.875 23.5441 7.6035 30.2726 15.875 30.2726C24.1465 30.2726 30.875 23.5441 30.875 15.2726C30.875 7.00108 24.1465 0.272583 15.875 0.272583ZM15.875 27.9488C8.88623 27.9488 3.19877 22.2614 3.19877 15.2726C3.19877 8.28381 8.88623 2.59635 15.875 2.59635C22.8649 2.59635 28.5512 8.28381 28.5512 15.2726C28.5512 22.2614 22.8638 27.9488 15.875 27.9488Z" fill="white"/>
</g>
<defs>
<clipPath id="clip0_209_10492">
<rect width="30" height="30" fill="white" transform="translate(0.875 0.272583)"/>
</clipPath>
</defs>
</svg>
