<svg width="81" height="81" viewBox="0 0 81 81" fill="none" xmlns="http://www.w3.org/2000/svg">
<g clip-path="url(#clip0_112_384)">
<path d="M40.0823 35.2685C38.2182 35.2685 36.6226 36.6048 36.2958 38.4404C35.969 40.2753 37.0051 42.081 38.7544 42.7242V45.9135C38.7544 46.5554 39.2744 47.0754 39.9163 47.0754C40.5582 47.0754 41.0782 46.5554 41.0782 45.9135V42.8292C42.9423 42.3293 44.147 40.5255 43.8947 38.6122C43.6432 36.6995 42.0119 35.2691 40.0823 35.2685ZM40.0823 40.637C39.2413 40.637 38.5599 39.9556 38.5599 39.1147C38.5599 38.2737 39.2413 37.5923 40.0823 37.5923C40.9232 37.5923 41.6047 38.2737 41.6047 39.1147C41.604 39.955 40.9226 40.6364 40.0823 40.637Z" fill="url(#paint0_linear_112_384)"/>
<path d="M8.72444 36.9504C8.55197 36.1956 8.15776 35.5097 7.59367 34.9799C5.87871 33.2818 3.11274 33.2903 1.40881 35C-0.295124 36.7092 -0.295124 39.4751 1.40881 41.1849C3.11274 42.894 5.87871 42.9031 7.59367 41.2043C8.12404 40.6643 8.51242 40.001 8.72444 39.2741H21.8242V45.5815H14.7576C14.1157 45.5815 13.525 46.0574 13.525 46.6987V53.7148H9.45256C9.23925 52.9944 8.85087 52.3383 8.3218 51.8053C7.05811 50.5202 5.14346 50.1267 3.47648 50.8094C1.80886 51.4915 0.718937 53.1144 0.718937 54.9162C0.718937 56.718 1.80886 58.3409 3.47648 59.0237C5.14346 59.7064 7.05811 59.3129 8.3218 58.0278C8.88653 57.4909 9.2801 56.7984 9.45256 56.0386H14.7576C15.0493 56.0541 15.3346 55.9458 15.5428 55.7396C15.7502 55.5341 15.8618 55.2501 15.8488 54.9577V47.9053H21.8242V53.008C21.8353 53.6642 22.3604 54.1952 23.0166 54.2127H30.7874V60.0222H23.7616C23.4627 60.0163 23.1748 60.1337 22.9654 60.347C22.7553 60.5597 22.6431 60.8502 22.6542 61.1484V66.4534C21.8975 66.6259 21.2096 67.0195 20.6766 67.5842C18.9668 69.3017 18.9707 72.0787 20.6857 73.7911C22.4 75.5035 25.1776 75.5035 26.8926 73.7911C28.6069 72.0787 28.6108 69.3017 26.901 67.5842C26.3635 67.0545 25.7028 66.6661 24.9779 66.4534V62.346H32.0199C32.6618 62.346 33.1112 61.7903 33.1112 61.1484V54.2127H39.4186V67.1783C38.6969 67.3955 38.0395 67.7845 37.5013 68.3123C36.235 69.5721 35.8531 71.4712 36.5346 73.1226C37.216 74.774 38.826 75.8516 40.6122 75.8516C42.3992 75.8516 44.0091 74.774 44.6905 73.1226C45.372 71.4712 44.9901 69.5721 43.7238 68.3123C43.1876 67.7495 42.499 67.3553 41.7424 67.1783V54.2127H47.2198V61.1484C47.1997 61.7896 47.7035 62.3259 48.3454 62.346H55.0211V66.4534C54.2969 66.6661 53.6362 67.0545 53.098 67.5842C51.8207 68.8466 51.4323 70.7547 52.1144 72.4159C52.7965 74.077 54.4142 75.1611 56.2102 75.1611C58.0056 75.1611 59.6233 74.077 60.3054 72.4159C60.9875 70.7547 60.5991 68.8466 59.3218 67.5842C58.7895 67.0195 58.1015 66.6259 57.3449 66.4534V61.1484C57.3559 60.8502 57.2437 60.5597 57.0343 60.347C56.8249 60.1337 56.5364 60.0163 56.2381 60.0222H49.5436V54.2127H56.9824C57.6386 54.1952 58.1638 53.6642 58.1748 53.008V47.9053H64.3162V54.9577C64.3033 55.2501 64.4148 55.5341 64.6223 55.7396C64.8304 55.9458 65.1157 56.0541 65.4081 56.0386H70.7131C70.8849 56.7991 71.2785 57.4916 71.8432 58.0291C72.6641 58.8603 73.7819 59.331 74.9496 59.3362C76.1173 59.342 77.2397 58.8823 78.0676 58.0595C78.893 57.2355 79.3572 56.1177 79.3572 54.9512C79.3572 53.7848 78.893 52.667 78.0676 51.8429C76.3585 50.1163 73.5744 50.0988 71.8432 51.804C71.3141 52.337 70.9258 52.9938 70.7131 53.7148H66.64V46.6987C66.64 46.0574 66.0493 45.5815 65.4081 45.5815H58.1748V39.2741H71.4406C71.6526 40.001 72.0416 40.6643 72.5713 41.2043C73.8324 42.4765 75.7367 42.8616 77.3933 42.1795C79.0499 41.4974 80.1308 39.8836 80.1308 38.0921C80.1308 36.3007 79.0499 34.6869 77.3933 34.0048C75.7367 33.3227 73.8324 33.7078 72.5713 34.9799C72.0073 35.5097 71.613 36.1956 71.4406 36.9504H58.1748V31.4729H65.4081C66.0493 31.4729 66.64 31.0158 66.64 30.3739V23.6716H70.7131C70.9251 24.4004 71.3135 25.065 71.8432 25.6077C73.5634 27.331 76.3546 27.333 78.0767 25.6115C79.7988 23.8908 79.7988 21.0995 78.0767 19.3787C76.3546 17.6579 73.5634 17.6599 71.8432 19.3832C71.3122 19.9363 70.9238 20.6106 70.7131 21.3478H65.4081C65.1098 21.3439 64.8232 21.4639 64.6164 21.6785C64.4102 21.8931 64.3013 22.1836 64.3162 22.4812V29.1491H58.1748V24.8737C58.1638 24.2182 57.6379 23.6878 56.9824 23.6716H52.1994V18.0573C52.1994 11.2494 46.74 5.71094 39.9995 5.71094C33.259 5.71094 27.7997 11.2494 27.7997 18.0573V23.6716H23.0166C22.3611 23.6878 21.8353 24.2182 21.8242 24.8737V29.1491H15.8488V22.4812C15.8637 22.1836 15.7554 21.8931 15.5486 21.6785C15.3418 21.4639 15.0552 21.3439 14.7576 21.3478H9.45256C9.24119 20.6106 8.85282 19.9363 8.3218 19.3832C6.60554 17.68 3.83503 17.6864 2.12721 19.3982C0.419387 21.1099 0.419387 23.881 2.12721 25.5927C3.83503 27.3045 6.60554 27.3109 8.3218 25.6077C8.85217 25.065 9.24055 24.4004 9.45256 23.6716H13.525V30.3739C13.525 31.0158 14.1157 31.4729 14.7576 31.4729H21.8242V36.9504H8.72444ZM5.95068 39.5413C5.13957 40.353 3.82401 40.353 3.01224 39.5413C2.20112 38.7301 2.20112 37.4146 3.01224 36.6035C3.82401 35.7924 5.13957 35.7924 5.95068 36.6035C6.76051 37.4152 6.76051 38.7295 5.95068 39.5413ZM6.67816 56.4263C5.86704 57.2367 4.55279 57.2367 3.74232 56.4256C2.93184 55.6145 2.93184 54.3003 3.74232 53.4898C4.55279 52.6787 5.86704 52.678 6.67816 53.4885C7.48863 54.3003 7.48863 55.6145 6.67816 56.4263ZM25.2302 72.1656C24.419 72.9754 23.1048 72.9754 22.2943 72.1643C21.4838 71.3538 21.4838 70.0389 22.2943 69.2285C23.1048 68.4174 24.419 68.4174 25.2302 69.2272C25.6231 69.6155 25.8442 70.1446 25.8442 70.6964C25.8442 71.2482 25.6231 71.7772 25.2302 72.1656ZM42.1158 72.8931C41.304 73.7049 39.9891 73.7049 39.1774 72.8931C38.3663 72.082 38.3663 70.7664 39.1774 69.9553C39.9891 69.1442 41.304 69.1442 42.1158 69.9553C42.9256 70.7671 42.9256 72.0813 42.1158 72.8931ZM58.3155 70.6964C58.3155 71.6865 57.6159 72.5384 56.6446 72.7316C55.6734 72.9249 54.7008 72.4049 54.3221 71.49C53.9428 70.5751 54.2631 69.5202 55.0859 68.9698C55.9094 68.4199 57.0064 68.5276 57.7073 69.2272C58.0976 69.6162 58.3168 70.1453 58.3155 70.6964ZM73.4868 53.4885C74.298 52.6774 75.6135 52.6774 76.4246 53.4885C77.2358 54.2996 77.2358 55.6152 76.4246 56.4263C75.6135 57.238 74.298 57.238 73.4868 56.4263C73.0952 56.0379 72.8754 55.5088 72.8754 54.9577C72.8754 54.4059 73.0952 53.8775 73.4868 53.4885ZM74.2143 36.6035C75.0254 35.7924 76.341 35.7924 77.1521 36.6035C77.9639 37.4146 77.9639 38.7301 77.1521 39.5413C76.341 40.353 75.0254 40.353 74.2143 39.5413C73.8214 39.1535 73.6003 38.6245 73.6003 38.0727C73.6003 37.5203 73.8214 36.9912 74.2143 36.6035ZM73.4868 21.012C74.298 20.2008 75.6135 20.2008 76.4246 21.012C77.2358 21.8237 77.2358 23.1386 76.4246 23.9504C75.6135 24.7615 74.298 24.7615 73.4868 23.9504C73.0952 23.5614 72.8754 23.033 72.8754 22.4812C72.8754 21.9294 73.0952 21.401 73.4868 21.012ZM6.67816 23.9504C5.8664 24.7615 4.55149 24.7615 3.73972 23.9504C2.9286 23.1386 2.9286 21.8237 3.73972 21.012C4.55149 20.2008 5.8664 20.2008 6.67816 21.012C7.48798 21.8237 7.48798 23.138 6.67816 23.9504ZM30.1234 18.0573C30.1234 12.5299 34.5408 8.03472 39.9995 8.03472C45.4582 8.03472 49.8756 12.5306 49.8756 18.0573V23.6716H30.1234V18.0573ZM24.148 25.9954H55.851V51.8889H24.148V25.9954Z" fill="url(#paint1_linear_112_384)"/>
</g>
<defs>
<linearGradient id="paint0_linear_112_384" x1="36.3147" y1="41.0818" x2="43.8492" y2="41.0948" gradientUnits="userSpaceOnUse">
<stop stop-color="#4D51AB"/>
<stop offset="1" stop-color="#55CEE3"/>
</linearGradient>
<linearGradient id="paint1_linear_112_384" x1="0.951529" y1="40.2457" x2="79.31" y2="40.4828" gradientUnits="userSpaceOnUse">
<stop stop-color="#4D51AB"/>
<stop offset="1" stop-color="#55CEE3"/>
</linearGradient>
<clipPath id="clip0_112_384">
<rect width="80" height="80" fill="white" transform="translate(0.130859 0.735596)"/>
</clipPath>
</defs>
</svg>
