<svg width="30" height="30" viewBox="0 0 30 30" fill="none" xmlns="http://www.w3.org/2000/svg">
<g clip-path="url(#clip0_205_6406)">
<path d="M5.02364 14.7321C4.62737 14.7323 4.25416 14.9177 4.01414 15.233C3.68306 14.7989 3.11219 14.6243 2.59497 14.7989C2.07776 14.9737 1.72949 15.4587 1.72949 16.0046C1.72949 16.5506 2.07776 17.0358 2.59497 17.2104C3.11219 17.385 3.68306 17.2104 4.01414 16.7765C4.37653 17.2504 5.01987 17.4087 5.56086 17.1572C6.10208 16.9054 6.39528 16.3115 6.26632 15.7288C6.13714 15.1462 5.62039 14.7316 5.02364 14.7321ZM3.00442 16.4338C2.76746 16.4338 2.57544 16.2414 2.57544 16.0044C2.57568 15.7674 2.76793 15.5752 3.00489 15.5754C3.24208 15.5754 3.4341 15.7677 3.4341 16.0046C3.43386 16.2418 3.24161 16.4338 3.00442 16.4338ZM5.02364 16.4338C4.78668 16.4338 4.59443 16.2416 4.59443 16.0046C4.59443 15.7674 4.78668 15.5754 5.02364 15.5754C5.26083 15.5754 5.45308 15.7674 5.45308 16.0046C5.45261 16.2416 5.2606 16.4336 5.02364 16.4338Z" fill="white"/>
<path d="M30 9.55368C30 5.08485 26.3637 1.44621 21.8947 1.44621C18.7114 1.44621 15.9507 3.3146 14.6259 5.96516H4.454C3.87537 5.96822 3.32191 6.20141 2.91553 6.61345C2.50938 7.02524 2.28395 7.58223 2.28912 8.16063V8.91692H1.57636C1.16056 8.91316 0.760296 9.07529 0.464508 9.36755C0.168484 9.65981 0.00141188 10.058 0 10.4738V17.1832C0.00164719 17.5986 0.168955 17.9962 0.464743 18.2878C0.760766 18.5793 1.1608 18.7408 1.57636 18.7361H2.28912V22.3102C2.28912 23.5178 3.24661 24.5191 4.454 24.5191H10.8432V27.7118H8.86612C8.63316 27.7118 8.44444 27.9006 8.44444 28.1335C8.44444 28.3665 8.63316 28.5552 8.86612 28.5552H21.7688C22.0018 28.5552 22.1905 28.3665 22.1905 28.1335C22.1905 27.9006 22.0018 27.7118 21.7688 27.7118H19.7587V24.5191H26.1809C27.3883 24.5191 28.3731 23.5178 28.3731 22.3102V14.4204C29.432 13.0194 30.0033 11.3101 30 9.55368ZM21.8942 2.2924C25.9044 2.2924 29.1553 5.54348 29.1553 9.55368C29.1553 13.5639 25.9044 16.815 21.8942 16.815C17.8838 16.815 14.6329 13.5639 14.6329 9.55368C14.6374 5.54536 17.8857 2.2971 21.8942 2.2924ZM1.57636 9.76029H12.1913C12.5949 9.76029 12.9516 10.07 12.9516 10.4738V10.9048H0.843361V10.4738C0.844538 10.2815 0.922662 10.0977 1.06055 9.9636C1.19821 9.82947 1.38411 9.75628 1.57636 9.76029ZM0.843361 11.7482H12.9516V13.0735H0.843361V11.7482ZM0.843361 17.1832V13.9169H12.9516V17.1832C12.9516 17.5868 12.5951 17.8927 12.1913 17.8927H1.57636C1.38458 17.8976 1.19868 17.8252 1.06103 17.6917C0.923132 17.5583 0.844773 17.375 0.843361 17.1832ZM18.9154 27.7118H11.6866V24.5191H18.9154V27.7118ZM27.5297 22.3102C27.5293 23.0578 26.9283 23.6661 26.1809 23.6757H4.454C3.71159 23.6757 3.13248 23.0526 3.13248 22.3102V20.5433H27.5297V22.3102ZM3.13248 19.6999V18.7361H12.1913C13.0601 18.7361 13.795 18.052 13.795 17.1832V10.4738C13.795 9.60498 13.0601 8.91692 12.1913 8.91692H3.13248V8.16063C3.12707 7.80578 3.26355 7.4634 3.51157 7.20949C3.75983 6.95559 4.09915 6.81135 4.454 6.80852H14.2665C13.9491 7.68789 13.7877 8.61596 13.7896 9.55086C13.7896 14.0197 17.4266 17.6569 21.8954 17.6569C23.9996 17.6614 26.0218 16.8423 27.5297 15.3746V19.6999H3.13248Z" fill="white"/>
<path d="M17.8917 9.01867V10.2988C17.8324 10.3355 17.7835 10.3872 17.75 10.4484C17.6658 10.5863 17.6677 10.76 17.7548 10.896L17.8917 11.1125V13.2178C17.895 13.6261 18.1077 14.0042 18.4548 14.2188L21.3193 16.0246C21.7075 16.2672 22.2 16.2672 22.5881 16.0246L25.4598 14.2193C25.8072 14.0045 26.0204 13.6263 26.0241 13.2178V11.1125L26.1547 10.896C26.2453 10.7623 26.2517 10.5884 26.1712 10.4484C26.1357 10.3868 26.0851 10.3352 26.0241 10.2985V9.03091C26.8675 8.61817 27.0882 8.13436 27.0882 7.77504C27.0882 6.99992 26.1804 6.38881 24.5428 6.05326L24.4621 5.60357C24.3301 4.74021 23.7595 4.00698 22.9547 3.66742C22.3123 3.39658 21.5875 3.39728 20.9458 3.66977C20.1493 4.01568 19.5836 4.74327 19.4452 5.60052L19.3681 6.04573C19.3577 6.04808 19.3476 6.04996 19.337 6.05255C17.7258 6.39023 16.8271 6.9978 16.8271 7.76375C16.8269 8.28261 17.2291 8.70217 17.8917 9.01867ZM21.9636 9.73402C23.1444 9.73402 24.2772 9.59448 25.1808 9.33964V10.2943L22.6276 10.5096C22.1789 10.2204 21.7421 10.2204 21.2934 10.5096L18.7351 10.2943V9.33234C19.6989 9.59825 20.8235 9.73402 21.9636 9.73402ZM24.96 11.1577L24.259 12.2208L23.3912 11.2901L24.96 11.1577ZM20.5232 11.2901L19.6549 12.2208L18.9541 11.1577L20.5232 11.2901ZM25.1808 13.2178C25.1763 13.3367 25.1118 13.4451 25.0099 13.5061L22.145 15.3114C22.0327 15.3813 21.8906 15.3813 21.7784 15.3114L18.9066 13.5059C18.8045 13.4451 18.7398 13.3369 18.7351 13.2178V12.3921L19.2344 13.1324C19.3078 13.2407 19.4264 13.3098 19.5568 13.3204C19.5688 13.3214 19.5831 13.3218 19.5949 13.3218C19.7123 13.3218 19.8243 13.2734 19.9048 13.1879L21.7306 11.2316C21.908 11.104 22.0052 11.104 22.1824 11.2316L24.0077 13.1879C24.0875 13.2734 24.199 13.3218 24.316 13.3218C24.328 13.3218 24.3395 13.3214 24.3515 13.3204C24.4838 13.3098 24.6042 13.2409 24.6802 13.1324L25.1808 12.3921V13.2178ZM20.2766 5.73817C20.3575 5.22025 20.6736 4.76892 21.1327 4.51572C21.5918 4.26253 22.1422 4.23594 22.6236 4.44372C23.1604 4.67079 23.5402 5.16095 23.6265 5.73723C23.627 5.73959 23.6272 5.7417 23.6277 5.74406L23.8246 6.88297L23.4837 6.9891C22.4867 7.31477 21.4117 7.3143 20.415 6.98768L20.0785 6.88297L20.2766 5.73817ZM19.2116 6.94627L19.1845 7.10369C19.1483 7.31218 19.2725 7.51526 19.4747 7.57808L20.1587 7.79128C20.7364 7.98023 21.3402 8.07671 21.948 8.07695C22.5558 8.07648 23.1601 7.98071 23.7385 7.79293L24.428 7.57808C24.6301 7.51526 24.7541 7.31218 24.7181 7.10369L24.692 6.95309C25.8469 7.23806 26.2324 7.62091 26.2324 7.77528C26.2324 8.10895 24.7798 8.8909 21.9624 8.8909C19.1377 8.8909 17.6813 8.10095 17.6813 7.76375C17.6816 7.61785 18.0748 7.23053 19.2116 6.94627Z" fill="white"/>
</g>
<defs>
<clipPath id="clip0_205_6406">
<rect width="30" height="30" fill="white"/>
</clipPath>
</defs>
</svg>
