<svg width="30" height="31" viewBox="0 0 30 31" fill="none" xmlns="http://www.w3.org/2000/svg">
<g clip-path="url(#clip0_199_798)">
<path d="M12.4485 18.4779L14.6659 19.9901C14.7423 20.1014 14.8684 20.1686 15.0034 20.1697H15.0039C15.0715 20.1695 15.1382 20.1519 15.197 20.1186C15.2215 20.1082 15.2449 20.0957 15.2669 20.0811L17.6176 18.4779C18.3784 17.959 18.9743 16.8323 18.9743 15.9122V12.6132C18.9743 12.4549 18.8842 12.3104 18.7421 12.2407L15.2159 10.5092C15.1981 10.5004 15.1796 10.4933 15.1608 10.4872C15.1085 10.4629 15.0518 10.4502 14.9942 10.4502H14.9937C14.8805 10.4514 14.7731 10.5 14.6974 10.584L11.3245 12.2358C11.1823 12.3055 11.092 12.4498 11.0918 12.6081V15.9122C11.0918 16.8323 11.6879 17.959 12.4485 18.4779ZM18.1446 15.9122C18.1446 16.5642 17.6892 17.4249 17.1502 17.7923L15.4176 18.974L15.4099 11.5283L18.1446 12.8716V15.9122ZM11.9215 12.8669L14.58 11.5652L14.5876 18.9323L12.9159 17.7923C12.3769 17.4247 11.9215 16.5639 11.9215 15.9122V12.8669Z" fill="white"/>
<path d="M21.6413 9.14631C21.6413 8.91712 21.4557 8.73145 21.2265 8.73145H8.83967C8.61071 8.73145 8.4248 8.91712 8.4248 9.14631V21.5331C8.4248 21.7621 8.61071 21.948 8.83967 21.948H21.2265C21.4557 21.948 21.6413 21.7621 21.6413 21.5331V9.14631ZM20.8116 21.059H9.25454V9.56118H20.8116V21.059Z" fill="white"/>
<path d="M26.9108 15.7248C27.1185 16.4834 27.8556 16.9714 28.6353 16.8668C29.4148 16.7619 29.9969 16.0966 29.9969 15.3099C29.9969 14.523 29.4148 13.8576 28.6353 13.7527C27.8556 13.6481 27.1185 14.1361 26.9108 14.895H24.5457V12.7614H25.6468C25.8841 12.7556 26.0762 12.5669 26.0866 12.3299V9.9166H26.652C26.7274 10.1796 26.8659 10.4204 27.0557 10.6178C27.669 11.23 28.6624 11.2293 29.275 10.6162C29.8876 10.0032 29.8876 9.01 29.275 8.39696C28.6624 7.78392 27.669 7.78322 27.0557 8.39534C26.8664 8.58911 26.7277 8.82664 26.652 9.08686H25.6468C25.4176 9.08686 25.2569 9.28226 25.2569 9.51169V11.9317H24.5457V7.99853C24.5457 6.78957 23.5537 5.82718 22.3445 5.82718H18.2634V5.05671H20.8019C21.0309 5.05671 21.2267 4.89604 21.2267 4.66685V3.66162C21.487 3.58592 21.7243 3.44724 21.918 3.25787C22.5334 2.6439 22.5341 1.64724 21.9199 1.03235C21.3055 0.417455 20.3088 0.417455 19.6944 1.03235C19.0799 1.64724 19.0806 2.6439 19.696 3.25787C19.8932 3.44748 20.134 3.58615 20.397 3.66162V4.22697H17.8529C17.6237 4.22697 17.4337 4.43765 17.4337 4.66685V5.82718H15.4186V3.40164C16.1791 3.19397 16.6685 2.45545 16.5636 1.6741C16.4588 0.892748 15.792 0.30957 15.0037 0.30957C14.2154 0.30957 13.5487 0.892748 13.4438 1.6741C13.3389 2.45545 13.8283 3.19397 14.5888 3.40164V5.82718H12.4552V4.66685C12.4494 4.42955 12.261 4.23739 12.0239 4.22697H9.61042V3.66162C9.87365 3.58615 10.1144 3.44748 10.3119 3.25787C10.8159 2.75595 10.9194 1.97807 10.5645 1.36179C10.2096 0.745506 9.48471 0.444773 8.79758 0.628593C8.11069 0.812645 7.63308 1.43541 7.63354 2.14661C7.63076 2.5631 7.79467 2.96339 8.08916 3.25787C8.28293 3.44724 8.52046 3.58592 8.78068 3.66162V4.66685C8.78068 4.89604 8.97631 5.05671 9.20574 5.05671H11.6255V5.82718H7.72221C6.51303 5.82718 5.521 6.78934 5.521 7.99853V12.0502H4.75053V9.51169C4.75053 9.28249 4.58986 9.08686 4.3609 9.08686H3.35567C3.27997 8.82664 3.1413 8.58911 2.95192 8.39534C2.50186 7.94273 1.8233 7.80614 1.23318 8.04969C0.643055 8.29301 0.258052 8.86832 0.258052 9.50659C0.258052 10.1449 0.643055 10.7202 1.23318 10.9637C1.8233 11.207 2.50186 11.0707 2.95192 10.6178C3.14153 10.4206 3.2802 10.1796 3.35567 9.9166H3.92079V12.4607C3.92079 12.6896 4.1317 12.8799 4.3609 12.8799H5.521V14.895H3.09708C3.02531 14.6313 2.88571 14.3913 2.69216 14.1986C2.18978 13.6965 1.41329 13.5942 0.797937 13.9486C0.182348 14.3028 -0.118617 15.0261 0.0633509 15.7125C0.24555 16.3989 0.865538 16.8779 1.57558 16.8807C2.28586 16.8835 2.90955 16.4096 3.09708 15.7248H5.521V17.8584H4.3609C4.1236 17.8639 3.93121 18.0526 3.92079 18.2897V20.7032H3.35567C3.2802 20.44 3.14153 20.1992 2.95192 20.0017C2.33911 19.3933 1.34963 19.3958 0.740059 20.007C0.130258 20.6182 0.130258 21.6077 0.740059 22.2189C1.34963 22.8301 2.33911 22.8326 2.95192 22.2242C3.1413 22.0304 3.27997 21.7929 3.35567 21.5329H4.3609C4.58986 21.5329 4.75053 21.3373 4.75053 21.1079V18.6881H5.521V22.621C5.521 23.83 6.51303 24.7926 7.72221 24.7926H11.744V25.5631H9.20574C8.97654 25.5631 8.78068 25.7235 8.78068 25.9527V26.9579C8.52069 27.0336 8.28316 27.1723 8.08939 27.3617C7.47403 27.9756 7.47334 28.9725 8.08777 29.5874C8.70243 30.2023 9.69909 30.2023 10.3135 29.5874C10.9279 28.9725 10.9273 27.9756 10.3119 27.3617C10.1144 27.1718 9.87365 27.0334 9.61042 26.9579V26.3928H12.1545C12.3837 26.3928 12.5738 26.1819 12.5738 25.9527V24.7926H14.5888V27.2179C13.8286 27.4256 13.3391 28.1639 13.444 28.9452C13.5489 29.7263 14.2154 30.3095 15.0037 30.3095C15.792 30.3095 16.4588 29.7263 16.5634 28.9452C16.6683 28.1639 16.1791 27.4256 15.4186 27.2179V24.7926H17.5522V25.9527C17.558 26.19 17.7464 26.3822 17.9837 26.3928H20.397V26.9579C20.1338 27.0334 19.893 27.1721 19.6955 27.3617C19.192 27.8636 19.0883 28.6412 19.4432 29.2575C19.7981 29.8736 20.5227 30.1743 21.2096 29.9905C21.8965 29.8067 22.3741 29.1839 22.3736 28.4729C22.3767 28.0564 22.2125 27.6562 21.9183 27.3617C21.7245 27.1723 21.487 27.0336 21.2267 26.9579V25.9527C21.2267 25.7235 21.0311 25.5631 20.8019 25.5631H18.3819V24.7926H22.3445C23.5537 24.7926 24.5457 23.8302 24.5457 22.621V18.5696H25.2569V21.1079C25.2569 21.3371 25.4176 21.5329 25.6468 21.5329H26.652C26.7277 21.7929 26.8664 22.0304 27.0557 22.2242C27.5058 22.677 28.1846 22.8139 28.7749 22.5703C29.3653 22.327 29.7503 21.7515 29.7503 21.113C29.7503 20.4744 29.3653 19.8989 28.7749 19.6554C28.1846 19.412 27.5058 19.5486 27.0557 20.0017C26.8659 20.1992 26.7274 20.44 26.652 20.7032H26.0866V18.1589C26.0866 17.9299 25.8757 17.7398 25.6468 17.7398H24.5457V15.7248H26.9108ZM27.9024 14.7853C28.1524 14.535 28.5446 14.4964 28.8388 14.6931C29.1331 14.8897 29.2474 15.2668 29.112 15.5937C28.9766 15.9206 28.6291 16.1063 28.282 16.0373C27.935 15.9683 27.685 15.6636 27.685 15.3099C27.6847 15.1131 27.763 14.9242 27.9024 14.7853ZM27.6424 8.98708C27.8294 8.79794 28.1033 8.72339 28.3605 8.79169C28.6177 8.86021 28.8185 9.06093 28.8868 9.31814C28.9551 9.57512 28.8805 9.84923 28.6914 10.0363C28.4013 10.3231 27.9339 10.3217 27.6454 10.0333C27.3569 9.74459 27.3555 9.2774 27.6424 8.98708ZM20.2773 1.62224C20.5669 1.33262 21.0367 1.33262 21.3263 1.62224C21.6159 1.91186 21.6159 2.3816 21.3263 2.67122C21.0367 2.96084 20.5669 2.96084 20.2773 2.67122C19.9879 2.38137 19.9879 1.91209 20.2773 1.62224ZM14.2619 1.88686C14.2619 1.53288 14.512 1.22821 14.859 1.15922C15.206 1.09 15.5535 1.2759 15.689 1.60279C15.8244 1.92969 15.7101 2.30682 15.4158 2.50337C15.1215 2.70016 14.7296 2.66149 14.4793 2.41123C14.3397 2.27256 14.2615 2.08364 14.2619 1.88686ZM8.46397 2.14661C8.46397 1.79263 8.71377 1.48796 9.06104 1.41897C9.40808 1.34998 9.75558 1.53565 9.89101 1.86255C10.0264 2.18967 9.91208 2.56681 9.61783 2.76336C9.32358 2.95991 8.9314 2.92148 8.68113 2.67122C8.54153 2.53231 8.46328 2.3434 8.46397 2.14661ZM2.36504 10.0363C2.07542 10.3254 1.60614 10.3254 1.31675 10.0358C1.02736 9.74644 1.02736 9.27693 1.31675 8.98754C1.60614 8.69792 2.07542 8.69792 2.36504 8.98708C2.50556 9.12576 2.58451 9.31467 2.58451 9.51169C2.58451 9.70893 2.50556 9.89785 2.36504 10.0363ZM2.10528 15.8343C1.85502 16.0845 1.46284 16.1232 1.16859 15.9264C0.874567 15.7299 0.7602 15.353 0.895634 15.0258C1.03107 14.6989 1.37857 14.5133 1.7256 14.5822C2.07264 14.6512 2.32244 14.9559 2.32244 15.3099C2.32244 15.5064 2.24419 15.6951 2.10528 15.8343ZM2.36504 21.6325C2.17821 21.8216 1.9041 21.8962 1.64689 21.8279C1.38991 21.7593 1.18896 21.5586 1.12066 21.3014C1.05237 21.0444 1.12691 20.7703 1.31606 20.5833C1.60637 20.2964 2.07356 20.2978 2.36203 20.5863C2.65072 20.875 2.65188 21.3421 2.36504 21.6325ZM9.73034 28.9973C9.44072 29.2867 8.97122 29.2865 8.68183 28.9971C8.39244 28.7075 8.39244 28.2382 8.68183 27.9486C8.97122 27.6592 9.44072 27.6589 9.73034 27.9483C10.0195 28.2382 10.0195 28.7075 9.73034 28.9973ZM15.7459 28.7327C15.7457 29.0864 15.4959 29.3906 15.1491 29.4596C14.8023 29.5286 14.4553 29.343 14.3198 29.0163C14.1846 28.6896 14.2988 28.313 14.5928 28.1164C14.8866 27.9199 15.2785 27.9585 15.5285 28.2083C15.6679 28.3472 15.7462 28.5359 15.7455 28.7327H15.7459ZM21.5439 28.4729C21.5439 28.8269 21.2939 29.1316 20.9468 29.2006C20.5998 29.2696 20.2521 29.0839 20.1166 28.7568C19.9812 28.4299 20.0956 28.0527 20.3898 27.8562C20.6843 27.6594 21.0765 27.6981 21.3267 27.9483C21.4661 28.0872 21.5444 28.2761 21.5437 28.4729H21.5439ZM23.7159 22.659C23.7159 23.4116 23.1057 24.0221 22.3528 24.0221H7.71388C6.961 24.0221 6.35074 23.4116 6.35074 22.659V8.02006C6.35074 7.26718 6.961 6.65692 7.71388 6.65692H22.3528C23.1057 6.65692 23.7159 7.26718 23.7159 8.02006V22.659ZM27.6424 20.5833C27.932 20.2936 28.4017 20.2936 28.6914 20.5833C28.9812 20.8731 28.9812 21.3426 28.6914 21.6325C28.4017 21.9221 27.932 21.9221 27.6424 21.6325C27.5021 21.4938 27.4231 21.3049 27.4231 21.1079C27.4231 20.9106 27.5021 20.7217 27.6424 20.5833Z" fill="white"/>
</g>
<defs>
<clipPath id="clip0_199_798">
<rect width="30" height="30" fill="white" transform="translate(0 0.30957)"/>
</clipPath>
</defs>
</svg>
