<svg width="30" height="30" viewBox="0 0 30 30" fill="none" xmlns="http://www.w3.org/2000/svg">
<g clip-path="url(#clip0_205_6487)">
<path d="M4.57604 7.11609C2.99809 7.11988 1.7196 8.39718 1.71415 9.97514V24.9011H0.8653C0.630562 24.9011 0.439453 25.0619 0.439453 25.2966V27.1636C0.441113 27.9183 0.742952 28.6415 1.27834 29.1736C1.81373 29.7056 2.53857 30.003 3.29329 29.9999H26.7215C27.4764 30.003 28.2013 29.7056 28.7367 29.1736C29.2718 28.6415 29.5737 27.9183 29.5753 27.1636V25.2966C29.5753 25.0619 29.3842 24.9011 29.1495 24.9011H28.3006V9.97514C28.2954 8.39718 27.0167 7.11988 25.439 7.11609H18.3459V5.47719H20.9458C21.1805 5.48241 21.3752 5.29652 21.3809 5.06154V3.42621C21.6469 3.34701 21.8897 3.20475 22.0889 3.01151C22.7191 2.38269 22.7198 1.36194 22.0908 0.732183C21.4615 0.10266 20.4407 0.10266 19.8114 0.732183C19.1822 1.36194 19.1829 2.38269 19.8131 3.01151C20.0066 3.21708 20.2563 3.36124 20.5311 3.42621V4.6274H17.9255C17.6881 4.63143 17.4975 4.8242 17.4961 5.06154V7.11609H15.4323V3.15993C16.2093 2.94725 16.7089 2.19253 16.6017 1.39419C16.4943 0.595846 15.8131 -7.62939e-06 15.0074 -7.62939e-06C14.2019 -7.62939e-06 13.5205 0.595846 13.4133 1.39419C13.3059 2.19253 13.8057 2.94725 14.5825 3.15993V7.11609H12.3973V5.06154C12.3902 4.82183 12.1953 4.63048 11.9556 4.6274H9.48371V3.42621C9.75876 3.36124 10.0084 3.21708 10.2022 3.01151C10.8305 2.38341 10.8314 1.36502 10.2048 0.735265H10.2059C9.74595 0.275038 9.0536 0.137515 8.45229 0.386479C7.85098 0.63568 7.45904 1.22252 7.45928 1.87339C7.45644 2.29994 7.62431 2.7099 7.92567 3.01151C8.12508 3.20475 8.36812 3.34701 8.63392 3.42621V5.06154C8.63961 5.29652 8.83427 5.48241 9.06925 5.47719H11.5475V7.11609H4.57604ZM20.4085 1.33633C20.7051 1.03948 21.1862 1.03948 21.4831 1.3361C21.7797 1.63296 21.7797 2.11405 21.4831 2.41067C21.1862 2.70753 20.7051 2.70753 20.4085 2.41067C20.1123 2.11381 20.1123 1.63319 20.4085 1.33633ZM14.2477 1.60735C14.2477 1.26354 14.4786 0.962415 14.8108 0.873499C15.143 0.784347 15.4935 0.929457 15.6654 1.22727C15.8373 1.52507 15.7877 1.90136 15.5447 2.1444C15.3272 2.36159 15.0005 2.42656 14.7167 2.30895C14.4329 2.19135 14.2477 1.9144 14.2477 1.60735ZM8.30955 1.87339C8.30955 1.51085 8.56539 1.19881 8.92105 1.12815C9.27648 1.0575 9.63262 1.24766 9.77132 1.58269C9.91003 1.91749 9.7929 2.30374 9.49154 2.50528C9.18993 2.70658 8.78827 2.66699 8.53196 2.41067C8.38898 2.26841 8.30884 2.07516 8.30955 1.87339ZM28.7255 27.1636C28.7241 27.6931 28.5119 28.2002 28.1361 28.573C27.76 28.9457 27.2509 29.1534 26.7215 29.1501H3.29329C2.76383 29.1534 2.25499 28.9457 1.87894 28.573C1.50288 28.2002 1.29067 27.6931 1.28925 27.1636V25.7509H11.2592L11.626 26.1274C12.169 26.7069 12.9296 27.0325 13.7237 27.0256H16.2913C17.0854 27.0325 17.846 26.7069 18.389 26.1274L18.7556 25.7509H28.7255V27.1636ZM27.4508 9.97514V24.9011H18.5695C18.4526 24.8957 18.339 24.9402 18.257 25.0235L17.764 25.5441C17.383 25.9513 16.849 26.1803 16.2913 26.1758H13.7237C13.1651 26.1777 12.6311 25.946 12.2508 25.5368L11.7581 25.0201C11.6755 24.9379 11.562 24.8945 11.4455 24.9011H2.56394V9.97514C2.56869 8.86642 3.46733 7.9692 4.57604 7.96588H25.439C26.5477 7.9692 27.4461 8.86642 27.4508 9.97514Z" fill="white"/>
<path d="M25.9338 10.0904C25.9338 9.85587 25.7436 9.66548 25.5089 9.66548H4.56748C4.33298 9.66548 4.14258 9.85587 4.14258 10.0904V23.1408C4.14258 23.3756 4.33298 23.5657 4.56748 23.5657H25.5089C25.7436 23.5657 25.9338 23.3756 25.9338 23.1408V10.0904ZM4.99237 10.5153H25.0233V22.7766H4.99237V10.5153Z" fill="white"/>
<path d="M19.4562 13.0964L15.2186 11.0118C15.1532 10.9653 15.0752 10.9404 14.995 10.9402H14.9945C14.8938 10.9406 14.7968 10.9776 14.7214 11.0443L10.5568 13.0905C10.4143 13.1633 10.3268 13.312 10.3323 13.472V17.4789C10.3323 18.5715 11.0263 19.9097 11.9297 20.5255L14.7735 22.4698C14.8428 22.5179 14.9253 22.5438 15.0097 22.5438C15.0946 22.5438 15.1773 22.5179 15.2473 22.4698L18.0836 20.5255C18.987 19.9097 19.68 18.5713 19.68 17.4789V13.4779C19.6857 13.3181 19.5982 13.1697 19.4562 13.0964ZM11.1821 17.4789V13.7371L14.5843 12.0641L14.5872 21.3141L12.4117 19.8234C11.7397 19.3653 11.1821 18.2915 11.1821 17.4789ZM18.8302 17.4789C18.8302 18.2915 18.2761 19.3651 17.6041 19.8234L15.4237 21.3153L15.4038 12.0546L18.8302 13.7426V17.4789Z" fill="white"/>
</g>
<defs>
<clipPath id="clip0_205_6487">
<rect width="30" height="30" fill="white"/>
</clipPath>
</defs>
</svg>
