<svg width="81" height="81" viewBox="0 0 81 81" fill="none" xmlns="http://www.w3.org/2000/svg">
<g clip-path="url(#clip0_112_331)">
<path d="M47.5742 31.1613L47.3617 29.9298C47.0023 27.5673 45.441 25.5603 43.2395 24.6309C41.4818 23.8882 39.4979 23.8901 37.7421 24.6366C35.5625 25.5835 34.0148 27.575 33.6367 29.9208L33.4261 31.1401C33.3977 31.1459 33.3707 31.151 33.3411 31.1581C28.9309 32.0817 26.5117 33.7454 26.5117 35.8426C26.5117 37.2628 27.6524 38.4113 29.4662 39.2776V42.7821C29.2916 42.8813 29.1448 43.0217 29.0379 43.1917C28.8131 43.5724 28.8259 44.0484 29.0707 44.4161L29.4662 45.0087V50.7727C29.4597 51.8838 30.0272 52.9201 30.9669 53.5127L38.7869 58.4548C39.8445 59.1189 41.1881 59.1189 42.245 58.4548L50.0611 53.5127C51.0008 52.9201 51.5683 51.8838 51.5612 50.7727V45.0087L51.9612 44.4161C52.2027 44.0464 52.2117 43.5704 51.985 43.1917C51.88 43.0217 51.7345 42.8806 51.5612 42.7814V39.3111C54.0345 38.1813 54.5157 36.8577 54.5157 35.8735C54.5157 33.7525 52.0565 32.0792 47.5742 31.1613ZM35.9129 30.2982C36.1351 28.8806 37.0002 27.6446 38.2568 26.9515C39.5134 26.2585 41.0199 26.1857 42.3378 26.7551C43.8063 27.3766 44.8465 28.7176 45.0822 30.2957C45.0829 30.3015 45.0842 30.3079 45.0855 30.3137L45.6252 33.4318L44.6926 33.7229C41.9635 34.6143 39.0213 34.613 36.2929 33.719L35.3719 33.4318L35.9129 30.2982ZM40.5291 41.2356C43.7606 41.2356 46.7788 40.853 49.2521 40.1555V42.7692L42.3062 43.3579C41.0786 42.5663 39.9437 42.5663 38.716 43.3579L31.7746 42.7698V40.1361C34.2479 40.8646 37.4079 41.2362 40.5291 41.2362V41.2356ZM48.733 45.1311L46.8149 48.0417L44.4388 45.495L48.733 45.1311ZM36.5879 45.4944L34.2119 48.0411L32.2938 45.1317L36.5879 45.4944ZM49.2521 50.7708C49.2566 51.0896 49.0956 51.3878 48.827 51.5591L41.0064 56.5006C40.703 56.6919 40.3166 56.6919 40.0132 56.5006L32.1991 51.5591C31.9311 51.3878 31.7701 51.0902 31.7746 50.7727V48.5113L33.1008 50.5376C33.294 50.8326 33.6122 51.0226 33.9632 51.0522C33.9961 51.0555 34.0257 51.0568 34.0579 51.0568C34.378 51.0568 34.6827 50.9234 34.9004 50.6896L39.896 45.3346C40.3816 44.9855 40.6464 44.9855 41.1327 45.3346L46.1289 50.6896C46.3472 50.9234 46.6525 51.0568 46.972 51.0568C47.0049 51.0568 47.0371 51.0555 47.0693 51.0522C47.419 51.0226 47.7359 50.8326 47.9266 50.5376L49.2528 48.5113L49.2521 50.7708ZM40.5291 38.9252C32.7974 38.9252 28.8105 36.763 28.8105 35.84C28.8105 35.4413 29.8868 34.3805 32.9984 33.6031L32.9237 34.034C32.8251 34.6047 33.1646 35.1605 33.7178 35.3325L35.5909 35.916C37.1721 36.4332 38.8249 36.6973 40.4886 36.698C42.1529 36.6967 43.8063 36.4345 45.3895 35.9205L47.2773 35.3325C47.8306 35.1605 48.17 34.6047 48.0715 34.034L48 33.6218C51.1606 34.4018 52.2162 35.4497 52.2162 35.8722C52.2169 36.7868 48.2402 38.9278 40.5291 38.9278V38.9252Z" fill="url(#paint0_linear_112_331)"/>
<path d="M71.9122 41.89C72.4899 44.0052 74.5439 45.3668 76.7178 45.075C78.8909 44.7833 80.5134 42.9289 80.5134 40.7358C80.5134 38.5426 78.8909 36.6877 76.7178 36.3965C74.5439 36.1047 72.4899 37.4657 71.9122 39.5816H64.5122C64.4394 38.0235 64.2094 36.4764 63.8269 34.9647H68.3922C69.0363 34.9415 69.5432 34.4082 69.5342 33.7641V29.0287H71.1889C71.3988 29.7604 71.7846 30.4303 72.3122 30.9797C73.1301 31.8022 74.2419 32.2653 75.4019 32.2679C76.5619 32.2698 77.6749 31.8099 78.4955 30.9906V30.9919C80.2062 29.2844 80.2094 26.5135 78.5019 24.8028C76.7944 23.0915 74.0229 23.0889 72.3122 24.7964C71.7853 25.3355 71.3995 25.9963 71.1889 26.7203H68.3922C67.7468 26.7325 67.229 27.2568 67.2257 27.9022V32.6563H63.1254C60.6721 25.7548 55.1979 20.3541 48.2636 17.996V14.0239H53.3468C53.9922 14.02 54.5171 13.5022 54.5294 12.8568V10.0601C55.2527 9.84953 55.9135 9.46372 56.4526 8.93685C58.1601 7.22678 58.1588 4.45588 56.4494 2.7471C54.74 1.03832 51.9691 1.03832 50.2597 2.7471C48.5496 4.45588 48.5483 7.22678 50.2564 8.93685H50.27C50.8187 9.46501 51.4886 9.85017 52.2209 10.0601V11.7155H47.1216C46.484 11.7084 45.9616 12.2198 45.9552 12.8568V17.3333C44.5478 17.0003 43.1128 16.8006 41.6681 16.7368V9.33747C43.7833 8.75908 45.1449 6.70506 44.8531 4.53189C44.5613 2.35807 42.707 0.735596 40.5139 0.735596C38.3207 0.735596 36.4657 2.35807 36.1746 4.53189C35.8828 6.70506 37.2438 8.75908 39.3596 9.33747V16.7368C37.8016 16.8103 36.2545 17.0396 34.7428 17.4221V12.8568C34.7196 12.2134 34.1863 11.7058 33.5422 11.7155H28.8068V10.0601C29.5385 9.85017 30.2084 9.46501 30.7578 8.93685C31.5803 8.11885 32.0434 7.00779 32.046 5.84777C32.0479 4.68776 31.588 3.57476 30.7687 2.75354H30.77C29.0625 1.04283 26.2916 1.04025 24.5809 2.74775C22.8695 4.45524 22.867 7.22613 24.5745 8.93685C25.1136 9.46372 25.7744 9.84953 26.4984 10.0601V12.8568C26.5106 13.5022 27.0349 14.02 27.6803 14.0239H32.4343V18.1242C25.5329 20.5769 20.1321 26.0517 17.7741 32.986H13.802V27.9022C13.7981 27.2568 13.2803 26.7325 12.6349 26.7203H9.83823C9.62761 25.9963 9.24179 25.3355 8.71492 24.7964C7.00485 23.0889 4.23396 23.0902 2.52518 24.7996C0.816396 26.5097 0.816396 29.2806 2.52518 30.99C4.23396 32.6994 7.00485 32.7007 8.71492 30.9932V30.9797C9.24308 30.4303 9.62825 29.7604 9.83823 29.0287H11.4935V34.128C11.4865 34.765 11.9979 35.2874 12.6349 35.2945H17.1113C16.7783 36.7012 16.5787 38.1369 16.5149 39.5816H9.11555C8.53715 37.4657 6.48314 36.1047 4.30996 36.3965C2.13615 36.6877 0.513672 38.5426 0.513672 40.7358C0.513672 42.9289 2.13615 44.7833 4.30996 45.075C6.48314 45.3668 8.53715 44.0052 9.11555 41.89H16.5149C16.5883 43.4481 16.8176 44.9945 17.2002 46.5069H12.6349C11.9914 46.5294 11.4839 47.0627 11.4935 47.7068V52.4428H9.83823C9.62825 51.7105 9.24308 51.0406 8.71492 50.4912C7.89692 49.6687 6.78586 49.2056 5.62585 49.2037C4.46583 49.2018 3.35284 49.661 2.53162 50.4809V50.479C0.835075 52.1891 0.839583 54.9484 2.54064 56.6533C4.24233 58.3582 7.00163 58.3679 8.71492 56.6745C9.24179 56.1354 9.62761 55.4746 9.83823 54.7513H12.6349C13.2803 54.739 13.7981 54.2141 13.802 53.5687V48.8153H17.9023C20.355 55.7168 25.8298 61.1169 32.7641 63.4755V67.4477H27.6803C27.0349 67.4509 26.5106 67.9687 26.4984 68.6141V71.4108C25.7744 71.6214 25.1136 72.0072 24.5745 72.5341C22.8663 74.2448 22.8676 77.0163 24.5777 78.7251C26.2871 80.4345 29.0586 80.4345 30.7687 78.7251C32.4788 77.0163 32.4801 74.2448 30.7713 72.5341H30.7578C30.2084 72.0066 29.5385 71.6208 28.8068 71.4108V69.7561H33.9061C34.5431 69.7625 35.0655 69.2518 35.0726 68.6141V64.1377C36.4793 64.4713 37.9149 64.671 39.3596 64.7341V72.1341C37.2438 72.7118 35.8828 74.7659 36.1746 76.9397C36.4657 79.1129 38.3207 80.7353 40.5139 80.7353C42.707 80.7353 44.5613 79.1129 44.8531 76.9397C45.1449 74.7659 43.7833 72.7118 41.6681 72.1341V64.7341C43.2261 64.6613 44.7726 64.4314 46.2849 64.0488V68.6141C46.3075 69.2582 46.8408 69.7651 47.4849 69.7561H52.2209V71.4108C51.4886 71.6208 50.8187 72.0066 50.2693 72.5341C49.4468 73.3521 48.9837 74.4638 48.9818 75.6238C48.9798 76.7838 49.4391 77.8968 50.259 78.7174H50.2571C51.9671 80.4139 54.7264 80.4101 56.4314 78.7084C58.1363 77.0067 58.1459 74.2474 56.4526 72.5341C55.9135 72.0072 55.2527 71.6214 54.5294 71.4108V68.6141C54.5171 67.9687 53.9922 67.4509 53.3468 67.4477H48.5934V63.3467C55.4949 60.8946 60.8949 55.4198 63.2536 48.4855H67.2257V53.5687C67.229 54.2141 67.7468 54.739 68.3922 54.7513H71.1889C71.3995 55.4746 71.7853 56.1354 72.3122 56.6745C74.0229 58.3827 76.7944 58.3814 78.5032 56.672C80.2126 54.9619 80.2126 52.1904 78.5032 50.4809C76.7944 48.7709 74.0229 48.7696 72.3122 50.4777V50.4912C71.7846 51.0406 71.3988 51.7105 71.1889 52.4428H69.5342V47.3435C69.5406 46.7059 69.0298 46.1835 68.3922 46.1771H63.9157C64.2494 44.7697 64.4491 43.3347 64.5122 41.89H71.9122ZM74.6676 39.2763C75.474 38.4705 76.7802 38.4705 77.5866 39.2763C78.3924 40.082 78.3924 41.3889 77.5866 42.1947C76.7802 43.0011 75.474 43.0011 74.6676 42.1947C74.2792 41.8088 74.0602 41.2833 74.0602 40.7358C74.0602 40.1877 74.2792 39.6627 74.6676 39.2763ZM73.9443 26.4433C74.7507 25.6369 76.0569 25.6369 76.8633 26.4433C77.6691 27.2491 77.6691 28.556 76.8633 29.3617C76.0556 30.1598 74.7558 30.1559 73.9533 29.3533C73.1501 28.5508 73.1469 27.2504 73.9443 26.4433ZM51.8873 7.30471C51.0815 6.49895 51.0815 5.19208 51.8873 4.38632C52.6937 3.57992 53.9999 3.57992 54.8063 4.38632C55.6121 5.19208 55.6121 6.49895 54.8063 7.30471C54.4205 7.69503 53.8949 7.91467 53.3468 7.91467C52.798 7.91467 52.2724 7.69503 51.8873 7.30471ZM26.2208 4.38632C27.0278 3.58185 28.3327 3.58185 29.1398 4.38632C29.9456 5.19208 29.9456 6.49895 29.1398 7.30471C28.3334 8.11048 27.0272 8.11048 26.2208 7.30471C25.415 6.49895 25.415 5.19208 26.2208 4.38632ZM7.08279 29.3617C6.27703 30.1668 4.97145 30.1662 4.16633 29.3604C3.36057 28.5553 3.36057 27.2497 4.16633 26.444C4.97145 25.6382 6.27703 25.6382 7.08279 26.4433C7.47311 26.8285 7.69339 27.3541 7.69339 27.9022C7.69339 28.451 7.47311 28.9766 7.08279 29.3617ZM6.35947 42.1947C5.55371 42.9998 4.24813 42.9998 3.44301 42.194C2.63789 41.3883 2.63789 40.0827 3.44301 39.2776C4.24813 38.4718 5.55371 38.4711 6.35947 39.2763C7.16459 40.0827 7.16459 41.3883 6.35947 42.1947ZM7.08279 55.0282C6.27703 55.834 4.97016 55.834 4.1644 55.0282C3.35864 54.2225 3.35864 52.9156 4.1644 52.1098C4.97145 51.3118 6.27187 51.3157 7.07442 52.1182C7.87696 52.9208 7.88082 54.2205 7.08279 55.0282ZM29.1398 74.1662C29.838 74.8631 29.9468 75.9555 29.3994 76.7761C28.8525 77.596 27.802 77.9155 26.8906 77.5387C25.9799 77.1619 25.4614 76.1938 25.654 75.227C25.8459 74.2596 26.6942 73.5633 27.6803 73.5627C28.2278 73.5614 28.7533 73.7785 29.1398 74.1662ZM54.8063 77.0853C53.9999 77.8897 52.6943 77.8897 51.8879 77.0853C51.0822 76.2788 51.0822 74.9726 51.8879 74.1662C52.6937 73.3605 54.0006 73.3605 54.8063 74.1662C55.6121 74.9726 55.6121 76.2788 54.8063 77.0853ZM73.9443 52.1098C74.7507 51.3034 76.0569 51.3034 76.8633 52.1098C77.6691 52.9156 77.6691 54.2225 76.8633 55.0282C76.0569 55.834 74.7507 55.834 73.9443 55.0282C73.554 54.6431 73.3343 54.1175 73.3343 53.5687C73.3343 53.02 73.554 52.4944 73.9443 52.1092V52.1098ZM39.0543 3.663C39.8601 2.85724 41.167 2.85724 41.9727 3.663C42.7785 4.46941 42.7785 5.77563 41.9727 6.5814C41.167 7.38716 39.8601 7.38716 39.0543 6.5814C38.666 6.19558 38.4476 5.67 38.4476 5.12252C38.4476 4.5744 38.666 4.04946 39.0543 3.663ZM41.9727 77.8079C41.167 78.613 39.8614 78.6124 39.0563 77.8073C38.2512 77.0015 38.2512 75.6959 39.0563 74.8902C39.8614 74.0851 41.167 74.0844 41.9727 74.8895C42.7779 75.6959 42.7779 77.0015 41.9727 77.8079ZM40.5139 62.454C28.5382 62.454 18.795 52.7108 18.795 40.7358C18.795 28.7601 28.5382 19.0169 40.5139 19.0169C52.4889 19.0169 62.2321 28.7601 62.2321 40.7358C62.2321 52.7108 52.4889 62.454 40.5139 62.454Z" fill="url(#paint1_linear_112_331)"/>
</g>
<defs>
<linearGradient id="paint0_linear_112_331" x1="26.799" y1="41.2478" x2="54.2285" y2="41.3062" gradientUnits="userSpaceOnUse">
<stop stop-color="#4D51AB"/>
<stop offset="1" stop-color="#55CEE3"/>
</linearGradient>
<linearGradient id="paint1_linear_112_331" x1="1.33434" y1="40.1246" x2="79.6928" y2="40.3325" gradientUnits="userSpaceOnUse">
<stop stop-color="#4D51AB"/>
<stop offset="1" stop-color="#55CEE3"/>
</linearGradient>
<clipPath id="clip0_112_331">
<rect width="80" height="80" fill="white" transform="translate(0.513672 0.735596)"/>
</clipPath>
</defs>
</svg>
