<svg width="30" height="31" viewBox="0 0 30 31" fill="none" xmlns="http://www.w3.org/2000/svg">
<g clip-path="url(#clip0_125_161)">
<path d="M8.4756 8.22808C8.29254 7.3784 7.55652 6.76106 6.68798 6.72888C5.81918 6.69644 5.03941 7.25744 4.79398 8.09128C4.54831 8.92512 4.8996 9.81906 5.64719 10.2629C6.39452 10.7065 7.34756 10.5868 7.96187 9.97195C8.41978 9.5163 8.6134 8.85874 8.4756 8.22808ZM7.32467 9.3345C7.08704 9.57741 6.74053 9.67975 6.40936 9.60482C6.03368 9.51957 5.74048 9.22637 5.65523 8.85094C5.59262 8.55724 5.66504 8.25121 5.85263 8.01685C6.04022 7.78249 6.32311 7.64494 6.62335 7.64167C6.69653 7.64167 6.76945 7.64972 6.84086 7.66531C7.21629 7.75056 7.5095 8.04376 7.59474 8.41919C7.66967 8.75061 7.56733 9.09687 7.32467 9.3345Z" fill="white"/>
<path d="M17.891 17.7609C17.6421 17.7609 17.4404 17.9625 17.4404 18.2115V20.1731C17.4404 20.4218 17.6421 20.6237 17.891 20.6237C18.14 20.6237 18.3417 20.4218 18.3417 20.1731V18.2115C18.3417 17.9625 18.14 17.7609 17.891 17.7609Z" fill="white"/>
<path d="M8.4756 18.7853C8.29254 17.9356 7.55652 17.3183 6.68798 17.2861C5.81918 17.2537 5.03941 17.8147 4.79398 18.6485C4.54831 19.4824 4.8996 20.3763 5.64719 20.8201C6.39452 21.2637 7.34756 21.144 7.96187 20.5292C8.41978 20.0736 8.6134 19.416 8.4756 18.7853ZM7.32467 19.8917C7.08704 20.1347 6.74053 20.237 6.40936 20.1621C6.03368 20.0768 5.74048 19.7836 5.65523 19.4082C5.59262 19.1145 5.66504 18.8085 5.85263 18.5741C6.04022 18.3397 6.32311 18.2022 6.62335 18.1989C6.69653 18.1989 6.76945 18.207 6.84086 18.2226C7.21629 18.3078 7.5095 18.601 7.59474 18.9764C7.66967 19.3079 7.56733 19.6541 7.32467 19.8917Z" fill="white"/>
<path d="M15.9599 17.7609C15.7109 17.7609 15.5093 17.9625 15.5093 18.2115V20.1731C15.5093 20.4218 15.7109 20.6237 15.9599 20.6237C16.2088 20.6237 16.4105 20.4218 16.4105 20.1731V18.2115C16.4105 17.9625 16.2088 17.7609 15.9599 17.7609Z" fill="white"/>
<path d="M2.26897 29.8005C3.02611 29.7982 3.68997 29.2938 3.89516 28.5646H10.0376C10.2551 29.7587 11.2951 30.6265 12.5089 30.6265C13.7224 30.6265 14.7627 29.7587 14.98 28.5646H21.1226C21.3482 29.3785 22.1403 29.9008 22.9774 29.7872C23.8143 29.6733 24.4384 28.9586 24.4384 28.1139C24.4384 27.2693 23.8143 26.5546 22.9774 26.441C22.1403 26.3271 21.3482 26.8494 21.1226 27.6633H14.98C14.7834 26.6303 13.9694 25.8257 12.9341 25.6408V23.4147H21.3336C22.4157 23.4089 23.2917 22.5333 23.2983 21.4513V17.568C26.9321 16.4475 29.4118 13.09 29.4138 9.28718C29.4138 4.51171 25.5252 0.626407 20.7495 0.626407C17.8761 0.615343 15.1872 2.04061 13.5831 4.42445H3.68393C2.60693 4.42571 1.73412 5.29878 1.73311 6.37578V10.894C1.73336 11.9735 2.60467 12.8504 3.68393 12.8574H12.0329V14.9817H3.68393C2.60693 14.983 1.73412 15.8561 1.73311 16.9331V21.4513C1.73336 22.5308 2.60467 23.4076 3.68393 23.4147H12.0329V25.6408C11.0092 25.8292 10.2121 26.6371 10.0376 27.6633H3.89516C3.66231 26.8217 2.82595 26.2967 1.96672 26.4528C1.10748 26.6092 0.509507 27.395 0.587963 28.2648C0.666418 29.1346 1.39565 29.8007 2.26897 29.8005ZM20.7462 1.52764C25.0316 1.52764 28.5058 5.0018 28.5058 9.28718C28.5058 13.5725 25.0318 17.0467 20.7462 17.0467C16.4608 17.0467 12.9867 13.5728 12.9867 9.28718C12.9915 5.00381 16.4629 1.53267 20.7462 1.52764ZM2.63434 10.894V6.37578C2.63484 5.79616 3.10457 5.32644 3.68393 5.32568H13.046C12.4101 6.5513 12.0804 7.9127 12.0854 9.29321C12.0849 10.1972 12.2258 11.0957 12.5029 11.9562H3.68393C3.10205 11.9499 2.63384 11.4761 2.63434 10.894ZM12.9341 13.0764C13.3204 13.7682 13.725 14.4024 14.2266 14.9817H12.9341V13.0764ZM2.63434 21.4513V16.9331C2.63484 16.3534 3.10457 15.8837 3.68393 15.883H15.1404C16.3912 16.9454 17.917 17.6324 19.5415 17.8647C19.4364 17.9495 19.374 18.0764 19.3715 18.2115V20.1731C19.3715 20.4218 19.5732 20.6237 19.8221 20.6237C20.071 20.6237 20.2727 20.4218 20.2727 20.1731V18.2115C20.2752 18.1096 20.2428 18.0101 20.1807 17.9293C20.3653 17.9414 20.5616 17.9479 20.7492 17.9479C21.3022 17.9487 21.8541 17.8966 22.3973 17.792V21.4513C22.3913 22.0359 21.9183 22.5082 21.3336 22.5134H3.68393C3.10205 22.5072 2.63384 22.0334 2.63434 21.4513ZM22.7488 27.3256C23.1834 27.3256 23.5354 27.6777 23.5354 28.1119C23.5354 28.5465 23.1834 28.8985 22.7488 28.8985C22.3146 28.8985 21.9625 28.5465 21.9625 28.1119C21.963 27.6779 22.3148 27.3259 22.7488 27.3256ZM12.5092 26.5008C13.3991 26.5008 14.1205 27.222 14.1205 28.1119C14.1205 29.0019 13.3991 29.7233 12.5092 29.7233C11.6192 29.7233 10.8981 29.0019 10.8981 28.1119C10.8933 27.6832 11.0615 27.2708 11.3648 26.9675C11.668 26.6643 12.0804 26.4961 12.5092 26.5008ZM2.26897 27.3256C2.70324 27.3256 3.05528 27.6777 3.05528 28.1119C3.05528 28.5465 2.70324 28.8985 2.26897 28.8985C1.83445 28.8985 1.4824 28.5465 1.4824 28.1119C1.48291 27.6779 1.8347 27.3259 2.26897 27.3256Z" fill="white"/>
<path d="M17.4733 13.3551L20.4795 15.406C20.5569 15.4648 20.6517 15.4968 20.749 15.4968H20.7495C20.8413 15.4968 20.9306 15.4684 21.0055 15.4153L24.0311 13.3554C24.9889 12.7021 25.7445 11.2828 25.7445 10.1241V5.88097C25.7425 5.70847 25.6429 5.55181 25.4875 5.47662L20.9499 3.24919C20.8828 3.21902 20.8104 3.20267 20.7367 3.20142H20.7362C20.6452 3.20167 20.5567 3.22983 20.4825 3.28239L16.0176 5.47008C15.8634 5.54577 15.7659 5.70294 15.7666 5.87468V10.1241C15.7666 11.2828 16.5152 12.7021 17.4733 13.3551ZM24.8433 10.1241C24.8433 10.9861 24.236 12.1247 23.5231 12.6105L21.2009 14.1927L21.1946 4.37146L24.8433 6.16185V10.1241ZM16.6678 6.15581L20.2886 4.38152L20.2982 14.1915L17.9815 12.6105C17.2686 12.1247 16.6678 10.9858 16.6678 10.1241V6.15581Z" fill="white"/>
</g>
<defs>
<clipPath id="clip0_125_161">
<rect width="30" height="30" fill="white" transform="translate(0 0.626465)"/>
</clipPath>
</defs>
</svg>
