<svg width="31" height="31" viewBox="0 0 31 31" fill="none" xmlns="http://www.w3.org/2000/svg">
<path d="M25.25 4.11511H23.375C23.375 3.08136 22.5338 2.24011 21.5 2.24011C20.4663 2.24011 19.625 3.08136 19.625 4.11511H12.125C12.125 3.08136 11.2838 2.24011 10.25 2.24011C9.21625 2.24011 8.375 3.08136 8.375 4.11511H6.5C4.77688 4.11511 3.375 5.51699 3.375 7.24011V25.3651C3.375 27.0882 4.77688 28.4901 6.5 28.4901H25.25C26.9731 28.4901 28.375 27.0882 28.375 25.3651V7.24011C28.375 5.51699 26.9731 4.11511 25.25 4.11511ZM20.875 4.11511C20.875 3.77074 21.155 3.49011 21.5 3.49011C21.845 3.49011 22.125 3.77074 22.125 4.11511V5.36511C22.125 5.70949 21.845 5.99011 21.5 5.99011C21.155 5.99011 20.875 5.70949 20.875 5.36511V4.11511ZM9.625 4.11511C9.625 3.77074 9.905 3.49011 10.25 3.49011C10.595 3.49011 10.875 3.77074 10.875 4.11511V5.36511C10.875 5.70949 10.595 5.99011 10.25 5.99011C9.905 5.99011 9.625 5.70949 9.625 5.36511V4.11511ZM4.625 7.24011C4.625 6.20636 5.46625 5.36511 6.5 5.36511H8.375C8.375 6.39886 9.21625 7.24011 10.25 7.24011C11.2838 7.24011 12.125 6.39886 12.125 5.36511H19.625C19.625 6.39886 20.4663 7.24011 21.5 7.24011C22.5338 7.24011 23.375 6.39886 23.375 5.36511H25.25C26.2838 5.36511 27.125 6.20636 27.125 7.24011V9.74011H4.625V7.24011ZM27.125 25.3651C27.125 26.3989 26.2838 27.2401 25.25 27.2401H6.5C5.46625 27.2401 4.625 26.3989 4.625 25.3651V10.9901H27.125V25.3651Z" fill="white"/>
<path d="M8.375 17.8651H10.25C10.9394 17.8651 11.5 17.3045 11.5 16.6151V14.7401C11.5 14.0507 10.9394 13.4901 10.25 13.4901H8.375C7.68563 13.4901 7.125 14.0507 7.125 14.7401V16.6151C7.125 17.3045 7.68563 17.8651 8.375 17.8651ZM8.375 14.7401H10.25L10.2513 16.6151H8.375V14.7401Z" fill="white"/>
<path d="M14.9375 17.8651H16.8125C17.5019 17.8651 18.0625 17.3045 18.0625 16.6151V14.7401C18.0625 14.0507 17.5019 13.4901 16.8125 13.4901H14.9375C14.2481 13.4901 13.6875 14.0507 13.6875 14.7401V16.6151C13.6875 17.3045 14.2481 17.8651 14.9375 17.8651ZM14.9375 14.7401H16.8125L16.8138 16.6151H14.9375V14.7401Z" fill="white"/>
<path d="M21.5 17.8651H23.375C24.0644 17.8651 24.625 17.3045 24.625 16.6151V14.7401C24.625 14.0507 24.0644 13.4901 23.375 13.4901H21.5C20.8106 13.4901 20.25 14.0507 20.25 14.7401V16.6151C20.25 17.3045 20.8106 17.8651 21.5 17.8651ZM21.5 14.7401H23.375L23.3762 16.6151H21.5V14.7401Z" fill="white"/>
<path d="M8.375 24.7401H10.25C10.9394 24.7401 11.5 24.1795 11.5 23.4901V21.6151C11.5 20.9257 10.9394 20.3651 10.25 20.3651H8.375C7.68563 20.3651 7.125 20.9257 7.125 21.6151V23.4901C7.125 24.1795 7.68563 24.7401 8.375 24.7401ZM8.375 21.6151H10.25L10.2513 23.4901H8.375V21.6151Z" fill="white"/>
<path d="M14.9375 24.7401H16.8125C17.5019 24.7401 18.0625 24.1795 18.0625 23.4901V21.6151C18.0625 20.9257 17.5019 20.3651 16.8125 20.3651H14.9375C14.2481 20.3651 13.6875 20.9257 13.6875 21.6151V23.4901C13.6875 24.1795 14.2481 24.7401 14.9375 24.7401ZM14.9375 21.6151H16.8125L16.8138 23.4901H14.9375V21.6151Z" fill="white"/>
<path d="M21.5 24.7401H23.375C24.0644 24.7401 24.625 24.1795 24.625 23.4901V21.6151C24.625 20.9257 24.0644 20.3651 23.375 20.3651H21.5C20.8106 20.3651 20.25 20.9257 20.25 21.6151V23.4901C20.25 24.1795 20.8106 24.7401 21.5 24.7401ZM21.5 21.6151H23.375L23.3762 23.4901H21.5V21.6151Z" fill="white"/>
</svg>
