<svg width="81" height="81" viewBox="0 0 81 81" fill="none" xmlns="http://www.w3.org/2000/svg">
<g clip-path="url(#clip0_112_371)">
<path d="M12.5241 19.7118C8.31619 19.722 4.90689 23.1281 4.89235 27.336V67.1386H2.62875C2.00279 67.1386 1.49316 67.5673 1.49316 68.1932V73.1719C1.49759 75.1844 2.30249 77.1129 3.7302 78.5318C5.15791 79.9506 7.09082 80.7435 9.10339 80.7353H71.5786C73.5918 80.7435 75.5247 79.9506 76.9524 78.5318C78.3795 77.1129 79.1844 75.1844 79.1888 73.1719V68.1932C79.1888 67.5673 78.6792 67.1386 78.0532 67.1386H75.7896V27.336C75.7757 23.1281 72.3658 19.722 68.1585 19.7118H49.2436V15.3415H56.1767C56.8026 15.3554 57.3217 14.8597 57.3369 14.2331V9.87217C58.0463 9.66098 58.6938 9.28161 59.2249 8.7663C60.9055 7.08947 60.9074 4.36746 59.23 2.6881C57.5519 1.00938 54.8299 1.00938 53.1518 2.6881C51.4737 4.36746 51.4756 7.08947 53.1562 8.7663C53.6722 9.31449 54.338 9.69892 55.0708 9.87217V13.0753H48.1226C47.4896 13.0861 46.9813 13.6001 46.9775 14.2331V19.7118H41.474V9.16211C43.5461 8.59495 44.8783 6.58237 44.5925 4.45345C44.3061 2.32454 42.4895 0.735596 40.341 0.735596C38.1931 0.735596 36.3759 2.32454 36.0901 4.45345C35.8037 6.58237 37.1365 8.59495 39.2079 9.16211V19.7118H33.3808V14.2331C33.3618 13.5938 32.842 13.0836 32.2028 13.0753H25.6112V9.87217C26.3446 9.69892 27.0104 9.31449 27.527 8.7663C29.2026 7.09136 29.2051 4.37568 27.534 2.69632H27.5371C26.3105 1.46905 24.4642 1.10232 22.8607 1.76623C21.2572 2.43076 20.2121 3.99568 20.2127 5.73131C20.2051 6.8688 20.6528 7.96203 21.4564 8.7663C21.9882 9.28161 22.6363 9.66098 23.3451 9.87217V14.2331C23.3602 14.8597 23.8793 15.3554 24.5059 15.3415H31.1146V19.7118H12.5241ZM54.7439 4.29918C55.5349 3.50755 56.8178 3.50755 57.6094 4.29854C58.4004 5.09017 58.4004 6.37308 57.6094 7.16408C56.8178 7.9557 55.5349 7.9557 54.7439 7.16408C53.9542 6.37245 53.9542 5.0908 54.7439 4.29918ZM38.3151 5.02188C38.3151 4.10506 38.931 3.30206 39.8168 3.06495C40.7027 2.82721 41.6372 3.21417 42.0956 4.00832C42.554 4.80248 42.4219 5.80592 41.7738 6.45402C41.1939 7.03319 40.3227 7.20644 39.5658 6.89282C38.809 6.57921 38.3151 5.8407 38.3151 5.02188ZM22.4801 5.73131C22.4801 4.76454 23.1623 3.93245 24.1108 3.74403C25.0586 3.5556 26.0083 4.0627 26.3782 4.95612C26.748 5.84892 26.4357 6.87891 25.6321 7.41636C24.8278 7.95317 23.7567 7.84758 23.0732 7.16408C22.6919 6.7847 22.4782 6.26939 22.4801 5.73131ZM76.9227 73.1719C76.9189 74.5838 76.353 75.9362 75.3508 76.9302C74.348 77.9242 72.9905 78.478 71.5786 78.4692H9.10339C7.69149 78.478 6.3346 77.9242 5.33179 76.9302C4.32898 75.9362 3.76308 74.5838 3.75929 73.1719V69.4047H30.3458L31.3239 70.4088C32.7719 71.9541 34.8002 72.8222 36.9178 72.8039H43.7648C45.8824 72.8222 47.9108 71.9541 49.3587 70.4088L50.3362 69.4047H76.9227V73.1719ZM73.5235 27.336V67.1386H49.8399C49.5281 67.124 49.2253 67.2429 49.0065 67.4648L47.692 68.8533C46.6759 69.939 45.252 70.5498 43.7648 70.5378H36.9178C35.4281 70.5428 34.0042 69.9251 32.99 68.8337L31.6761 67.456C31.4561 67.2366 31.1532 67.1209 30.8427 67.1386H7.15847V27.336C7.17112 24.3794 9.56749 21.9868 12.5241 21.978H68.1585C71.1151 21.9868 73.5109 24.3794 73.5235 27.336Z" fill="url(#paint0_linear_112_371)"/>
<path d="M69.4771 27.6433C69.4771 27.0179 68.97 26.5102 68.344 26.5102H12.5002C11.8749 26.5102 11.3672 27.0179 11.3672 27.6433V62.4444C11.3672 63.0704 11.8749 63.5775 12.5002 63.5775H68.344C68.97 63.5775 69.4771 63.0704 69.4771 62.4444V27.6433ZM13.6333 28.7763H67.0491V61.4732H13.6333V28.7763Z" fill="url(#paint1_linear_112_371)"/>
<path d="M52.2081 35.6595L40.9078 30.1004C40.7333 29.9764 40.5253 29.9101 40.3116 29.9094H40.3103C40.0416 29.9107 39.783 30.0093 39.5819 30.187L28.4764 35.6437C28.0964 35.8378 27.8631 36.2342 27.8776 36.661V47.3461C27.8776 50.2596 29.7283 53.8283 32.1373 55.4703L39.721 60.6551C39.9056 60.7835 40.1257 60.8524 40.3508 60.8524C40.5771 60.8524 40.7978 60.7835 40.9843 60.6551L48.5478 55.4703C50.9568 53.8283 52.805 50.259 52.805 47.3461V36.6768C52.8201 36.2506 52.5868 35.8548 52.2081 35.6595ZM30.1437 47.3461V37.3679L39.2164 32.9065L39.224 57.5733L33.4228 53.5981C31.6309 52.3765 30.1437 49.5129 30.1437 47.3461ZM50.5388 47.3461C50.5388 49.5129 49.0612 52.3759 47.2693 53.5981L41.4547 57.5765L41.4016 32.8812L50.5388 37.3824V47.3461Z" fill="url(#paint2_linear_112_371)"/>
</g>
<defs>
<linearGradient id="paint0_linear_112_371" x1="2.2902" y1="40.1246" x2="78.3919" y2="40.3207" gradientUnits="userSpaceOnUse">
<stop stop-color="#4D51AB"/>
<stop offset="1" stop-color="#55CEE3"/>
</linearGradient>
<linearGradient id="paint1_linear_112_371" x1="11.9633" y1="44.7608" x2="68.8804" y2="44.9975" gradientUnits="userSpaceOnUse">
<stop stop-color="#4D51AB"/>
<stop offset="1" stop-color="#55CEE3"/>
</linearGradient>
<linearGradient id="paint2_linear_112_371" x1="28.1327" y1="45.1446" x2="52.55" y2="45.1968" gradientUnits="userSpaceOnUse">
<stop stop-color="#4D51AB"/>
<stop offset="1" stop-color="#55CEE3"/>
</linearGradient>
<clipPath id="clip0_112_371">
<rect width="80" height="80" fill="white" transform="translate(0.322266 0.735596)"/>
</clipPath>
</defs>
</svg>
