<svg width="50" height="50" viewBox="0 0 50 50" fill="none" xmlns="http://www.w3.org/2000/svg">
<circle cx="25" cy="25" r="25" fill="url(#paint0_linear_408_59)"/>
<path d="M39.147 16.3407L25.4092 9.47173C25.1512 9.34276 24.8477 9.34276 24.5899 9.47173L10.8521 16.3407C10.5417 16.4958 10.3457 16.8131 10.3457 17.16V22.7365C10.3457 30.967 15.9931 38.736 24.8067 40.625C34.0469 39.1213 39.6791 30.6791 39.6535 22.7367V17.16C39.6534 16.8131 39.4574 16.4958 39.147 16.3407ZM24.9995 20.1691C24.4226 20.1691 23.9532 19.6995 23.9532 19.1226C24.0058 17.7362 25.9936 17.7367 26.046 19.1226C26.0459 19.6997 25.5765 20.1691 24.9995 20.1691ZM37.8211 22.7365C37.8211 31.5235 31.5153 35.8339 29.8407 36.841V27.3522L31.5685 25.6244C33.4315 26.5875 35.7565 25.1545 35.7282 23.0475C35.7282 21.4603 34.4368 20.1689 32.8496 20.1689C30.7429 20.141 29.3095 22.4657 30.2729 24.3288L28.2768 26.325C28.105 26.4967 28.0084 26.7297 28.0084 26.9727V37.7929C27.3303 38.093 26.6312 38.3477 25.9156 38.5544V21.851C28.9621 20.7758 28.2697 16.3082 24.9994 16.244C21.7286 16.3084 21.0373 20.7764 24.0833 21.851V38.5546C23.3677 38.348 22.6686 38.0932 21.9905 37.793V26.9728C21.9905 26.7299 21.8939 26.4967 21.7221 26.3251L19.726 24.329C20.6891 22.466 19.2561 20.141 17.1491 20.1692C15.5619 20.1692 14.2705 21.4605 14.2705 23.0478C14.2426 25.1545 16.5673 26.5881 18.4304 25.6247L20.1582 27.3525V36.8413C18.4838 35.8341 12.178 31.5236 12.178 22.7367V17.7263L24.9995 11.3154L37.8211 17.7263V22.7365ZM31.8033 23.0477C31.8033 22.4707 32.2726 22.0013 32.8496 22.0013C34.236 22.0539 34.2355 24.0418 32.8496 24.0942C32.2726 24.0942 31.8033 23.6247 31.8033 23.0477ZM18.1958 23.0477C18.1958 23.6247 17.7264 24.0942 17.1494 24.0942C15.7631 24.0416 15.7634 22.0538 17.1494 22.0013C17.7264 22.0013 18.1958 22.4707 18.1958 23.0477Z" fill="url(#paint1_linear_408_59)"/>
<defs>
<linearGradient id="paint0_linear_408_59" x1="0.512919" y1="24.6182" x2="49.4871" y2="24.7481" gradientUnits="userSpaceOnUse">
<stop offset="1" stop-color="white"/>
</linearGradient>
<linearGradient id="paint1_linear_408_59" x1="10.6464" y1="24.7614" x2="39.353" y2="24.8328" gradientUnits="userSpaceOnUse">
<stop stop-color="#4D51AB"/>
<stop offset="1" stop-color="#55CEE3"/>
</linearGradient>
</defs>
</svg>
