<svg width="27" height="21" viewBox="0 0 27 21" fill="none" xmlns="http://www.w3.org/2000/svg">
<path d="M2.66752 18.4584C1.19319 16.8367 0.308594 15.0675 0.308594 12.1188C0.308594 6.95866 3.99442 2.38823 9.15458 0.0292969L10.4815 1.94593C5.61619 4.59973 4.58416 7.99069 4.28929 10.2022C5.02646 9.75989 6.05849 9.61245 7.09052 9.75989C9.74432 10.0548 11.8084 12.1188 11.8084 14.92C11.8084 16.2469 11.2186 17.5738 10.334 18.6059C9.30202 19.6379 8.12255 20.0802 6.64822 20.0802C5.02646 20.0802 3.55212 19.343 2.66752 18.4584ZM17.4108 18.4584C15.9365 16.8367 15.0519 15.0675 15.0519 12.1188C15.0519 6.95866 18.7377 2.38823 23.8979 0.0292969L25.2248 1.94593C20.3595 4.59973 19.3275 7.99069 19.0326 10.2022C19.7698 9.75989 20.8018 9.61245 21.8338 9.75989C24.4876 10.0548 26.5517 12.1188 26.5517 14.92C26.5517 16.2469 25.962 17.5738 25.0774 18.6059C24.1928 19.6379 22.8659 20.0802 21.3915 20.0802C19.7698 20.0802 18.2954 19.343 17.4108 18.4584Z" fill="url(#paint0_linear_214_4513)"/>
<defs>
<linearGradient id="paint0_linear_214_4513" x1="0.577806" y1="9.90165" x2="26.2824" y2="9.9909" gradientUnits="userSpaceOnUse">
<stop stop-color="#4D51AB"/>
<stop offset="1" stop-color="#55CEE3"/>
</linearGradient>
</defs>
</svg>
